<?xml version="1.0" encoding="UTF-8"?> <svg xmlns="http://www.w3.org/2000/svg" xmlns:xlink="http://www.w3.org/1999/xlink" viewBox="0 0 315.53 94.31"><defs><style>.cls-1{isolation:isolate;}.cls-2{mix-blend-mode:overlay;fill:url(#linear-gradient);}.cls-3{fill:url(#linear-gradient-2);}.cls-4{fill:#f73d3c;}.cls-5{fill:#181818;}</style><linearGradient id="linear-gradient" y1="79.64" x2="21.11" y2="79.64" gradientUnits="userSpaceOnUse"><stop offset="0" stop-color="#231f20"></stop><stop offset="1" stop-color="#231f20"></stop></linearGradient><linearGradient id="linear-gradient-2" y1="31.03" x2="64.33" y2="31.03" xlink:href="#linear-gradient"></linearGradient></defs><title>roleto lofoAsset 1</title><g class="cls-1"><g id="Layer_2" data-name="Layer 2"><g id="Layer_1-2" data-name="Layer 1"><path class="cls-2" d="M3.47,66.81A2,2,0,0,0,0,68.25V89a4,4,0,0,0,4.05,4h13a4.05,4.05,0,0,0,4.05-4v-2.9a4.05,4.05,0,0,0-1.19-2.86Z"></path><path class="cls-3" d="M64.33,33.14A33.18,33.18,0,0,0,43,2.17h0l-.72-.26h0l-.72-.25h0l-.7-.22-.06,0-.7-.2-.08,0L39.24,1l-.11,0L38.47.81l-.14,0L37.7.64l-.18,0L36.91.5l-.22,0L36.12.37l-.26,0L35.32.26l-.3,0-.51,0-.36,0-.46,0-.41,0-.42,0-.51,0H17.86A17.86,17.86,0,0,0,0,17.86H0V32L21.11,53.12V31.19A10.08,10.08,0,0,1,31.19,21.11h0a11.82,11.82,0,0,1,3.59.55h0l.48.16.2.08.31.12.2.09.3.13.19.09.32.17.16.08.44.26.15.09.3.19.18.12.26.19.17.13.28.21.14.12.39.34.09.08.3.28.13.14L40,25l.13.15c.08.09.16.17.23.26l.12.14.3.38,0,0c.1.14.21.28.3.43l.1.14.2.31.1.17a3.07,3.07,0,0,1,.17.31l.09.16.2.37a.31.31,0,0,0,0,.1c.07.17.15.33.22.49s0,.09.05.13l.15.38.06.17.12.35.06.18.11.38a.83.83,0,0,0,0,.15l.12.53s0,.07,0,.1,0,.3.08.45a1.1,1.1,0,0,1,0,.18c0,.12,0,.25,0,.37a1.5,1.5,0,0,1,0,.2l0,.39a1.09,1.09,0,0,1,0,.18c0,.19,0,.38,0,.57a12,12,0,0,1-11.47,12h0L48.17,62.07A33.17,33.17,0,0,0,64.33,33.62c0-.08,0-.16,0-.24S64.33,33.22,64.33,33.14Z"></path><path class="cls-4" d="M59,93a4.4,4.4,0,0,0,3.1-7.51h0L9.31,32.75,0,23.44H0v28a4.4,4.4,0,0,0,1.29,3.11L13,66.27l2.35,2.35,3.23,3.24h0L39.77,93.07h0Z"></path><path class="cls-5" d="M94.55,47.1c-6.8,0-12.34,2.07-16.46,6.17s-6.3,10.07-6.3,17.43,2.12,13.22,6.3,17.4,9.66,6.21,16.46,6.21S106.88,92.22,111,88.1s6.3-10,6.3-17.4-2.11-13.22-6.3-17.43S101.34,47.1,94.55,47.1ZM103.94,81c-2.17,2.2-5.33,3.31-9.39,3.31s-7.2-1.11-9.39-3.31-3.4-5.73-3.4-10.33,1.14-8.11,3.39-10.37,5.36-3.26,9.4-3.26,7.22,1.1,9.39,3.26,3.39,5.74,3.39,10.37S106.19,78.78,103.94,81Z"></path><rect class="cls-5" x="124.6" y="30.17" width="9.97" height="63.29"></rect><rect class="cls-5" x="144" y="30.17" width="9.97" height="63.29"></rect><path class="cls-5" d="M198.56,51.81A23.49,23.49,0,0,0,184,47.31c-6.91,0-12.54,2.1-16.72,6.26s-6.38,9.91-6.38,16.79S163,82.76,167.1,87s9.6,6.32,16.38,6.43h18.84v-10H183.57c-4,0-7.15-1.22-9.37-3.49A7.28,7.28,0,0,1,173,78.45a17.72,17.72,0,0,1-2.1-8.42c.06-4,1.21-7.15,3.44-9.4s5.5-3.35,9.65-3.35a13.87,13.87,0,0,1,8.6,2.47A10.88,10.88,0,0,1,195,62.39L173.54,68.5l2.76,9.63L203,70.48a4.91,4.91,0,0,0,3-2.37,4.79,4.79,0,0,0,.49-3.75A21.11,21.11,0,0,0,198.56,51.81Z"></path><path class="cls-5" d="M226.6,80.18c-2.25-2.23-3.39-5.41-3.39-9.48V57.92H237V48H223.21V30.17h-10V70.7c0,6.77,2.12,12.32,6.3,16.5s9.61,6.23,16.41,6.26h1.38v-10H236C231.92,83.49,228.77,82.38,226.6,80.18Z"></path><path class="cls-5" d="M256.12,80.18c-2.25-2.23-3.39-5.41-3.39-9.48V57.92h13.81V48H252.73V30.17h-10V70.7c0,6.77,2.12,12.32,6.3,16.5s9.62,6.23,16.42,6.26h1.37v-10h-1.37C261.43,83.49,258.29,82.38,256.12,80.18Z"></path><path class="cls-5" d="M309.23,53.27c-4.12-4.1-9.66-6.17-16.46-6.17s-12.33,2.07-16.45,6.17S270,63.34,270,70.7s2.12,13.22,6.3,17.4,9.66,6.21,16.45,6.21,12.34-2.09,16.46-6.21,6.3-10,6.3-17.4S313.41,57.48,309.23,53.27ZM302.16,81c-2.16,2.2-5.32,3.31-9.39,3.31s-7.19-1.11-9.39-3.31S280,75.3,280,70.7s1.14-8.11,3.39-10.37,5.36-3.26,9.39-3.26,7.23,1.1,9.4,3.26,3.39,5.74,3.39,10.37S304.42,78.78,302.16,81Z"></path></g></g></g></svg> 