<?xml version="1.0" encoding="UTF-8"?> <svg xmlns="http://www.w3.org/2000/svg" width="1495" height="269" viewBox="0 0 1495 269" fill="none"><path d="M1447.81 0C1448.96 5.87649e-08 1450.04 0.244434 1451.05 0.733301C1452.1 1.26291 1452.99 1.97584 1453.72 2.87209C1454.49 3.76835 1455.08 4.80719 1455.5 5.98862C1455.95 7.21079 1456.18 8.53481 1456.18 9.96067C1456.18 11.3458 1455.95 12.6494 1455.5 13.8716C1455.08 15.0938 1454.49 16.153 1453.72 17.0492C1452.99 17.9455 1452.1 18.6381 1451.05 19.1269C1450.04 19.6565 1448.96 19.9213 1447.81 19.9213C1446.62 19.9213 1445.53 19.6565 1444.52 19.1269C1443.5 18.6381 1442.62 17.9455 1441.85 17.0492C1441.12 16.153 1440.54 15.0938 1440.12 13.8716C1439.7 12.6494 1439.49 11.3458 1439.49 9.96067C1439.49 8.5348 1439.7 7.21079 1440.12 5.98862C1440.54 4.80719 1441.12 3.76835 1441.85 2.87209C1442.62 1.97584 1443.5 1.26291 1444.52 0.733301C1445.53 0.244433 1446.62 -6.05457e-08 1447.81 0Z" fill="#9CA8C8"></path><path d="M1482.12 77.2143C1481.56 76.7254 1481.12 76.2365 1480.81 75.7477C1480.53 75.2588 1480.39 74.5662 1480.39 73.67C1480.39 72.8552 1480.58 72.0608 1480.97 71.2868C1481.39 70.5535 1481.82 69.6979 1482.28 68.7202C1482.76 67.7425 1483.2 66.5814 1483.58 65.237C1484 63.8926 1484.21 62.2223 1484.21 60.2261C1484.21 57.7003 1483.81 55.5004 1483.01 53.6264C1482.24 51.7932 1481.12 50.2655 1479.66 49.0433C1478.2 47.8211 1476.42 46.9045 1474.33 46.2934C1472.23 45.7231 1469.88 45.4379 1467.27 45.4379C1461.76 45.4379 1457.54 46.7212 1454.61 49.2877C1451.68 51.895 1450.22 55.4393 1450.22 59.9206C1450.22 61.4687 1450.32 62.7927 1450.53 63.8926C1450.77 65.0333 1451.07 66.0111 1451.42 66.8258C1451.77 67.6814 1452.15 68.4147 1452.57 69.0257C1452.99 69.6368 1453.37 70.2072 1453.72 70.7368C1454.07 71.3071 1454.35 71.8571 1454.56 72.3867C1454.8 72.957 1454.92 73.5885 1454.92 74.2811C1454.92 75.5847 1454.5 76.6032 1453.67 77.3365L1448.44 82.164C1446.66 80.3715 1445.18 78.4568 1443.99 76.4199C1442.84 74.3829 1441.92 72.2645 1441.22 70.0646C1440.56 67.9054 1440.11 65.7055 1439.86 63.4649C1439.58 61.2242 1439.44 59.004 1439.44 56.8041C1439.44 52.9339 1440.05 49.2674 1441.27 45.8046C1442.53 42.3417 1444.34 39.3067 1446.71 36.6994C1449.08 34.0921 1451.99 32.0144 1455.45 30.4664C1458.9 28.959 1462.84 28.2053 1467.27 28.2053C1471.21 28.2053 1474.87 28.8775 1478.25 30.2219C1481.63 31.5663 1484.56 33.5421 1487.03 36.1494C1489.51 38.7567 1491.44 41.9751 1492.84 45.8046C1494.27 49.6748 1494.98 54.1357 1494.98 59.1873C1494.98 63.9945 1494.32 68.211 1493 71.8367C1491.67 75.4625 1489.75 78.7216 1487.24 81.6141L1482.12 77.2143Z" fill="#9CA8C8"></path><path d="M1494.98 118.045C1494.98 122.771 1494.34 127.069 1493.05 130.939C1491.76 134.809 1489.91 138.129 1487.51 140.9C1485.13 143.67 1482.24 145.809 1478.82 147.316C1475.41 148.823 1471.55 149.577 1467.27 149.577C1462.98 149.577 1459.11 148.823 1455.66 147.316C1452.24 145.809 1449.33 143.67 1446.92 140.9C1444.52 138.129 1442.67 134.809 1441.38 130.939C1440.09 127.069 1439.44 122.771 1439.44 118.045C1439.44 113.279 1440.09 108.94 1441.38 105.029C1442.67 101.159 1444.52 97.8387 1446.92 95.0684C1449.33 92.2982 1452.24 90.139 1455.66 88.5909C1459.11 87.0836 1462.98 86.3299 1467.27 86.3299C1471.55 86.3299 1475.41 87.0836 1478.82 88.5909C1482.24 90.139 1485.13 92.2982 1487.51 95.0684C1489.91 97.8387 1491.76 101.159 1493.05 105.029C1494.34 108.94 1494.98 113.279 1494.98 118.045ZM1450.27 118.045C1450.27 122.852 1451.68 126.417 1454.5 128.739C1457.36 131.061 1461.6 132.222 1467.21 132.222C1472.79 132.222 1476.99 131.061 1479.82 128.739C1482.68 126.417 1484.11 122.852 1484.11 118.045C1484.11 113.116 1482.68 109.49 1479.82 107.168C1476.99 104.846 1472.79 103.685 1467.21 103.685C1461.6 103.685 1457.36 104.846 1454.5 107.168C1451.68 109.49 1450.27 113.116 1450.27 118.045Z" fill="#9CA8C8"></path><path d="M1440.23 160.167H1494.15V170.555C1494.15 172.674 1493.31 174.079 1491.64 174.772L1488.13 175.75C1489.11 176.85 1490.02 177.97 1490.85 179.111C1491.69 180.292 1492.4 181.555 1493 182.899C1493.62 184.244 1494.11 185.69 1494.46 187.238C1494.81 188.827 1494.98 190.538 1494.98 192.371C1494.98 196.241 1494.09 199.439 1492.32 201.965C1490.57 204.491 1488.24 206.406 1485.31 207.709C1487.02 208.728 1488.48 209.97 1489.7 211.437C1490.96 212.944 1491.97 214.574 1492.73 216.326C1493.5 218.118 1494.06 219.992 1494.41 221.948C1494.79 223.944 1494.98 225.94 1494.98 227.936C1494.98 231.48 1494.53 234.617 1493.62 237.347C1492.72 240.076 1491.38 242.358 1489.6 244.191C1487.85 246.065 1485.71 247.491 1483.16 248.469C1480.62 249.446 1477.73 249.935 1474.48 249.935H1440.23L1440.23 233.069L1474.48 233.069C1480.79 233.069 1483.95 229.912 1483.95 223.598C1483.95 222.172 1483.74 220.848 1483.32 219.625C1482.94 218.444 1482.34 217.385 1481.54 216.448C1480.74 215.552 1479.75 214.839 1478.56 214.309C1477.38 213.82 1476.02 213.576 1474.48 213.576H1440.23L1440.23 196.71L1474.48 196.71C1477.9 196.71 1480.32 195.915 1481.75 194.327C1483.22 192.779 1483.95 190.477 1483.95 187.421C1483.95 185.466 1483.55 183.612 1482.75 181.86C1481.98 180.149 1480.9 178.54 1479.5 177.033H1440.23L1440.23 160.167Z" fill="#9CA8C8"></path><path fill-rule="evenodd" clip-rule="evenodd" d="M333.063 36.4693C333.063 24.8384 325.591 14.4934 314.47 10.7255C303.349 6.95766 291.038 10.6 283.832 19.7896L168.222 167.236C161.788 175.443 160.636 186.559 165.254 195.886C169.872 205.214 179.454 211.127 189.951 211.127H278.06V258.589H333.063V211.127H351.761V156.705H333.063V149.744V36.4693ZM278.06 149.744V156.705H246.094L278.06 115.936V149.744ZM79.5666 9.25811C36.3475 9.25811 1.31154 43.9246 1.31154 86.6878V119.912H56.3141V86.6878C56.3141 73.9812 66.7246 63.6805 79.5666 63.6805C92.4086 63.6805 102.819 73.9812 102.819 86.6878V99.8717C102.819 106.005 100.511 111.919 96.3445 116.46L7.13927 213.691C-0.210608 221.702 -2.06543 233.26 2.41506 243.13C6.89556 253 16.8739 259.305 27.8083 259.19L27.8532 259.19L28.754 259.18C29.3879 259.174 30.3253 259.165 31.535 259.153C33.9545 259.131 37.4627 259.099 41.8093 259.064C50.5042 258.993 62.5469 258.909 75.9386 258.853C102.818 258.74 134.802 258.742 156.118 259.186L157.274 204.775C138.976 204.395 113.455 204.331 89.963 204.384L137.07 153.04C150.424 138.484 157.822 119.53 157.822 99.8717V86.6878C157.822 43.9246 122.786 9.25811 79.5666 9.25811Z" fill="url(#paint0_linear_13_230)"></path><path fill-rule="evenodd" clip-rule="evenodd" d="M836.795 79.2497C836.798 35.4805 872.155 0 915.77 0C959.388 0 994.747 35.4845 994.746 79.2562L994.745 117.874L939.97 117.873L939.971 79.2551C939.971 65.8419 929.136 54.9681 915.77 54.9681C902.405 54.9681 891.57 65.8406 891.569 79.2531L891.567 117.875L836.793 117.872L836.795 79.2497ZM891.573 154.317V189.195C891.573 202.608 902.407 213.481 915.772 213.481C929.138 213.481 939.972 202.608 939.972 189.195V154.317H994.747V189.195C994.747 232.966 959.389 268.449 915.772 268.449C872.156 268.449 836.798 232.966 836.798 189.195V154.317H891.573ZM640.624 110.969V8.30913H695.398V110.969H640.624ZM640.624 178.327V146.411H695.398V178.327C695.398 192.094 706.519 203.254 720.238 203.254H803.036V258.222H720.238C676.268 258.222 640.624 222.452 640.624 178.327ZM1036.15 62.6381H1084.55V121.336H1139.33V62.6381H1187.73V7.66997H1111.94H1036.15V62.6381ZM1084.55 158.01V258.861H1139.33V158.01H1084.55ZM430.443 85.1293C430.443 42.5364 464.83 7.66997 507.483 7.66997H576.933V62.6381H507.483C495.291 62.6381 485.217 72.6834 485.217 85.1293C485.217 97.4133 495.16 107.327 507.191 107.327H508.757C550.279 107.327 583.939 141.106 583.939 182.774C583.939 224.443 550.279 258.222 508.757 258.222H431.08V203.254H508.757C520.028 203.254 529.164 194.085 529.164 182.774C529.164 171.464 520.028 162.295 508.757 162.295H507.191C464.699 162.295 430.443 127.56 430.443 85.1293ZM1307.44 8.9483C1264.79 8.9483 1230.4 43.8147 1230.4 86.4077C1230.4 128.839 1264.66 163.573 1307.15 163.573H1308.72C1319.99 163.573 1329.13 172.742 1329.13 184.053C1329.13 195.363 1319.99 204.533 1308.72 204.533H1231.04V259.501H1308.72C1350.24 259.501 1383.9 225.721 1383.9 184.053C1383.9 142.384 1350.24 108.605 1308.72 108.605H1307.15C1295.12 108.605 1285.18 98.6917 1285.18 86.4077C1285.18 73.9618 1295.25 63.9164 1307.44 63.9164H1376.89V8.9483H1307.44Z" fill="url(#paint1_linear_13_230)"></path><defs><linearGradient id="paint0_linear_13_230" x1="175.88" y1="9.25647" x2="358.397" y2="333.079" gradientUnits="userSpaceOnUse"><stop offset="0.319018" stop-color="#F2C94C"></stop><stop offset="1" stop-color="#F2884C"></stop></linearGradient><linearGradient id="paint1_linear_13_230" x1="947.837" y1="-1.15345" x2="947.837" y2="373.413" gradientUnits="userSpaceOnUse"><stop stop-color="white"></stop><stop offset="0.363545" stop-color="white" stop-opacity="0.794265"></stop><stop offset="0.378531" stop-color="white"></stop><stop offset="1" stop-color="white" stop-opacity="0"></stop></linearGradient></defs></svg> 