<?xml version="1.0" encoding="UTF-8"?> <svg xmlns="http://www.w3.org/2000/svg" width="200" height="100" viewBox="0 0 200 100" fill="none"><g clip-path="url(#clip0)"><rect width="200" height="100" rx="10" fill="#FDB913"></rect><path fill-rule="evenodd" clip-rule="evenodd" d="M142.48 85.12C142.48 89 139.32 92.16 135.44 92.16H64.92C61.04 92.16 57.88 89 57.88 85.12V14.64C57.88 10.76 61.04 7.59998 64.92 7.59998H135.44C139.32 7.59998 142.48 10.76 142.48 14.64V85.12Z" fill="#FDB913"></path><path d="M70.4 55.08C69.2 54.96 68.4 55.36 68.4 55.36V44.44L72.4 43.48V45.2C72.4 45.2 73.48 42.8 76.36 42.12C79.52 41.36 80.52 43.2 80.52 45.84V56.72L76.32 57.72V47.44C76.32 45.84 75.56 45.52 74.68 45.72C73.48 46 72.64 47.32 72.64 49V56.04C72.6 56.12 71.8 55.24 70.4 55.08Z" fill="black"></path><path d="M105.08 50.96V35.8L109.04 34.84V36.84C109.04 36.84 110.08 34.24 112.44 33.64C113.16 33.44 113.52 33.56 113.52 33.56V37.4C113.52 37.4 112.64 37.36 111.44 37.84C110 38.4 109.24 39.68 109.24 41.6V50L105.08 50.96Z" fill="black"></path><path d="M84.28 55.88C84.28 55.88 83.64 54.92 83.64 51.52V43.96L81.6 44.44V41.36L83.64 40.88V37.48L87.84 36.48V39.88L90.8 39.16V42.24L87.84 42.92C87.84 42.92 87.84 49.08 87.84 50.6C87.84 54.12 88.76 54.76 88.76 54.76L84.28 55.88Z" fill="black"></path><path d="M91.24 46.88C91.24 44.2 91.64 42.24 92.44 40.72C93.44 38.92 95.04 37.76 97.36 37.24C101.96 36.2 103.64 38.92 103.56 42.6C103.56 43.92 103.56 44.56 103.56 44.56L95.44 46.48V46.6C95.44 49.16 96 50.36 97.6 50.04C99 49.72 99.4 48.88 99.52 47.76C99.52 47.6 99.56 47.12 99.56 47.12L103.36 46.2C103.36 46.2 103.36 46.52 103.36 46.84C103.32 48.28 102.92 51.88 97.6 53.16C92.56 54.36 91.24 51.28 91.24 46.88ZM97.56 40.04C96.2 40.36 95.48 41.68 95.48 43.88L99.56 42.88C99.56 42.76 99.56 42.56 99.56 42.24C99.56 40.56 99.04 39.68 97.56 40.04Z" fill="black"></path><path d="M127.8 38C127.64 33.4 128.84 29.72 133.96 28.56C137.24 27.8 138.48 28.68 139.12 29.48C139.72 30.24 139.96 31.32 139.96 32.8V33.08L135.92 34.04V33.48C135.92 31.72 135.44 31.04 134.16 31.36C132.64 31.76 132.04 33.2 132.04 36.0799V37.44C132.04 40.36 132.44 41.72 134.2 41.32C135.72 41 135.92 39.6799 135.96 38.4799C135.96 38.28 135.96 37.72 135.96 37.72L140 36.76C140 36.76 140 37.08 140 37.4C140 41.24 137.96 43.64 134.2 44.52C128.96 45.76 127.96 42.72 127.8 38Z" fill="black"></path><path d="M113.88 44.48C113.88 40.96 115.92 39.88 119.04 38.56C121.8 37.4 121.88 36.84 121.88 35.84C121.88 35 121.52 34.28 120.12 34.64C118.84 34.96 118.52 35.88 118.44 36.6C118.4 37 118.44 37.36 118.44 37.36L114.52 38.28C114.52 38.28 114.48 37.08 114.8 35.96C115.44 33.88 117.28 32.44 120.48 31.72C124.64 30.76 126 32.6 126.04 35.4C126.04 35.4 126.04 39.24 126.04 42.12C126.04 45.36 126.64 45.84 126.64 45.84L122.8 46.72C122.8 46.72 122.44 45.96 122.28 45.36C122.28 45.36 121.44 47.48 118.56 48.16C115.48 48.92 113.88 47.04 113.88 44.48ZM121.84 39.68C121.84 39.68 121.04 40.28 119.8 40.88C118.52 41.52 117.96 42.28 117.96 43.44C117.96 44.48 118.6 45.16 119.76 44.88C121 44.56 121.84 43.4 121.84 41.8C121.84 40.88 121.84 39.96 121.84 39.68Z" fill="black"></path><path fill-rule="evenodd" clip-rule="evenodd" d="M73.9601 61.68L80.6801 66.24C81.6001 66.88 82.2001 67.92 82.2001 69.12C82.2001 69.32 82.2001 85.56 82.2001 89.04C80.5601 89.04 76.6401 89.04 74.6001 89.04C70.5601 89.04 67.3201 85.76 67.3201 81.76V59.04C67.3201 57.6 68.3201 56.44 69.9601 56.4C71.4801 56.4 72.5601 57.6 72.5601 59.04C72.5601 60.48 72.5601 72.08 72.5601 72.08C72.5601 72.48 72.8001 72.8 73.2801 72.8C73.7601 72.8 74.0001 72.48 74.0001 72C73.9601 71.52 73.9601 61.68 73.9601 61.68Z" fill="black"></path><path d="M60.36 63.04C60.12 63.4 60 63.84 60 64.28C60 65.56 61.04 66.6 62.32 66.6C62.48 66.6 62.64 66.6 62.8 66.56C63.12 66.52 64.6 66.16 65.96 65.84V61.7599L60.36 63.04Z" fill="black"></path><path d="M60.36 68.64C60.12 69 60 69.44 60 69.92C60 71.2 61.04 72.24 62.32 72.24C62.48 72.24 62.64 72.24 62.8 72.2C63.12 72.12 64.6 71.8 65.96 71.44V67.36L60.36 68.64Z" fill="black"></path><path d="M60.36 74.28C60.12 74.64 60 75.08 60 75.52C60 76.8 61.04 77.84 62.32 77.84C62.48 77.84 62.64 77.84 62.8 77.8C63.12 77.72 64.6 77.4 65.96 77.08V72.96L60.36 74.28Z" fill="black"></path><path d="M61.48 61.24V36.9599L65.92 35.8799V60.1999L61.48 61.24Z" fill="black"></path><path d="M135.56 25.96C133.16 25.96 131.24 24 131.24 21.64C131.24 19.28 133.2 17.32 135.56 17.32C137.92 17.32 139.88 19.28 139.88 21.64C139.88 24 137.96 25.96 135.56 25.96ZM135.56 17.84C133.48 17.84 131.76 19.52 131.76 21.64C131.76 23.72 133.44 25.44 135.56 25.44C137.64 25.44 139.36 23.76 139.36 21.64C139.36 19.52 137.64 17.84 135.56 17.84Z" fill="black"></path><path d="M134 19.04H135.88C136.64 19.04 137.2 19.4 137.2 20.4C137.2 21.08 136.88 21.6 136.32 21.72C136.84 21.76 137.12 22.04 137.16 22.8C137.16 23.12 137.16 23.56 137.2 23.88C137.2 24.12 137.32 24.28 137.44 24.32H136.48C136.4 24.2 136.36 24.08 136.36 23.84C136.32 23.52 136.36 23.24 136.32 22.84C136.32 22.28 136.12 22 135.56 22H134.88V24.32H134V19.04ZM135.52 21.4C136.08 21.4 136.36 21.08 136.36 20.52C136.36 19.96 136.12 19.64 135.56 19.64H134.84V21.36L135.52 21.4Z" fill="black"></path></g><defs><clipPath id="clip0"><rect width="200" height="100" rx="10" fill="white"></rect></clipPath></defs></svg> 