<?xml version="1.0" encoding="UTF-8"?> <svg xmlns="http://www.w3.org/2000/svg" xmlns:xlink="http://www.w3.org/1999/xlink" version="1.1" id="Слой_1" x="0px" y="0px" viewBox="0 0 137 30" style="enable-background:new 0 0 137 30;" xml:space="preserve"> <style type="text/css"> .st0{fill:#E0E0E4;} .st1{fill:url(#SVGID_1_);} .st2{fill:#333333;} .st3{fill:#212121;} .st4{fill:url(#SVGID_2_);} .st5{fill:url(#SVGID_3_);} .st6{fill:url(#SVGID_4_);} .st7{fill:url(#SVGID_5_);} .st8{fill:url(#SVGID_6_);} .st9{fill:url(#SVGID_7_);} .st10{fill:url(#SVGID_8_);} .st11{fill:url(#SVGID_9_);} .st12{fill:url(#SVGID_10_);} .st13{fill:url(#SVGID_11_);} .st14{fill:url(#SVGID_12_);} .st15{fill:url(#SVGID_13_);} .st16{fill:url(#SVGID_14_);} .st17{fill:url(#SVGID_15_);} .st18{opacity:0.5;fill:#FFFFFF;enable-background:new ;} .st19{opacity:0.2;enable-background:new ;} .st20{fill:url(#SVGID_16_);} .st21{fill:url(#SVGID_17_);} .st22{fill:url(#SVGID_18_);} .st23{fill:url(#SVGID_19_);} .st24{fill:url(#SVGID_20_);} .st25{fill:url(#SVGID_21_);} .st26{fill:url(#SVGID_22_);} .st27{fill:url(#SVGID_23_);} .st28{fill:url(#SVGID_24_);} .st29{fill:url(#SVGID_25_);} </style> <path class="st0" d="M40.4,6.3c1.7-0.1,3.4,0.4,4.7,1.3c0.6,0.4,1,1,1.3,1.6c0.3,0.6,0.4,1.3,0.4,2c0,0.7-0.1,1.4-0.4,2.1 c-0.3,0.7-0.7,1.2-1.3,1.7c-1.4,1-3,1.4-4.7,1.3h-1.9v5.8H35V6.5C36.7,6.4,38.5,6.3,40.4,6.3z M40.4,13.7c0.7,0,1.5-0.2,2.1-0.6 c0.2-0.2,0.4-0.5,0.6-0.8c0.1-0.3,0.2-0.6,0.2-1c0-0.3,0-0.6-0.2-0.9c-0.1-0.3-0.3-0.6-0.6-0.8c-0.6-0.4-1.3-0.7-2-0.6h-1.9v4.6 L40.4,13.7L40.4,13.7z"></path> <path class="st0" d="M52.4,19.3h6.1v2.8h-9.6V6.7c0.5-0.3,1.1-0.4,1.6-0.5c0.2,0,0.5,0,0.7,0.1s0.4,0.2,0.6,0.4 c0.2,0.2,0.3,0.4,0.4,0.6c0.1,0.2,0.1,0.5,0.1,0.7L52.4,19.3z"></path> <path class="st0" d="M70.2,22.1l-1.1-3.3h-5.7l-1.1,3.3h-3.4l5.6-15.4c0.6-0.3,1.2-0.5,1.9-0.5c0.6,0,1.1,0.2,1.6,0.5 c0.4,0.3,0.8,0.8,0.9,1.4l5.1,13.9L70.2,22.1z M64.3,16.1h3.9l-2-6.3L64.3,16.1z"></path> <path class="st0" d="M86.1,6.8l-5,9.2v6.1h-3.5v-6.1l-5-9.2c0.5-0.4,1.2-0.6,1.9-0.6c0.5,0,1,0.1,1.5,0.3c0.4,0.2,0.7,0.5,0.9,1 l1.9,3.8l0.8,2l0.8-2l2.4-5L86.1,6.8z"></path> <path class="st0" d="M97.5,9.2h-6v4.3h4.9v2.7h-4.9v5.9h-3.5V6.5h9.5V9.2z"></path> <path class="st0" d="M103.2,22.1h-3.5V6.7c0.5-0.3,1.1-0.4,1.6-0.5c0.2,0,0.5,0,0.7,0.1c0.2,0.1,0.4,0.2,0.6,0.4 c0.2,0.2,0.3,0.4,0.4,0.6c0.1,0.2,0.1,0.5,0.1,0.7V22.1z"></path> <path class="st0" d="M116.4,6.5h3.3v15.6H117l-7.4-9.8l0.1,9.7h-3.3V6.7c0.4-0.3,0.9-0.5,1.4-0.5c0.4,0,0.8,0.2,1.2,0.4 c0.4,0.2,0.7,0.5,0.9,0.9l6.6,8.7L116.4,6.5z"></path> <path class="st0" d="M132.6,22.1l-1.1-3.3h-5.7l-1.1,3.3h-3.4L127,6.7c0.6-0.3,1.2-0.5,1.8-0.5c0.6,0,1.1,0.2,1.6,0.5 c0.4,0.3,0.8,0.8,0.9,1.4l5.1,13.9L132.6,22.1z M126.7,16.1h3.9l-2-6.3L126.7,16.1z"></path> <path class="st0" d="M40.4,6.3c1.7-0.1,3.4,0.4,4.7,1.3c0.6,0.4,1,1,1.3,1.6c0.3,0.6,0.4,1.3,0.4,2c0,0.7-0.1,1.4-0.4,2.1 c-0.3,0.7-0.7,1.2-1.3,1.7c-1.4,1-3,1.4-4.7,1.3h-1.9v5.8H35V6.5C36.7,6.4,38.5,6.3,40.4,6.3z M40.4,13.7c0.7,0,1.5-0.2,2.1-0.6 c0.2-0.2,0.4-0.5,0.6-0.8c0.1-0.3,0.2-0.6,0.2-1c0-0.3,0-0.6-0.2-0.9c-0.1-0.3-0.3-0.6-0.6-0.8c-0.6-0.4-1.3-0.7-2-0.6h-1.9v4.6 L40.4,13.7L40.4,13.7z"></path> <path class="st0" d="M52.4,19.3h6.1v2.8h-9.6V6.7c0.5-0.3,1.1-0.4,1.6-0.5c0.2,0,0.5,0,0.7,0.1s0.4,0.2,0.6,0.4 c0.2,0.2,0.3,0.4,0.4,0.6c0.1,0.2,0.1,0.5,0.1,0.7L52.4,19.3z"></path> <path class="st0" d="M70.2,22.1l-1.1-3.3h-5.7l-1.1,3.3h-3.4l5.6-15.4c0.6-0.3,1.2-0.5,1.9-0.5c0.6,0,1.1,0.2,1.6,0.5 c0.4,0.3,0.8,0.8,0.9,1.4l5.1,13.9L70.2,22.1z M64.3,16.1h3.9l-2-6.3L64.3,16.1z"></path> <path class="st0" d="M86.1,6.8l-5,9.2v6.1h-3.5v-6.1l-5-9.2c0.5-0.4,1.2-0.6,1.9-0.6c0.5,0,1,0.1,1.5,0.3c0.4,0.2,0.7,0.5,0.9,1 l1.9,3.8l0.8,2l0.8-2l2.4-5L86.1,6.8z"></path> <path class="st0" d="M97.5,9.2h-6v4.3h4.9v2.7h-4.9v5.9h-3.5V6.5h9.5V9.2z"></path> <path class="st0" d="M103.2,22.1h-3.5V6.7c0.5-0.3,1.1-0.4,1.6-0.5c0.2,0,0.5,0,0.7,0.1c0.2,0.1,0.4,0.2,0.6,0.4 c0.2,0.2,0.3,0.4,0.4,0.6c0.1,0.2,0.1,0.5,0.1,0.7V22.1z"></path> <path class="st0" d="M116.4,6.5h3.3v15.6H117l-7.4-9.8l0.1,9.7h-3.3V6.7c0.4-0.3,0.9-0.5,1.4-0.5c0.4,0,0.8,0.2,1.2,0.4 c0.4,0.2,0.7,0.5,0.9,0.9l6.6,8.7L116.4,6.5z"></path> <path class="st0" d="M132.6,22.1l-1.1-3.3h-5.7l-1.1,3.3h-3.4L127,6.7c0.6-0.3,1.2-0.5,1.8-0.5c0.6,0,1.1,0.2,1.6,0.5 c0.4,0.3,0.8,0.8,0.9,1.4l5.1,13.9L132.6,22.1z M126.7,16.1h3.9l-2-6.3L126.7,16.1z"></path> <g> <linearGradient id="SVGID_1_" gradientUnits="userSpaceOnUse" x1="29.9991" y1="917.25" x2="0" y2="917.25" gradientTransform="matrix(1 0 0 1 0 -902.25)"> <stop offset="0" style="stop-color:#BE6D00"></stop> <stop offset="0.19" style="stop-color:#D09222"></stop> <stop offset="0.44" style="stop-color:#E4BD4A"></stop> <stop offset="0.67" style="stop-color:#F3DB67"></stop> <stop offset="0.86" style="stop-color:#FCEE79"></stop> <stop offset="1" style="stop-color:#FFF57F"></stop> </linearGradient> <path class="st1" d="M15,30c8.3,0,15-6.7,15-15c0-8.3-6.7-15-15-15C6.7,0,0,6.7,0,15C0,23.3,6.7,30,15,30z"></path> <path class="st2" d="M15,28c7.2,0,13-5.8,13-13S22.2,2,15,2S2,7.8,2,15S7.8,28,15,28z"></path> <path class="st3" d="M15,2c2.6,0,5.1,0.8,7.2,2.2C24.3,5.6,26,7.7,27,10c1,2.4,1.2,5,0.7,7.5c-0.5,2.5-1.7,4.8-3.6,6.6 c-1.8,1.8-4.1,3.1-6.6,3.6C15,28.2,12.4,28,10,27c-2.4-1-4.4-2.6-5.8-4.8S2,17.6,2,15c0-1.7,0.3-3.4,1-5s1.6-3,2.8-4.2 C7,4.6,8.4,3.6,10,3C11.6,2.3,13.3,2,15,2L15,2z M15,1.4c-3.4,0-6.6,1.3-9.1,3.5c-2.5,2.3-4,5.4-4.3,8.7s0.6,6.7,2.6,9.4 c2,2.7,4.9,4.5,8.2,5.2s6.7,0.1,9.6-1.7c2.9-1.7,5-4.5,6-7.7s0.7-6.7-0.7-9.7c-1.4-3-3.9-5.4-7-6.7l0,0C18.6,1.8,16.8,1.4,15,1.4 L15,1.4L15,1.4z"></path> <linearGradient id="SVGID_2_" gradientUnits="userSpaceOnUse" x1="14.9923" y1="931.0565" x2="14.9923" y2="903.4311" gradientTransform="matrix(1 0 0 1 0 -902.25)"> <stop offset="0.15" style="stop-color:#5C19B1"></stop> <stop offset="1" style="stop-color:#731EDF"></stop> </linearGradient> <path class="st4" d="M27.4,11.1c-0.6-1.8-1.5-3.5-2.8-4.9l-7.6,5.5l0.9-9.3c-1.9-0.4-3.8-0.4-5.6,0l0.9,9.3L5.4,6.2 c-1.3,1.4-2.3,3.1-2.8,4.9l8.6,3.9l-8.6,3.9c0.6,1.8,1.5,3.5,2.8,4.9l7.6-5.4l-0.9,9.3c1.9,0.4,3.8,0.4,5.6,0l-0.9-9.3l7.6,5.5 c1.3-1.4,2.3-3.1,2.8-4.9L18.8,15L27.4,11.1z"></path> <linearGradient id="SVGID_3_" gradientUnits="userSpaceOnUse" x1="23.1499" y1="931.0566" x2="23.1499" y2="903.4312" gradientTransform="matrix(1 0 0 1 0 -902.25)"> <stop offset="0.15" style="stop-color:#5C19B1"></stop> <stop offset="1" style="stop-color:#731EDF"></stop> </linearGradient> <path class="st5" d="M27.4,11.3v-0.2L18.9,15l8.6,3.9v-0.2L19.2,15L27.4,11.3z"></path> <linearGradient id="SVGID_4_" gradientUnits="userSpaceOnUse" x1="23.1982" y1="903.2823" x2="23.1982" y2="931.2178" gradientTransform="matrix(1 0 0 1 0 -902.25)"> <stop offset="0" style="stop-color:#BE6D00"></stop> <stop offset="0.19" style="stop-color:#D09222"></stop> <stop offset="0.44" style="stop-color:#E4BD4A"></stop> <stop offset="0.67" style="stop-color:#F3DB67"></stop> <stop offset="0.86" style="stop-color:#FCEE79"></stop> <stop offset="1" style="stop-color:#FFF57F"></stop> </linearGradient> <path class="st6" d="M27.5,11.4v-0.1v-0.2L18.9,15l8.6,3.9v-0.2v-0.1L19.6,15L27.5,11.4z"></path> <linearGradient id="SVGID_5_" gradientUnits="userSpaceOnUse" x1="20.7362" y1="931.0566" x2="20.7362" y2="903.4313" gradientTransform="matrix(1 0 0 1 0 -902.25)"> <stop offset="0.15" style="stop-color:#5C19B1"></stop> <stop offset="1" style="stop-color:#731EDF"></stop> </linearGradient> <path class="st7" d="M24.6,6.2l-0.1-0.1l-7.3,5.2l0.9-9h-0.1l-0.9,9.3L24.6,6.2z"></path> <linearGradient id="SVGID_6_" gradientUnits="userSpaceOnUse" x1="20.7386" y1="887.2678" x2="20.7386" y2="915.2033" gradientTransform="matrix(1 0 0 1 0 -902.25)"> <stop offset="0" style="stop-color:#BE6D00"></stop> <stop offset="0.19" style="stop-color:#D09222"></stop> <stop offset="0.44" style="stop-color:#E4BD4A"></stop> <stop offset="0.67" style="stop-color:#F3DB67"></stop> <stop offset="0.86" style="stop-color:#FCEE79"></stop> <stop offset="1" style="stop-color:#FFF57F"></stop> </linearGradient> <path class="st8" d="M24.5,6.1L24.3,6l-7,5l0.8-8.6H18h-0.1l-0.9,9.3l7.6-5.5L24.5,6.1z"></path> <linearGradient id="SVGID_7_" gradientUnits="userSpaceOnUse" x1="9.2556" y1="931.0565" x2="9.2556" y2="903.4311" gradientTransform="matrix(1 0 0 1 0 -902.25)"> <stop offset="0.15" style="stop-color:#5C19B1"></stop> <stop offset="1" style="stop-color:#731EDF"></stop> </linearGradient> <path class="st9" d="M12.2,2.3H12l0.9,9L5.5,6.1L5.4,6.2l7.6,5.5L12.2,2.3z"></path> <linearGradient id="SVGID_8_" gradientUnits="userSpaceOnUse" x1="9.2556" y1="887.2801" x2="9.2556" y2="915.2156" gradientTransform="matrix(1 0 0 1 0 -902.25)"> <stop offset="0" style="stop-color:#BE6D00"></stop> <stop offset="0.19" style="stop-color:#D09222"></stop> <stop offset="0.44" style="stop-color:#E4BD4A"></stop> <stop offset="0.67" style="stop-color:#F3DB67"></stop> <stop offset="0.86" style="stop-color:#FCEE79"></stop> <stop offset="1" style="stop-color:#FFF57F"></stop> </linearGradient> <path class="st10" d="M12.2,2.3H12h-0.2l0.8,8.6l-7-5L5.5,6.1L5.4,6.2l7.6,5.5L12.2,2.3z"></path> <linearGradient id="SVGID_9_" gradientUnits="userSpaceOnUse" x1="6.8879" y1="931.0565" x2="6.8879" y2="903.4312" gradientTransform="matrix(1 0 0 1 0 -902.25)"> <stop offset="0.15" style="stop-color:#5C19B1"></stop> <stop offset="1" style="stop-color:#731EDF"></stop> </linearGradient> <path class="st11" d="M2.6,11.1v0.2l8.2,3.7l-8.2,3.7v0.2l8.6-3.9L2.6,11.1z"></path> <linearGradient id="SVGID_10_" gradientUnits="userSpaceOnUse" x1="6.8226" y1="903.2947" x2="6.8226" y2="931.2302" gradientTransform="matrix(1 0 0 1 0 -902.25)"> <stop offset="0" style="stop-color:#BE6D00"></stop> <stop offset="0.19" style="stop-color:#D09222"></stop> <stop offset="0.44" style="stop-color:#E4BD4A"></stop> <stop offset="0.67" style="stop-color:#F3DB67"></stop> <stop offset="0.86" style="stop-color:#FCEE79"></stop> <stop offset="1" style="stop-color:#FFF57F"></stop> </linearGradient> <path class="st12" d="M2.6,11.1v0.2l-0.1,0.1l7.8,3.6l-7.8,3.6v0.2v0.2l8.7-3.9L2.6,11.1z"></path> <linearGradient id="SVGID_11_" gradientUnits="userSpaceOnUse" x1="9.2677" y1="931.0565" x2="9.2677" y2="903.4312" gradientTransform="matrix(1 0 0 1 0 -902.25)"> <stop offset="0.15" style="stop-color:#5C19B1"></stop> <stop offset="1" style="stop-color:#731EDF"></stop> </linearGradient> <path class="st13" d="M5.4,23.8l0.1,0.1l7.3-5.3l-0.9,9h0.1l0.9-9.3L5.4,23.8z"></path> <linearGradient id="SVGID_12_" gradientUnits="userSpaceOnUse" x1="9.2677" y1="919.2844" x2="9.2677" y2="947.2198" gradientTransform="matrix(1 0 0 1 0 -902.25)"> <stop offset="0" style="stop-color:#BE6D00"></stop> <stop offset="0.19" style="stop-color:#D09222"></stop> <stop offset="0.44" style="stop-color:#E4BD4A"></stop> <stop offset="0.67" style="stop-color:#F3DB67"></stop> <stop offset="0.86" style="stop-color:#FCEE79"></stop> <stop offset="1" style="stop-color:#FFF57F"></stop> </linearGradient> <path class="st14" d="M5.4,23.8l0.1,0.1L5.7,24l7-5l-0.8,8.5H12h0.1l0.9-9.3L5.4,23.8z"></path> <linearGradient id="SVGID_13_" gradientUnits="userSpaceOnUse" x1="20.7314" y1="931.0566" x2="20.7314" y2="903.4312" gradientTransform="matrix(1 0 0 1 0 -902.25)"> <stop offset="0.15" style="stop-color:#5C19B1"></stop> <stop offset="1" style="stop-color:#731EDF"></stop> </linearGradient> <path class="st15" d="M17.8,27.7H18l-0.9-9.1l7.3,5.2l0.1-0.1l-7.6-5.5L17.8,27.7z"></path> <linearGradient id="SVGID_14_" gradientUnits="userSpaceOnUse" x1="20.7556" y1="919.2969" x2="20.7556" y2="947.2324" gradientTransform="matrix(1 0 0 1 0 -902.25)"> <stop offset="0" style="stop-color:#BE6D00"></stop> <stop offset="0.19" style="stop-color:#D09222"></stop> <stop offset="0.44" style="stop-color:#E4BD4A"></stop> <stop offset="0.67" style="stop-color:#F3DB67"></stop> <stop offset="0.86" style="stop-color:#FCEE79"></stop> <stop offset="1" style="stop-color:#FFF57F"></stop> </linearGradient> <path class="st16" d="M16.9,18.3l0.9,9.3H18h0.2L17.4,19l7,5l0.1-0.1l0.1-0.1L16.9,18.3z"></path> <path class="st2" d="M15,24.3c5.1,0,9.3-4.2,9.3-9.3S20.1,5.7,15,5.7S5.7,9.9,5.7,15S9.9,24.3,15,24.3z"></path> <linearGradient id="SVGID_15_" gradientUnits="userSpaceOnUse" x1="14.9975" y1="926.7644" x2="14.9975" y2="907.7363" gradientTransform="matrix(1 0 0 1 0 -902.25)"> <stop offset="0" style="stop-color:#BE6D00"></stop> <stop offset="0.19" style="stop-color:#D09222"></stop> <stop offset="0.44" style="stop-color:#E4BD4A"></stop> <stop offset="0.67" style="stop-color:#F3DB67"></stop> <stop offset="0.86" style="stop-color:#FCEE79"></stop> <stop offset="1" style="stop-color:#FFF57F"></stop> </linearGradient> <path class="st17" d="M15,24.5c-1.9,0-3.7-0.6-5.3-1.6c-1.6-1-2.8-2.5-3.5-4.3c-0.7-1.7-0.9-3.7-0.5-5.5C6,11.3,6.9,9.6,8.3,8.3 s3-2.2,4.9-2.6c1.8-0.4,3.8-0.2,5.5,0.5c1.7,0.7,3.2,1.9,4.3,3.5c1,1.6,1.6,3.4,1.6,5.3c0,2.5-1,4.9-2.8,6.7 C19.9,23.5,17.5,24.5,15,24.5z M15,5.9c-1.8,0-3.5,0.5-5,1.5c-1.5,1-2.6,2.4-3.3,4.1S5.8,15,6.1,16.7c0.3,1.8,1.2,3.4,2.5,4.6 c1.3,1.3,2.9,2.1,4.6,2.5c1.8,0.3,3.6,0.2,5.2-0.5c1.7-0.7,3.1-1.8,4.1-3.3c1-1.5,1.5-3.2,1.5-5c0-2.4-1-4.7-2.7-6.4 C19.7,6.9,17.4,5.9,15,5.9L15,5.9z"></path> <path class="st18" d="M15,2.7c3.4,0,6.6,1.3,9.1,3.7c2.4,2.4,3.8,5.6,3.9,9V15c0-3.5-1.4-6.8-3.8-9.2S18.4,2,15,2S8.2,3.3,5.7,5.8 S1.9,11.5,1.9,15v0.3c0.1-3.4,1.5-6.6,3.9-9C8.3,3.9,11.6,2.6,15,2.7L15,2.7z"></path> <path class="st19" d="M15,27.2c-3.4,0-6.6-1.3-9-3.7C3.5,21.2,2.1,18,2,14.6V15c0,3.5,1.4,6.8,3.8,9.2S11.6,28,15,28 s6.8-1.4,9.2-3.8s3.8-5.8,3.8-9.2v-0.4c-0.1,3.4-1.5,6.6-4,9C21.7,25.9,18.4,27.2,15,27.2L15,27.2z"></path> <radialGradient id="SVGID_16_" cx="-896.3139" cy="598.6516" r="0.6817" gradientTransform="matrix(1.1828 0 0 1.1828 1076.1147 -696.5585)" gradientUnits="userSpaceOnUse"> <stop offset="0" style="stop-color:#BE6D00"></stop> <stop offset="0.19" style="stop-color:#D09222"></stop> <stop offset="0.44" style="stop-color:#E4BD4A"></stop> <stop offset="0.67" style="stop-color:#F3DB67"></stop> <stop offset="0.86" style="stop-color:#FCEE79"></stop> <stop offset="1" style="stop-color:#FFF57F"></stop> </radialGradient> <path class="st20" d="M16.5,11.7c0.5-0.2,0.6-0.5,0.2-0.6c-0.4-0.1-0.8,0-1.2,0.1l-0.7,0.3l1.1,0.5L16.5,11.7L16.5,11.7z"></path> <radialGradient id="SVGID_17_" cx="-114.0274" cy="861.1258" r="0.6816" gradientTransform="matrix(1.019 0 0 1.019 130.5353 -866.5556)" gradientUnits="userSpaceOnUse"> <stop offset="0" style="stop-color:#BE6D00"></stop> <stop offset="0.19" style="stop-color:#D09222"></stop> <stop offset="0.44" style="stop-color:#E4BD4A"></stop> <stop offset="0.67" style="stop-color:#F3DB67"></stop> <stop offset="0.86" style="stop-color:#FCEE79"></stop> <stop offset="1" style="stop-color:#FFF57F"></stop> </radialGradient> <path class="st21" d="M15,10.6c-0.2-0.1-0.4-0.1-0.6-0.1c-0.2,0-0.4,0.1-0.6,0.2l-0.4,0.2l1,0.4L15,11C15.3,10.9,15.3,10.7,15,10.6 z"></path> <radialGradient id="SVGID_18_" cx="-4749.2241" cy="-694.4005" r="0.682" gradientTransform="matrix(5.6956 0 0 5.6956 27067.8105 3971.8655)" gradientUnits="userSpaceOnUse"> <stop offset="0" style="stop-color:#BE6D00"></stop> <stop offset="0.19" style="stop-color:#D09222"></stop> <stop offset="0.44" style="stop-color:#E4BD4A"></stop> <stop offset="0.67" style="stop-color:#F3DB67"></stop> <stop offset="0.86" style="stop-color:#FCEE79"></stop> <stop offset="1" style="stop-color:#FFF57F"></stop> </radialGradient> <path class="st22" d="M20.2,12.4c-0.5,0.3-3.4,1.5-4.4,1.9c-0.2,0.1-0.3,0.2-0.4,0.3c-0.1,0.1-0.2,0.3-0.2,0.5c0,0,0,0,0,0.1 c0,2.4,0,4.7-0.1,5.7c0,0.1,0,0.2,0.1,0.3c0,0.1,0.1,0.1,0.2,0.2c0.1,0,0.2,0.1,0.3,0c0.1,0,0.2,0,0.2-0.1l0.1-0.1 c0.5-0.5,4-2.8,4-2.8s0.4-0.1,0.5-0.9l0.6-5.2C21.1,12.4,20.9,12.1,20.2,12.4z M19.4,17.5c-0.2,0.3-0.4,0.6-0.7,0.8v0.6l-0.8,0.4 v-0.5c-0.3,0.2-0.7,0.2-1,0.2v-1c0.2,0.1,0.4,0.1,0.6,0c0.2,0,0.5-0.1,0.7-0.2c0.3-0.2,0.5-0.4,0.5-0.6c0,0,0-0.1,0-0.1 s-0.1,0-0.1,0h-0.2L18,16.9h-0.7c-0.1,0-0.2-0.1-0.3-0.2c-0.1-0.1-0.1-0.3-0.1-0.5c0-0.3,0.1-0.6,0.3-0.9c0.2-0.3,0.4-0.6,0.7-0.8 v-0.5l0.7-0.4v0.5c0.2-0.1,0.5-0.1,0.8-0.1V15c-0.2,0-0.4,0-0.5,0c-0.2,0-0.4,0.1-0.6,0.2c-0.3,0.2-0.4,0.3-0.4,0.5 c0,0.2,0,0.2,0.1,0.1h0.7c0.3-0.1,0.5-0.1,0.8,0c0.2,0.1,0.3,0.3,0.3,0.6C19.7,16.8,19.6,17.1,19.4,17.5L19.4,17.5z"></path> <radialGradient id="SVGID_19_" cx="-4751.9351" cy="-695.4626" r="0.6817" gradientTransform="matrix(5.7138 0 0 5.7138 27163.6426 3990.4226)" gradientUnits="userSpaceOnUse"> <stop offset="0" style="stop-color:#BE6D00"></stop> <stop offset="0.19" style="stop-color:#D09222"></stop> <stop offset="0.44" style="stop-color:#E4BD4A"></stop> <stop offset="0.67" style="stop-color:#F3DB67"></stop> <stop offset="0.86" style="stop-color:#FCEE79"></stop> <stop offset="1" style="stop-color:#FFF57F"></stop> </radialGradient> <path class="st23" d="M14.4,14.3l-4.3-2.2C9.9,12,9.8,12,9.6,12c-0.2,0-0.3,0-0.5,0.1l0.4,5.2c0,0.8,0.4,0.9,0.4,0.9s3.1,2.2,3.9,3 l0.2,0.1c0.1,0,0.1,0.1,0.2,0.1c0.1,0,0.1,0,0.2,0c0.1,0,0.1-0.1,0.2-0.1c0-0.1,0.1-0.1,0.1-0.2l0.2-5.9c0,0,0,0,0-0.1 c0-0.2-0.1-0.3-0.2-0.5C14.6,14.5,14.5,14.4,14.4,14.3L14.4,14.3z M13.3,19.3c-0.3,0-0.6-0.1-0.8-0.3c-0.4-0.3-0.8-0.6-1.1-1 c-0.3-0.4-0.5-0.9-0.6-1.5l-0.4-0.2v-0.6l0.3,0.2v-0.3l-0.3-0.2v-0.6l0.4,0.2c0-0.2,0.1-0.3,0.2-0.4c0.1-0.1,0.2-0.2,0.4-0.3 c0.2,0,0.4-0.1,0.5,0c0.2,0,0.3,0.1,0.5,0.2c0.3,0.2,0.5,0.4,0.8,0.6v1c-0.2-0.2-0.4-0.4-0.6-0.6c-0.3-0.2-0.6-0.2-0.8,0l0.8,0.4 v0.6l-0.9-0.6c0,0,0,0.1,0,0.1c0,0,0,0.1,0,0.1l0.9,0.5v0.6l-0.8-0.5c0.1,0.4,0.4,0.8,0.8,1c0.1,0.1,0.2,0.1,0.3,0.1 c0.1,0,0.3,0,0.4,0L13.3,19.3z"></path> <radialGradient id="SVGID_20_" cx="-4826.4346" cy="-719.9515" r="0.6823" gradientTransform="matrix(6.1687 0 0 6.1687 29787.9648 4452.6904)" gradientUnits="userSpaceOnUse"> <stop offset="0" style="stop-color:#BE6D00"></stop> <stop offset="0.19" style="stop-color:#D09222"></stop> <stop offset="0.44" style="stop-color:#E4BD4A"></stop> <stop offset="0.67" style="stop-color:#F3DB67"></stop> <stop offset="0.86" style="stop-color:#FCEE79"></stop> <stop offset="1" style="stop-color:#FFF57F"></stop> </radialGradient> <path class="st24" d="M20.3,11.7c0.1-0.1,0.2-0.2,0.2-0.3s0-0.2-0.1-0.3L20.3,11l-4.3-1.9c-0.3-0.1-0.6-0.1-1-0.1 c-0.3,0-0.6,0.1-0.9,0.2l-4.3,1.7c0,0-0.5,0.3,0.3,0.9l4.5,2.2c0.2,0.1,0.4,0.1,0.6,0.1c0.2,0,0.4-0.1,0.6-0.2 C16.4,13.4,20.3,11.7,20.3,11.7z M15.1,13l-0.5-0.2l0.4-0.2c0.1,0,0.1-0.1,0-0.2l-2.2-0.9c-0.1,0-0.1,0-0.2,0c-0.1,0-0.1,0-0.2,0 L12,11.6l-0.5-0.2l1-0.5l-0.5-0.2l0.5-0.2l0.5,0.2l0.3-0.2l-0.5-0.2l0.5-0.2l0.5,0.2c0.6-0.3,1.3-0.4,2-0.2 c0.4,0.1,0.6,0.3,0.4,0.6c0.5-0.2,1-0.2,1.5,0c0.7,0.3,0.8,0.7-0.2,1.1h-0.1l0.5,0.2l-0.5,0.3l-0.5-0.2l-0.3,0.2l0.5,0.2l-0.5,0.2 L16,12.5L15.1,13z"></path> <linearGradient id="SVGID_21_" gradientUnits="userSpaceOnUse" x1="15.9271" y1="923.6756" x2="15.9271" y2="911.246" gradientTransform="matrix(1 0 0 1 0 -902.25)"> <stop offset="0" style="stop-color:#BE6D00"></stop> <stop offset="0.19" style="stop-color:#D09222"></stop> <stop offset="0.44" style="stop-color:#E4BD4A"></stop> <stop offset="0.67" style="stop-color:#F3DB67"></stop> <stop offset="0.86" style="stop-color:#FCEE79"></stop> <stop offset="1" style="stop-color:#FFF57F"></stop> </linearGradient> <path class="st25" d="M16.5,11.7c0.5-0.2,0.6-0.5,0.2-0.6c-0.4-0.1-0.8,0-1.2,0.1l-0.7,0.3l1.1,0.5L16.5,11.7L16.5,11.7z"></path> <linearGradient id="SVGID_22_" gradientUnits="userSpaceOnUse" x1="14.3034" y1="923.6758" x2="14.3034" y2="911.2462" gradientTransform="matrix(1 0 0 1 0 -902.25)"> <stop offset="0" style="stop-color:#BE6D00"></stop> <stop offset="0.19" style="stop-color:#D09222"></stop> <stop offset="0.44" style="stop-color:#E4BD4A"></stop> <stop offset="0.67" style="stop-color:#F3DB67"></stop> <stop offset="0.86" style="stop-color:#FCEE79"></stop> <stop offset="1" style="stop-color:#FFF57F"></stop> </linearGradient> <path class="st26" d="M15,10.6c-0.2-0.1-0.4-0.1-0.6-0.1c-0.2,0-0.4,0.1-0.6,0.2l-0.4,0.2l1,0.4L15,11C15.3,10.9,15.3,10.7,15,10.6 z"></path> <linearGradient id="SVGID_23_" gradientUnits="userSpaceOnUse" x1="18.1118" y1="923.6757" x2="18.1118" y2="911.2462" gradientTransform="matrix(1 0 0 1 0 -902.25)"> <stop offset="0" style="stop-color:#BE6D00"></stop> <stop offset="0.19" style="stop-color:#D09222"></stop> <stop offset="0.44" style="stop-color:#E4BD4A"></stop> <stop offset="0.67" style="stop-color:#F3DB67"></stop> <stop offset="0.86" style="stop-color:#FCEE79"></stop> <stop offset="1" style="stop-color:#FFF57F"></stop> </linearGradient> <path class="st27" d="M20.2,12.4c-0.5,0.3-3.4,1.5-4.4,1.9c-0.2,0.1-0.3,0.2-0.4,0.3c-0.1,0.1-0.2,0.3-0.2,0.5c0,0,0,0,0,0.1 c0,2.4,0,4.7-0.1,5.7c0,0.1,0,0.2,0.1,0.3c0,0.1,0.1,0.1,0.2,0.2c0.1,0,0.2,0.1,0.3,0c0.1,0,0.2,0,0.2-0.1l0.1-0.1 c0.5-0.5,4-2.8,4-2.8s0.4-0.1,0.5-0.9l0.6-5.2C21.1,12.4,20.9,12.1,20.2,12.4z M19.4,17.5c-0.2,0.3-0.4,0.6-0.7,0.8v0.6l-0.8,0.4 v-0.5c-0.3,0.2-0.7,0.2-1,0.2v-1c0.2,0.1,0.4,0.1,0.6,0c0.2,0,0.5-0.1,0.7-0.2c0.3-0.2,0.5-0.4,0.5-0.6c0,0,0-0.1,0-0.1 s-0.1,0-0.1,0h-0.2L18,16.9h-0.7c-0.1,0-0.2-0.1-0.3-0.2c-0.1-0.1-0.1-0.3-0.1-0.5c0-0.3,0.1-0.6,0.3-0.9c0.2-0.3,0.4-0.6,0.7-0.8 v-0.5l0.7-0.4v0.5c0.2-0.1,0.5-0.1,0.8-0.1V15c-0.2,0-0.4,0-0.5,0c-0.2,0-0.4,0.1-0.6,0.2c-0.3,0.2-0.4,0.3-0.4,0.5 c0,0.2,0,0.2,0.1,0.1h0.7c0.3-0.1,0.5-0.1,0.8,0c0.2,0.1,0.3,0.3,0.3,0.6C19.7,16.8,19.6,17.1,19.4,17.5L19.4,17.5z"></path> <linearGradient id="SVGID_24_" gradientUnits="userSpaceOnUse" x1="12.0248" y1="923.6633" x2="12.0248" y2="911.2336" gradientTransform="matrix(1 0 0 1 0 -902.25)"> <stop offset="0" style="stop-color:#BE6D00"></stop> <stop offset="0.19" style="stop-color:#D09222"></stop> <stop offset="0.44" style="stop-color:#E4BD4A"></stop> <stop offset="0.67" style="stop-color:#F3DB67"></stop> <stop offset="0.86" style="stop-color:#FCEE79"></stop> <stop offset="1" style="stop-color:#FFF57F"></stop> </linearGradient> <path class="st28" d="M14.4,14.3l-4.3-2.2C9.9,12,9.8,12,9.6,12c-0.2,0-0.3,0-0.5,0.1l0.4,5.2c0,0.8,0.4,0.9,0.4,0.9s3.1,2.2,3.9,3 l0.2,0.1c0.1,0,0.1,0.1,0.2,0.1c0.1,0,0.1,0,0.2,0c0.1,0,0.1-0.1,0.2-0.1c0-0.1,0.1-0.1,0.1-0.2l0.2-5.9c0,0,0,0,0-0.1 c0-0.2-0.1-0.3-0.2-0.5C14.6,14.5,14.5,14.4,14.4,14.3L14.4,14.3z M13.3,19.3c-0.3,0-0.6-0.1-0.8-0.3c-0.4-0.3-0.8-0.6-1.1-1 c-0.3-0.4-0.5-0.9-0.6-1.5l-0.4-0.2v-0.6l0.3,0.2v-0.3l-0.3-0.2v-0.6l0.4,0.2c0-0.2,0.1-0.3,0.2-0.4c0.1-0.1,0.2-0.2,0.4-0.3 c0.2,0,0.4-0.1,0.5,0c0.2,0,0.3,0.1,0.5,0.2c0.3,0.2,0.5,0.4,0.8,0.6v1c-0.2-0.2-0.4-0.4-0.6-0.6c-0.3-0.2-0.6-0.2-0.8,0l0.8,0.4 v0.6l-0.9-0.6c0,0,0,0.1,0,0.1c0,0,0,0.1,0,0.1l0.9,0.5v0.6l-0.8-0.5c0.1,0.4,0.4,0.8,0.8,1c0.1,0.1,0.2,0.1,0.3,0.1 c0.1,0,0.3,0,0.4,0L13.3,19.3z"></path> <linearGradient id="SVGID_25_" gradientUnits="userSpaceOnUse" x1="15.1356" y1="923.6758" x2="15.1356" y2="911.2463" gradientTransform="matrix(1 0 0 1 0 -902.25)"> <stop offset="0" style="stop-color:#BE6D00"></stop> <stop offset="0.19" style="stop-color:#D09222"></stop> <stop offset="0.44" style="stop-color:#E4BD4A"></stop> <stop offset="0.67" style="stop-color:#F3DB67"></stop> <stop offset="0.86" style="stop-color:#FCEE79"></stop> <stop offset="1" style="stop-color:#FFF57F"></stop> </linearGradient> <path class="st29" d="M20.3,11.7c0.1-0.1,0.2-0.2,0.2-0.3s0-0.2-0.1-0.3L20.3,11l-4.3-1.9c-0.3-0.1-0.6-0.1-1-0.1 c-0.3,0-0.6,0.1-0.9,0.2l-4.3,1.7c0,0-0.5,0.3,0.3,0.9l4.5,2.2c0.2,0.1,0.4,0.1,0.6,0.1c0.2,0,0.4-0.1,0.6-0.2 C16.4,13.4,20.3,11.7,20.3,11.7z M15.1,13l-0.5-0.2l0.4-0.2c0.1,0,0.1-0.1,0-0.2l-2.2-0.9c-0.1,0-0.1,0-0.2,0c-0.1,0-0.1,0-0.2,0 L12,11.6l-0.5-0.2l1-0.5l-0.5-0.2l0.5-0.2l0.5,0.2l0.3-0.2l-0.5-0.2l0.5-0.2l0.5,0.2c0.6-0.3,1.3-0.4,2-0.2 c0.4,0.1,0.6,0.3,0.4,0.6c0.5-0.2,1-0.2,1.5,0c0.7,0.3,0.8,0.7-0.2,1.1h-0.1l0.5,0.2l-0.5,0.3l-0.5-0.2l-0.3,0.2l0.5,0.2l-0.5,0.2 L16,12.5L15.1,13z"></path> </g> </svg> 