<?xml version="1.0" encoding="UTF-8"?> <svg xmlns="http://www.w3.org/2000/svg" viewBox="0 0 2764.79 593.57"><g fill="#fff"><path d="m697.12 593.57c-8.84 0-16.42-2.06-22.73-6.2-6.32-4.13-10.86-10.06-13.62-17.8-2.76-7.73-3.26-16.99-1.49-27.77 1.72-10.52 5.14-19.46 10.24-26.84s11.33-13.02 18.69-16.93 15.28-5.87 23.76-5.87 16.34 2.07 22.63 6.2c6.3 4.13 10.84 10.06 13.62 17.8 2.78 7.73 3.25 17.03 1.39 27.9-1.68 10.47-5.07 19.4-10.17 26.78s-11.32 13.01-18.66 16.9-15.22 5.83-23.66 5.83zm.66-16.04c5.52 0 10.65-1.38 15.38-4.14s8.75-6.8 12.06-12.13c3.31-5.32 5.59-11.81 6.83-19.45 1.24-7.33 1.15-13.5-.26-18.49-1.42-4.99-3.89-8.76-7.42-11.3-3.54-2.54-7.91-3.81-13.12-3.81-5.52 0-10.65 1.38-15.38 4.14s-8.75 6.8-12.06 12.13-5.63 11.85-6.96 19.59c-1.19 7.29-1.07 13.42.36 18.39 1.44 4.97 3.93 8.73 7.49 11.27s7.92 3.81 13.09 3.81z"></path><path d="m799.17 592.24-11.47-98.76h19.29l5.7 72.58h.93l30.95-72.58h17.56l7.03 72.64h.86l29.76-72.64h19.29l-44.27 98.76h-17.63l-8.29-69.2h-.79l-31.28 69.2h-17.63z"></path><path d="m1034.83 493.48-16.37 98.76h-15.84l-35.33-67.27h-.86l-11.13 67.27h-17.96l16.37-98.76h16.11l35.19 67.27h.93l11.13-67.27z"></path><path d="m1125.31 508.46 2.58-14.98h78.67l-2.52 14.98h-30.49l-13.92 83.78h-17.7l13.92-83.78h-30.55z"></path><path d="m1227.36 592.24 16.37-98.76h17.9l-6.96 41.82h45.8l7.03-41.82h17.83l-16.44 98.76h-17.83l6.89-41.89h-45.73l-6.89 41.89h-17.96z"></path><path d="m1350.41 592.24 16.37-98.76h64.29l-2.52 14.98h-46.4l-4.44 26.84h43.02l-2.45 15.05h-43.02l-4.44 26.91h46.66l-2.45 14.98z"></path><path d="m1520.23 508.46 2.58-14.98h78.67l-2.52 14.98h-30.49l-13.92 83.78h-17.7l13.92-83.78h-30.55z"></path><path d="m1622.27 592.24 16.37-98.76h17.9l-6.96 41.82h45.8l7.03-41.82h17.83l-16.44 98.76h-17.83l6.89-41.89h-45.73l-6.89 41.89h-17.96z"></path><path d="m1827.12 508.53c-1.86-4.73-5.15-8.42-9.88-11.07s-10.87-3.98-18.43-3.98h-37.12l-16.37 98.76h17.96l5.98-36.19h18.15l13.38 36.19h19.95l-14.87-39.11c.71-.27 1.4-.55 2.08-.85 5.61-2.52 10.15-6.11 13.62-10.77s5.71-10.13 6.73-16.4c1.06-6.32.66-11.84-1.19-16.57zm-17.03 16.57c-.58 3.49-1.73 6.44-3.48 8.85s-4.13 4.23-7.16 5.47-6.77 1.86-11.23 1.86h-16.49l5.42-32.81h16.44c6.63 0 11.25 1.46 13.85 4.37 2.61 2.92 3.49 7 2.65 12.26z"></path><path d="m1890.52 493.48-16.3 98.76h-17.96l16.37-98.76h17.9z"></path><path d="m1915.68 592.24 16.37-98.76h17.9l-13.85 83.78h43.48l-2.45 14.98h-61.44z"></path><path d="m2014.54 592.24 16.37-98.76h17.9l-13.85 83.78h43.48l-2.45 14.98h-61.44z"></path><path d="m1341.52 388.6 63.82-383.45h276.4l-14.41 83.9h-171.91l-10.81 65.88h158.01l-13.9 83.9h-158.01l-10.81 65.89h171.4l-13.9 83.9h-275.88z"></path><path d="m339.99 388.6 63.82-383.45h276.4l-14.41 83.9h-171.91l-10.81 65.88h158.01l-13.9 83.9h-158.01l-10.81 65.89h171.4l-13.9 83.9h-275.88z"></path><path d="m1925.64 388.6h112.2l-62.79-383.45h-142.57l-189.92 383.45h112.2l34.48-73.6h126.45zm-99.98-151.33 59.32-126.61h3.09l17.12 126.61z"></path><path d="m2195.02 393.23c-33.29-.17-61.51-5.18-84.67-15.06-23.16-9.86-39.89-25.09-50.18-45.68-10.29-20.58-12.87-46.84-7.72-78.75h98.82c-1.38 11.67-.09 21.53 3.86 29.59 3.94 8.07 10.33 14.16 19.17 18.28s19.86 6.17 33.07 6.17c11.32 0 20.97-1.42 28.95-4.24 7.98-2.83 14.28-6.69 18.91-11.58s7.37-10.42 8.24-16.6c1.03-5.66.08-10.72-2.83-15.18-2.92-4.46-8.32-8.5-16.21-12.1-7.89-3.61-18.7-6.86-32.43-9.78l-36.54-8.24c-32.6-7.55-57.22-19.95-73.86-37.18-16.64-17.24-22.56-40.87-17.76-70.9 4.12-24.53 14.24-45.94 30.37-64.21s36.71-32.47 61.76-42.59c25.05-10.12 52.84-15.18 83.38-15.18s56.74 5.15 77.59 15.44c20.84 10.29 35.9 24.84 45.16 43.62 9.26 18.79 11.75 40.79 7.46 66.01h-99.85c1.2-12.35-1.76-22.04-8.88-29.08-7.12-7.03-19.09-10.55-35.9-10.55-10.64 0-19.56 1.25-26.77 3.73-7.21 2.49-12.78 5.92-16.73 10.29-3.95 4.38-6.43 9.49-7.46 15.32-1.03 4.46-.9 8.54.39 12.22 1.29 3.69 3.82 6.99 7.59 9.91s8.83 5.58 15.18 7.98 13.9 4.55 22.65 6.43l29.85 6.69c20.42 4.47 37.57 10.38 51.47 17.76s24.87 16 32.94 25.87c8.06 9.86 13.34 20.97 15.83 33.33s2.53 25.83.13 40.4c-4.29 25.22-14.12 46.59-29.47 64.08-15.36 17.5-35.35 30.8-59.96 39.88-24.62 9.1-53.14 13.73-85.57 13.9z"></path><path d="m2417.37 89.04 14.41-83.9h333.02l-14.42 83.9h-115.29l-49.41 299.55h-102.42l49.41-299.55h-115.29z"></path><path d="m0 388.6 63.82-383.45h166.25c29.16 0 53.05 3.94 71.67 11.84 18.61 7.89 31.87 19.01 39.76 33.33 7.89 14.33 10.21 31.19 6.95 50.57-3.77 21.1-13.72 39.25-29.85 54.43s-35.68 25.01-58.67 29.47l-.51 4.12c16.47.34 30.79 4.38 42.97 12.1 12.19 7.72 21.15 18.32 26.9 31.78 5.75 13.47 7.16 29.21 4.24 47.22-3.44 20.94-12.01 39.6-25.73 55.98-13.73 16.38-31.4 29.25-53.02 38.6s-46.32 14.02-74.12 14.02h-180.66zm118.38-82.86h48.9c17.15-.17 30.71-3.56 40.66-10.17 9.95-6.6 15.79-16.26 17.5-28.95 1.54-9.09.81-16.73-2.19-22.91-3-6.17-8.07-10.94-15.18-14.28-7.12-3.35-16.09-5.02-26.9-5.02h-49.92zm24.19-145.66h42.72c8.92 0 17.12-1.42 24.58-4.24 7.46-2.83 13.68-6.99 18.66-12.48 4.97-5.49 8.06-12.1 9.26-19.82 1.89-12-.99-21.1-8.62-27.28-7.64-6.17-17.81-9.27-30.5-9.27h-44.26z"></path><path d="m691.83 89.04 14.41-83.9h333.01l-14.41 83.9h-115.3l-49.41 299.55h-102.42l49.41-299.55z"></path><path d="m1319.38 155.29c16.13-15.18 26.08-33.32 29.85-54.43 3.26-19.38.95-36.24-6.95-50.57-7.89-14.32-21.15-25.43-39.76-33.33-18.62-7.89-42.51-11.84-71.67-11.84h-166.25l-13.93 83.67.09-.16 63.73 21.41 35.92-21.41 42.16 19.93c37.67 17.8 80.95 19.52 119.91 4.77l-11.89 17c-1.66 2.37-4.75 5.11-8.69 7.96-22.7 16.4-51.45 22.05-78.99 16.96l-17.69-3.27 13.52 48.03 11.24 65.56-71.93 24.46-24.7-24.98-46.63-11.87-3.21-55.28-13.44 66.92 42.71 11.49-95.48 73.02-6.53 39.23h180.66c27.8 0 52.5-4.67 74.12-14.02s39.29-22.22 53.02-38.6c13.72-16.38 22.3-35.04 25.73-55.98 2.91-18.01 1.5-33.75-4.25-47.22-5.75-13.46-14.71-24.06-26.9-31.78-12.18-7.72-26.51-11.75-42.97-12.1l.51-4.12c22.99-4.45 42.54-14.28 58.67-29.47z"></path><path d="m1149.71 202.94 27.3 12.91-13.72-34.09z"></path></g></svg> 