<?xml version="1.0" encoding="UTF-8"?> <svg xmlns="http://www.w3.org/2000/svg" xmlns:xlink="http://www.w3.org/1999/xlink" version="1.1" id="Шар_1" x="0px" y="0px" viewBox="0 0 916.7 337.6" style="enable-background:new 0 0 916.7 337.6;" xml:space="preserve"> <style type="text/css"> .st0{fill:#FFD400;} .st1{fill:url(#SVGID_1_);} .st2{fill:url(#SVGID_00000107566294628834123990000014782386896370328712_);} .st3{fill:#FFFFFF;} .st4{fill:#FEB600;} .st5{fill:#FCC700;} .st6{fill:#252525;} </style> <g> <path class="st0" d="M914.6,231.6C840.5,64.3,655.4-24.5,479.3,26.8c-27.8,7.9-54.4,19.3-80,33.2c26.4-18.8,56.1-33.4,87-43.6 C567.6-10,658.9-4.3,736.4,32.2c38.7,18,74.1,43.6,103.5,74.5C873.4,142.1,899.5,185,914.6,231.6L914.6,231.6z"></path> </g> <g> <linearGradient id="SVGID_1_" gradientUnits="userSpaceOnUse" x1="586.7999" y1="119.0105" x2="586.7999" y2="119.255" gradientTransform="matrix(1 0 0 -1 0 341.1513)"> <stop offset="0" style="stop-color:#FFD400"></stop> <stop offset="1" style="stop-color:#F56200"></stop> </linearGradient> <path class="st1" d="M586.7,222c-0.1-0.1-0.2-0.1-0.4-0.1c0.2,0.2,0.5,0.2,1,0.2C587,222.2,586.8,222.1,586.7,222z"></path> <linearGradient id="SVGID_00000158710017560451427720000011210379052076210361_" gradientUnits="userSpaceOnUse" x1="529.5499" y1="4.0272" x2="529.5499" y2="259.627" gradientTransform="matrix(1 0 0 -1 0 341.1513)"> <stop offset="0" style="stop-color:#FFD400"></stop> <stop offset="1" style="stop-color:#F56200"></stop> </linearGradient> <path style="fill:url(#SVGID_00000158710017560451427720000011210379052076210361_);" d="M736.8,170.2c-0.7-1.2-1.4-2.2-2.1-3 c-0.7-1-1.6-2.1-2.8-3.4s-2.5-2.5-3.9-3.7c-1.4-1.1-2.8-2.2-4.3-3c-1.5-0.9-2.8-1.4-4.1-1.6c-3.3-0.3-6.5-0.6-9.7-0.7 c-3.3-0.2-6.5-0.4-9.7-0.7c1.3-1.8,2.8-3.8,4.6-6.1c1.8-2.3,3.7-4.5,5.6-6.8c1.9-2.3,4-4.4,6.1-6.5c2.1-2,4.1-3.5,5.8-4.5 c0.3-0.2,0.5-0.5,0.5-1s-0.1-1-0.2-1.6c-0.2-0.6-0.4-1.1-0.6-1.6c-0.2-0.5-0.4-0.8-0.4-1c-0.7-1.1-1.7-2.5-3-4.1 c-1.4-1.6-2.9-3.2-4.6-4.6c-1.7-1.5-3.5-2.7-5.4-3.8s-3.5-1.6-5-1.6c-2.1,0-4.9,1.8-8.4,5.5s-7.1,7.9-10.7,12.8 c-3.7,4.9-7,9.6-10.1,14.1l-6.6,10c-9.7,0.2-19.4,0.5-28.9,1.1s-19.1,1.5-28.9,2.8c-1,0.2-1.5,0.7-1.7,1.5s-0.1,1.6,0.2,2.4 c0.3,1.6,1.2,3.4,2.7,5.4c1.5,1.9,3.2,3.7,5.1,5.4c1.9,1.6,4,3,6.1,4c2.1,1.1,4,1.6,5.6,1.6c4.7-0.6,9.3-1.2,13.9-1.6 c4.5-0.4,9.2-0.8,13.9-1.1c-8,14.9-15.1,30.9-21.4,47.7c-2.2,5.8-4,11.5-5.8,17.3c-0.3,0.3-0.6,0.6-0.9,1 c-4.8,5-10.2,10.4-16.1,16.1c-5.9,5.7-11.9,11-17.8,15.8c-5.9,4.9-11.6,8.9-16.9,12.2c-5.4,3.3-9.9,4.9-13.6,4.9 c-1.9,0-3.7-0.6-5.4-1.9c-1.6-1.3-2.3-3.2-1.9-5.8c0.8-6.3,2.3-12.5,4.5-18.5s4.8-11.9,7.7-17.5c2.9,2.4,6.3,4.8,10,7.1 c3.7,2.3,7.6,3.4,11.5,3.4c4.4,0,8.6-1,12.7-2.9c4.1-1.9,7.7-4.5,11-7.7c3.2-3.2,6.1-6.7,8.5-10.6s4.2-7.8,5.4-11.7 c0.8-2.3,1.3-4.6,1.3-6.9c0.1-2.4-0.4-4.6-1.6-6.7c-1-1.9-2.6-4.1-5-6.6c-2.4-2.4-5-4.7-7.8-6.8s-5.8-3.9-8.8-5.2 c-3-1.4-5.6-2.1-7.9-2.1c-8.4,0-16.4,2.9-23.8,8.6c-4.6,3.6-8.8,7.8-12.7,12.4c-1.2,0.3-2.4,0.7-3.7,1.1c-3.6,1.3-7.7,2.7-12.3,4.3 c-4.6,1.5-9.8,3.2-15.5,5c-3.7-11.2-9.7-20-17.8-26.3c-8.1-6.3-18-10-29.7-11c3.9-2.4,8.4-5.5,13.4-9.1c5-3.7,9.8-7.7,14.4-12.1 c4.5-4.4,8.6-9,12.1-13.9s5.7-9.7,6.7-14.6c0.5-2.9,0.5-5.9,0-9c-0.8-4.2-2.1-8.2-3.9-11.9c-5.7-11.4-13-19.4-21.9-24 S483.1,82,470.4,82c-10.1,0-20.8,1.1-32.2,3.3c-11.4,2.2-22.6,5.4-33.6,9.6c-11,4.2-21.6,9.5-31.7,15.7 c-10.1,6.3-19,13.4-26.7,21.6c-7.7,8.1-13.8,17.1-18.4,26.9c-4.5,9.8-6.8,20.5-6.8,32c0,1.1,0,2.2,0.1,3.3c0.1,1.1,0.2,2.2,0.4,3.3 c0,1.5,0.6,3.4,1.7,5.7c1.1,2.4,2.5,4.7,4,6.9c1.5,2.3,3.2,4.2,5,5.8c1.8,1.6,3.2,2.4,4.4,2.4c1,0,1.5-1,1.5-2.9 c-0.2-0.6-0.2-1.7-0.2-3.2c0-0.5,0-1,0-1.6s-0.1-1.2-0.2-1.8c0-10.7,2.4-20.8,7.3-30.2c4.9-9.4,11.3-18.1,19.4-25.9 c8-7.9,17.2-14.9,27.5-21.1c10.3-6.2,21-11.4,32-15.7s22-7.6,32.9-9.9c10.9-2.3,20.9-3.4,30-3.4c1.8,0,3.9,0.1,6.5,0.2 c2.5,0.2,5.1,0.5,7.7,1c2.6,0.5,5,1.2,7.1,2.2s3.6,2.4,4.4,4.1c0.8,1.6,0.8,3.6,0,5.8c-2.4,6-7.1,12.3-13.9,18.8 c-6.8,6.5-14.4,12.8-22.8,18.9c-8.4,6.1-16.7,11.6-25.1,16.6s-15.4,8.8-21.1,11.6c0.5-1,1.4-2.4,2.7-4.4c1.3-1.9,2.7-4,4.3-6.2 c1.5-2.2,3.1-4.2,4.8-6c1.6-1.8,2.9-2.9,3.9-3.4c0.2,0.2,0.4,0.2,0.7,0.2c0.5,0,0.9-0.4,1.2-1.2c0.3-1,0.2-2.1-0.5-3.4 c-0.3-0.6-0.7-1.2-1-1.7s-0.6-0.9-0.7-1.2c-0.3-0.5-0.7-1.1-1-1.8c-0.3-0.7-0.8-1.5-1.5-2.3s-1.3-1.7-1.9-2.6 c-0.7-0.9-1.3-1.7-1.9-2.6c-1-1.1-2.2-2.4-3.8-3.9c-1.5-1.5-3.1-2.2-4.8-2.2c-1,0-2,0.4-3,1.1c-1.1,0.7-2.1,1.7-3,2.8 c-1,1.1-1.9,2.2-2.7,3.3c-0.8,1.1-1.5,2-1.9,2.8c-2.8,3.9-5.8,8.7-9.3,14.3c-3.4,5.6-6.8,11.7-10.1,18.2c-3.3,6.5-6.6,13.2-9.9,20 s-6.1,13.5-8.6,20s-4.6,12.7-6.2,18.5s-2.6,10.9-2.9,15.1c-0.2,2.1,0,4.5,0.5,7.3c0.8,3.7,2.6,7.7,5.4,11.9c2.8,4.2,5.5,7.6,8.3,10 c-1.1,0.7-2.7,1.6-4.8,2.9c-2,1.3-4.1,2.7-6.1,4.1c-2,1.5-3.9,3-5.6,4.5s-2.8,3-3.3,4.3c-0.8,1.9-0.9,3.8-0.2,5.6 c3.4,9.9,8.1,17.3,14.1,22c6,4.8,14.5,7.2,25.6,7.2c7.6,0,15.6-1.2,24-3.5c8.4-2.4,16.7-5.6,25-9.9c8.3-4.2,16.3-9.1,24.1-14.7 s15-11.6,21.7-18s12.5-13.2,17.4-20.2c5-7.1,8.6-14,11.1-20.8c1.9-5.8,2.7-11.7,2.2-17.5c1.3-0.5,3-1.1,5-1.7s4.4-1.4,7.2-2.2 c2.4-0.6,4.9-1.3,7.3-2c-4.1,6.9-7.5,14.2-10.1,21.8c-3.3,9.7-5.2,18.4-5.7,26.2c-0.2,2.8,0.2,6,1.1,9.7c0.9,3.7,2.5,7.2,4.8,10.5 c2.1,3.4,5.1,6.3,9,8.8c3.9,2.4,8.8,3.7,14.9,3.9c5,0.2,10.7-1.5,16.9-5c6.3-3.5,12.7-7.9,19.2-13.3s13-11.2,19.4-17.7 c0.6-0.6,1.1-1.2,1.7-1.7c-0.3,1.8-0.7,3.5-1,5.3c-0.8,5.7-1.3,11.3-1.3,16.8c-0.1,5.5,0.4,11,1.3,16.6c1.3,6,3.7,11.4,7.3,16.3 s8,8.9,13.2,12.2c0.6,0.3,1.5,0.8,2.7,1.5c1.1,0.6,2.2,1,3.2,1h0.7c0.8-0.3,1.3-0.8,1.5-1.5s0.1-1.4-0.2-2.2 c-0.5-1.5-1.2-2.9-2.2-4.3s-2.1-2.7-3.4-4c-0.3-1-0.6-1.9-0.9-2.9c-0.2-1-0.5-1.9-0.9-2.9v-1.2c-0.2-0.8-0.3-1.6-0.4-2.4 c-0.1-0.8-0.2-1.6-0.4-2.4c-0.3-3.4-0.3-6.9,0-10.5c0.3-10.6,1.9-21.6,4.9-33.1c2.9-11.5,6.6-23,11-34.5s9.3-22.5,14.6-33.1 c5.4-10.6,10.6-20.3,15.8-29.1c15.6,0,31,0.7,46.3,2.2h1c1.6,0,2.5-0.6,2.7-1.9C737.7,172.6,737.5,171.4,736.8,170.2z M485.2,265.3 c-8.7,8.4-18.2,16.1-28.6,22.9s-21.1,12.3-32,16.6c-11,4.2-21.3,6.3-31.1,6.3h-1.9c-1,0-1.7-0.1-2.2-0.2c6.3-7.1,14.3-14.1,24-21 c9.7-6.8,19.9-13.4,30.8-19.6c10.9-6.3,21.8-12,32.6-17.2c10.9-5.2,20.6-9.6,29.2-13.2C500.8,248.4,493.8,256.8,485.2,265.3z M514.5,218.5c-0.5,2.8-1.2,5.4-2.2,7.8c-20.8,7.6-41.3,15.9-61.6,24.8c-20.3,8.9-40,18.9-59.2,30c0-0.2-0.1-0.4-0.2-0.7l-1.5-2.2 c0.2-4.5,0.8-9.3,1.9-14.1c1.1-4.9,2.6-9.7,4.3-14.6c1.7-4.9,3.6-9.7,5.7-14.4c2.1-4.7,4.1-9,6.1-12.9c6.5-2.6,13.3-5.2,20.3-7.8 c7.1-2.6,14.2-5,21.4-7.2c7.2-2.2,14.5-4,21.7-5.4s14.3-2.1,21.3-2.1c4.1,0,8.2,0.6,12.5,1.7s7.3,3.9,9.1,8.3 C515.1,212.5,515.2,215.4,514.5,218.5z M606.8,207.3c-1,3.4-2.6,7.1-5,11s-5.1,7.4-8.3,10.6s-6.6,5.8-10.4,7.9 c-3.9,2.1-7.8,3.2-11.7,3.2c4.1-6.8,9-13.3,14.9-19.4C592.2,214.5,599,210.1,606.8,207.3z"></path> </g> <path class="st3" d="M717.6,267.2c-0.1,0.3-0.8,1.5-2.1,3.4c-1.3,2-3,4.4-5.1,7.2c-2.1,2.8-4.5,5.9-7.2,9.1s-5.4,6.2-8.3,8.9 c-2.8,2.7-5.6,5-8.4,6.8c-2.8,1.8-5.3,2.7-7.5,2.7c-1.5,0-2.9-0.4-4.3-1.1c-1.4-0.7-2.6-1.6-3.8-2.7c-1.1-1.1-2.2-2.3-3-3.7 c-0.9-1.4-1.5-2.7-2-4.1c-0.6-1.8-1-3.7-1.1-5.5c-0.1-1.9,0.1-3.7,0.4-5.5c0.4-1.8,0.9-3.6,1.5-5.4c0.7-1.8,1.4-3.6,2.1-5.2 c1.6-3.6,3.5-7.2,5.8-10.6s5.1-6.4,8.3-8.9c0.9-0.6,2-1.3,3.5-2.1c1.5-0.8,2.7-1.1,3.8-1.1c1.2,0,2.4,0.4,3.7,1.2 c1.3,0.8,2.4,1.9,3.5,3.1s2,2.5,2.7,3.8s1.1,2.6,1.2,3.7c0.1,0.6,0.1,1.3,0.1,2s-0.2,1.3-0.5,2l-0.5,0.9c-0.2,0.3-0.4,0.6-0.7,0.9 l-0.9,0.9v0.5c0.1,0.3,0.2,0.6,0.2,0.9c0.1,0.3,0.2,0.6,0.2,0.9c0.3,1,0,1.7-0.8,1.9c-0.8,0-1.6-0.3-2.5-0.8s-1.8-1.1-2.5-1.9 c-0.8-0.8-1.5-1.6-2.1-2.4c-0.6-0.9-1.1-1.7-1.4-2.4c-0.6,0.5-1,1-1.5,1.5c-0.4,0.5-0.8,1-1.2,1.5c-0.5,0.6-1.2,1.6-2.2,3.1 s-2,3.2-3.1,5.2c-1.1,1.9-2.2,4-3.1,6.3c-1,2.3-1.7,4.4-2.3,6.5c-0.5,2.1-0.7,4-0.5,5.7s0.9,3.1,2.1,4.1c0.4,0.2,0.8,0.4,1.2,0.4 c1.3,0,3-0.8,5.1-2.4s4.4-3.6,6.9-6s5-5,7.6-7.8s4.9-5.4,7-7.9s3.9-4.6,5.3-6.3s2.3-2.6,2.4-2.8c0.7-0.7,1.5-1.1,2.3-1.1 c0.7,0,1.2,0.3,1.6,1C717.6,266.1,717.7,266.7,717.6,267.2z"></path> <path class="st3" d="M753.3,305.7c-2.1,0-3.9-0.8-5.6-2.5c-1.7-1.7-2.8-3.4-3.6-5.1c-0.5-1-0.8-2.3-0.9-3.7 c-0.2-1.4-0.2-2.9-0.2-4.4s0.1-3.1,0.2-4.6c0.1-1.5,0.3-2.8,0.4-3.9c0.4-3.1,1-6.1,1.9-9.1s1.7-5.9,2.6-8.9l-0.4,0.4 c-3.3,3.6-6.5,7.4-9.6,11.3s-6.1,7.7-9.1,11.6c-3,3.8-6.2,7.7-9.5,11.6c-1.1,1.3-2.2,2.7-3.4,4s-2.4,2.6-3.8,3.8 c-0.1,0.1-0.2,0.1-0.4,0.1c-0.5,0-1.1-0.3-1.8-0.8c-0.8-0.6-1.5-1.2-2.3-2c-0.8-0.7-1.5-1.5-2.2-2.2s-1.1-1.2-1.4-1.5 c-0.2-0.2-0.5-0.7-0.9-1.4c-0.4-0.7-0.6-1.2-0.5-1.6c0.9-5.8,2.1-11.7,3.8-17.9c1.7-6.2,3.6-12.3,5.9-18.4 c2.3-6.1,4.8-12.1,7.5-17.8c2.8-5.8,5.6-11.1,8.5-16c0.7-1.2,1.7-2.8,3.1-4.8c1.3-2,2.8-4,4.4-6c1.6-2,3.3-3.7,5.1-5.1 s3.5-2.1,5.2-2.1c0.8,0,1.7,0.3,2.7,1s2,1.5,3,2.4c0.9,0.9,1.8,1.9,2.6,2.8c0.8,1,1.3,1.8,1.5,2.4c0.1,0.2,0.1,0.5,0.2,0.9 c0,0.4-0.2,0.6-0.7,0.4h-1.5c-1.5,0.4-3.1,1.3-4.7,2.8c-1.6,1.5-3.2,3.2-4.9,5.2c-1.6,2-3.2,4.2-4.7,6.6s-2.9,4.8-4.2,7.1 c-1.3,2.3-2.4,4.5-3.4,6.5s-1.8,3.7-2.4,4.9c-0.9,2.1-2,4.5-3.1,7.2c-1.1,2.8-2.2,5.6-3.2,8.6s-2,5.8-3,8.6 c-0.9,2.8-1.8,5.3-2.5,7.4c0.7-0.9,1.7-2.2,2.8-3.8c1.2-1.7,2.5-3.6,3.9-5.7s2.9-4.3,4.3-6.5s2.8-4.3,4.1-6.3s2.4-3.7,3.4-5 c1-1.4,1.7-2.3,2.1-2.7c0.7-0.8,1.5-1.6,2.3-2.4s1.7-1.5,2.6-2c0.8-0.6,1.8-0.8,3.1-0.8s2.8,0.5,4.3,1.4s3,2.1,4.3,3.5 s2.4,2.9,3.2,4.4c0.8,1.6,1.2,3,1.2,4.1c0.1,1.5-0.1,3-0.4,4.4c-0.4,1.5-0.7,2.9-1.1,4.3c-0.6,1.8-1.1,3.6-1.7,5.4 c-0.6,1.8-1.1,3.7-1.5,5.6c-1.3,5.9-2,10.1-2,12.6c0,2.4,0.4,3.7,1.3,3.7c0.7,0,1.7-0.8,2.9-2.4s2.5-3.5,4-5.9 c1.4-2.3,2.9-4.9,4.3-7.6c1.5-2.8,2.8-5.3,4-7.7c1.2-2.4,2.2-4.4,3-6s1.2-2.5,1.2-2.5c0.9-1.6,2-2.4,3.3-2.4c1,0,1.9,0.4,2.5,1.2 c0.6,0.8,0.7,1.6,0.4,2.5c-0.4,0.9-1.1,2.4-2,4.7c-0.9,2.3-2.1,4.9-3.4,7.7c-1.3,2.8-2.8,5.8-4.4,8.9s-3.3,5.9-5.2,8.5 c-1.8,2.6-3.7,4.7-5.7,6.3C757.3,304.9,755.3,305.7,753.3,305.7z"></path> <path class="st3" d="M816.7,295.8c-2,2.8-4,5.2-6.2,7c-2.1,1.9-4.3,2.8-6.6,2.8c-1.3,0-2.6-0.3-3.7-0.9c-1.1-0.6-2.2-1.4-3.1-2.3 c-0.9-0.9-1.7-2-2.3-3.2s-1.1-2.4-1.4-3.6c-0.4-1.4-0.5-2.7-0.4-4c0.1-1.2,0.1-2.3-0.1-3.3c-0.5,0.6-1.2,1.9-2.3,3.7 c-1.1,1.9-2.2,3.8-3.5,5.7c-1.3,1.9-2.5,3.7-3.8,5.3c-1.3,1.6-2.4,2.4-3.4,2.4c-1.2,0-2.5-0.4-3.9-1.2c-1.4-0.8-2.8-1.8-4-3 c-1.3-1.2-2.4-2.5-3.4-3.8c-1-1.4-1.6-2.6-2-3.7c-0.5-1.6-0.7-3.2-0.5-4.8c0.1-1.6,0.3-3.2,0.5-4.8c0.3-1.7,0.8-3.8,1.5-6 s1.5-4.7,2.5-7.2s2.2-5,3.6-7.4c1.4-2.4,2.9-4.6,4.6-6.5c1.7-1.9,3.5-3.5,5.4-4.6s4-1.7,6.2-1.7c2.1,0,4,0.6,5.8,1.7 s3.4,2.4,4.9,3.7c0.2-0.3,0.3-0.8,0.5-1.5s0.4-1.3,0.6-2c0.2-0.6,0.4-1.2,0.5-1.7c0.2-0.5,0.3-0.8,0.4-0.8h0.2 c0.4,0,1.2,0.2,2.4,0.5c1.2,0.4,2.5,0.9,3.8,1.5c1.3,0.7,2.4,1.5,3.4,2.4c0.9,0.9,1.3,2,1.2,3.2c0,0.1-0.3,0.9-0.9,2.4 c-0.6,1.5-1.3,3.4-2.1,5.7c-0.8,2.3-1.7,4.9-2.5,7.8c-0.9,2.8-1.6,5.6-2.2,8.3c-0.6,2.7-1,5.3-1.1,7.6c-0.2,2.3,0.1,4.1,0.7,5.4 c0.5,0.7,0.9,1.1,1.4,1.1c1,0,2.3-0.9,3.7-2.8s3-4.3,4.6-7.2c1.7-2.9,3.4-6.2,5.1-9.7c1.7-3.6,3.4-7,5-10.3c0.2-0.6,0.6-0.9,1-1.1 s0.8-0.3,1.2-0.3c0.8,0,1.5,0.2,2.1,0.7c0.6,0.4,0.8,0.8,0.7,1.2c-0.1,0.2-0.5,1.4-1.2,3.4c-0.8,2.1-1.7,4.5-3,7.4 c-1.2,2.9-2.7,6-4.3,9.3C820.5,289.8,818.6,292.9,816.7,295.8z M779.5,290.7c1.6-0.9,3.5-2.6,5.8-5s4.7-5.7,7.3-9.8 c2.6-4.1,4.9-9.4,6.9-15.9c-2.1,0.1-4.1,0.7-6,1.9c-1.9,1.2-3.6,2.7-5.2,4.6c-1.6,1.9-3,3.9-4.3,6.3c-1.3,2.3-2.4,4.7-3.4,7 c-0.9,2.4-1.8,4.7-2.5,6.9c-0.7,2.3-1.2,4.2-1.5,5.9C776.9,292.3,777.8,291.7,779.5,290.7z"></path> <path class="st3" d="M854.6,263.9c0.8,0,1.5,0.2,2,0.7c0.6,0.5,0.8,0.9,0.8,1.4c0,0.4-0.5,1.6-1.5,3.7s-2.3,4.6-3.8,7.5 s-3.3,5.9-5.3,9.2c-2,3.2-3.9,6.2-5.9,9s-3.8,5.1-5.6,6.9c-1.8,1.9-3.3,2.8-4.6,2.9c-1.4,0-2.8-0.3-4.1-0.9s-2.5-1.5-3.6-2.5 c-1.1-1.1-2-2.3-2.7-3.6c-0.8-1.3-1.2-2.7-1.4-4.1c-0.2-1.3-0.2-2.7-0.2-4.1s0.1-2.7,0.4-4.1c0.5-3,1.3-6.2,2.3-9.5s2.2-6.6,3.5-9.9 s2.8-6.4,4.4-9.5c1.6-3,3.2-5.8,4.9-8.2c0.2-0.2,0.3-0.2,0.5-0.2c0.5,0,1.2,0.3,2.1,0.9c0.8,0.6,1.7,1.4,2.5,2.2 c0.8,0.8,1.6,1.7,2.3,2.5c0.7,0.9,1.2,1.5,1.5,2c0.2,0.2,0.3,0.6,0.5,1.1s0.2,0.9,0.1,1.2c-1.3,2-2.8,4.4-4.3,7.3s-3,5.9-4.3,9.1 s-2.5,6.4-3.6,9.5c-1,3.1-1.7,5.9-2.1,8.3c-0.6,3.2-0.3,4.7,0.7,4.7c0.7,0,1.8-0.8,3.1-2.3c1.4-1.5,2.9-3.5,4.5-5.9s3.3-4.9,5-7.7 c1.7-2.8,3.3-5.3,4.7-7.7c1.4-2.4,2.6-4.4,3.6-6.1s1.5-2.6,1.6-2.8C853,264.3,853.7,263.9,854.6,263.9z M858.6,224.8 c0.2,0.2,0.4,0.6,0.6,1.2c0.2,0.6,0.1,1-0.2,1.3c-2.4,2.3-4.3,5.2-5.7,8.8c-1.3,3.6-2.3,7-3,10.2c-0.1,0.5-0.4,0.7-0.9,0.7 c-0.6,0-1.2-0.2-2-0.7s-1.5-1-2.3-1.7s-1.4-1.4-2.1-2.1s-1.1-1.3-1.4-1.8c-0.2-0.4-0.4-0.9-0.8-1.5c-0.4-0.6-0.6-1.1-0.5-1.5 c0.4-1.9,0.9-3.7,1.4-5.6c0.6-1.8,1.2-3.6,1.9-5.4c0.2-0.4,0.5-1.1,1-2.1s1.1-2.1,1.8-3.1c0.7-1.1,1.3-2,2-2.8s1.2-1.2,1.7-1.2 c0.6,0,1.4,0.3,2.3,0.9c0.9,0.6,1.7,1.3,2.5,2.1s1.6,1.6,2.3,2.5C857.9,223.7,858.4,224.4,858.6,224.8z"></path> <path class="st3" d="M893.4,287c-0.5,2-0.8,3.8-1.1,5.4c-0.2,1.6-0.4,3-0.4,4c0,1.1,0.2,1.6,0.6,1.7c0.7,0.2,1.6-0.3,2.7-1.4 c1.1-1.1,2.2-2.6,3.4-4.4c1.2-1.9,2.4-4,3.7-6.3c1.3-2.4,2.6-4.8,3.8-7.2c1.2-2.4,2.4-4.8,3.5-7c1.1-2.3,2.1-4.2,2.8-5.9 c0.2-0.3,0.7-0.5,1.5-0.5c0.5,0,1,0.1,1.5,0.2s0.9,0.4,1.2,0.8c0.2,0.2-0.1,1.2-0.7,3.2c-0.6,2-1.5,4.4-2.7,7.3s-2.6,6.1-4.2,9.5 c-1.6,3.4-3.4,6.5-5.3,9.4c-1.9,2.9-3.9,5.3-6,7.2c-2.1,1.9-4.2,2.8-6.2,2.8c-1.2,0-2.3-0.4-3.4-1.1c-1.1-0.8-2.1-1.7-3-2.7 c-0.9-1.1-1.7-2.2-2.3-3.4c-0.6-1.2-1-2.3-1.2-3.3c-0.4-1.7-0.6-3.5-0.5-5.3c0-1.8,0.2-3.6,0.5-5.4c0.2-1.2,0.4-2.6,0.7-4.3 c0.3-1.7,0.7-3.4,1-5.1c0.4-1.7,0.7-3.4,1.1-5.1c0.4-1.7,0.7-3.1,1.1-4.3c-1.7,1.7-3.6,3.9-5.7,6.6c-2.1,2.7-4.1,5.5-6.3,8.4 c-2.1,2.9-4.2,5.9-6.3,8.8c-2.1,3-4,5.6-5.9,8c-1.8,2.4-3.4,4.3-4.9,5.7c-1.4,1.5-2.6,2.2-3.4,2.2c-0.5,0-1.1-0.3-2-0.9 c-0.8-0.6-1.7-1.4-2.5-2.3s-1.5-1.8-2.1-2.7s-0.9-1.6-1-2.1c-0.2-1.7-0.3-3.3-0.2-4.9s0.2-3.2,0.4-4.8c0.3-2.4,0.9-5.3,1.8-8.6 c0.9-3.3,1.9-6.7,3-10.1s2.4-6.7,3.8-9.8c1.4-3.1,2.9-5.6,4.4-7.6c0.1-0.2,0.3-0.2,0.6-0.2c0.7,0,1.5,0.3,2.4,0.9s1.7,1.3,2.5,2.1 s1.6,1.6,2.3,2.4s1.1,1.5,1.4,2.1c0.2,0.4,0.3,0.8,0.5,1.2c0.2,0.4,0.1,0.8-0.1,1.2c-1.8,2.3-3.4,5.1-4.7,8.3 c-1.3,3.2-2.5,6.2-3.4,9c0,0.2-0.1,0.6-0.3,1.3c-0.2,0.7-0.4,1.5-0.6,2.3c-0.2,0.8-0.4,1.6-0.5,2.3c-0.2,0.7-0.3,1.1-0.4,1.3 c0.2-0.3,0.8-1.1,1.7-2.5c0.9-1.3,2-3,3.4-4.9c1.3-1.9,2.8-4,4.4-6.3c1.6-2.3,3.2-4.5,4.7-6.7c1.6-2.2,3.1-4.1,4.6-5.9 s2.7-3.2,3.7-4.2c0.9-0.9,1.8-1.7,2.8-2.5s2.1-1.4,3.3-1.6c1.3,0,2.4,0.2,3.1,0.7c0.8,0.4,1.6,1.1,2.7,2.1c1.3,1.1,2.6,2.4,3.7,4 c1.1,1.5,1.8,3.2,2,5c0.2,1.7,0,3.4-0.4,5.1l-1.3,5c-0.2,0.7-0.6,1.8-0.9,3.4c-0.4,1.5-0.8,3.2-1.2,5 C894.2,283.3,893.8,285.1,893.4,287z"></path> <g> <path class="st4" d="M226.8,182.4c10.8-15.2,21.7-30.4,32.5-45.5c-84-33.4-176.9-33.8-259.2,4.8c3.4,18.3,6.7,36.7,10.1,55 C77.4,160.2,155,157.4,226.8,182.4z"></path> </g> <path class="st5" d="M172.8,73.1C128.8,58.5,83.4,52,37.1,53.5c0.8,18.6,1.5,37.3,2.3,55.9c39.5-1.2,78,4.3,115.5,16.7 C160.8,108.4,166.8,90.8,172.8,73.1z"></path> <path class="st4" d="M95.4,73.4c24.5,3.2,48.3,8.6,71.8,16.4c1.9-5.6,3.8-11.1,5.7-16.7C147,70.7,121.3,70.7,95.4,73.4z"></path> <path class="st0" d="M226.8,182.4c-41.5-28.8-88.1-46.9-138.1-53.5c2.3-18.5,4.5-37,6.8-55.5c59.3,7.7,114.8,29.3,163.8,63.5 C248.4,152.1,237.6,167.2,226.8,182.4z"></path> <path class="st5" d="M192.9,262c20.6,18,37.4,38.7,50.7,62.6c16.4-8.9,32.8-17.7,49.2-26.6c-16.6-30-37.9-56.2-63.8-78.7 C217,233.5,204.9,247.7,192.9,262z"></path> <path class="st4" d="M238.1,283.8c-10.2-12.9-21.4-24.5-33.8-35.3c-3.8,4.5-7.6,9-11.4,13.4C208.8,267.7,223.7,274.9,238.1,283.8z"></path> <path class="st0" d="M238.1,283.9c-54.9-69-141.1-101.9-228-87.2C6.7,178.4,3.4,160,0,141.7c107.3-18.4,214.7,22.6,282.3,108 C267.6,261.1,252.8,272.5,238.1,283.9z"></path> <g> <g> <path class="st6" d="M140.7,132.1c-7.9-2.3-16-4.2-24.3-5.9c0.6-1.9,1.1-3.8,1.7-5.7c3.2,0.7,6.4,1.4,9.5,2.1 c3.2-9.6,6.7-19.1,10.6-28.6c-3.4-0.8-6.7-1.6-10.1-2.4c0.7-1.9,1.4-3.8,2.2-5.6c5.7,1.3,11.3,2.7,16.8,4.2 c-5,11.2-9.4,22.6-13.4,33.9c3,0.8,6.1,1.6,9.1,2.5C142.1,128.4,141.4,130.3,140.7,132.1z"></path> <path class="st6" d="M153,121.7c1.9-4.6,3.9-9.2,5.9-13.7c1.6-3.6,4.5-6.2,8.7-7.7c4.2-1.6,8.4-1.5,12.5,0 c4.1,1.6,6.9,4.2,8.3,7.9c1.4,3.6,1.1,7.2-0.8,10.6c-2.4,4.4-4.7,8.8-6.9,13.2c-1.7,3.5-4.5,5.9-8.2,7.5 c-3.8,1.5-7.4,1.6-11.2,0.3c-3.7-1.4-6.4-3.8-8.1-7.3C151.6,128.8,151.5,125.3,153,121.7z M165.1,110c-2.1,4.5-4.2,9.1-6.1,13.6 c-0.9,2.1-0.9,4.2,0,6.3c0.9,2.1,2.5,3.5,4.6,4.3c2.2,0.8,4.4,0.7,6.6-0.2c2.2-1,3.8-2.4,4.8-4.4c2.1-4.5,4.4-8.9,6.7-13.3 c1-2,1.2-4,0.3-6.1c-0.8-2.1-2.4-3.6-4.8-4.5c-2.3-0.9-4.7-0.9-7.1,0C167.7,106.5,166.1,108,165.1,110z"></path> <path class="st6" d="M183.1,144.3c0.9,0.4,1.7,0.8,2.6,1.2c2.5-5.1,5.2-10.2,8-15.2c-1-0.5-2.1-1-3.1-1.4 c-0.5,0.9-0.9,1.7-1.4,2.6c-1-0.4-1.9-0.9-2.9-1.3c0.9-1.8,1.9-3.6,2.8-5.3c5,2.2,9.9,4.6,14.8,7c-1,1.7-2,3.5-3,5.2 c-0.9-0.5-1.9-0.9-2.8-1.4c0.5-0.9,1-1.7,1.5-2.6c-1-0.5-2-1-2.9-1.4c-2.8,5-5.5,10-8.1,15.1c0.9,0.4,1.8,0.8,2.6,1.3 c-0.5,0.9-0.9,1.8-1.4,2.7c-2.6-1.3-5.2-2.5-7.9-3.7C182.3,146.1,182.7,145.2,183.1,144.3z"></path> <path class="st6" d="M195.2,153.4c0.4-0.8,0.9-1.6,1.3-2.4c0.6,0.3,1.2,0.6,1.9,1c2.8-5.1,5.7-10.2,8.7-15.3c-0.6-0.3-1.3-0.7-2-1 c0.5-0.8,1-1.6,1.4-2.4c2.2,1.1,4.3,2.2,6.4,3.4c-0.5,0.8-1,1.6-1.5,2.4c-0.6-0.3-1.2-0.7-1.8-1c-1.3,2.1-2.5,4.2-3.8,6.3 c1.7,0.9,3.4,1.8,5,2.7c1.3-2.1,2.6-4.2,3.9-6.3c-0.6-0.3-1.2-0.7-1.8-1c0.5-0.8,1-1.6,1.5-2.4c2.1,1.2,4.2,2.3,6.2,3.6 c-0.5,0.8-1,1.6-1.5,2.3c-0.6-0.4-1.3-0.7-1.9-1.1c-3.2,5-6.2,9.9-9.2,15c0.6,0.3,1.2,0.7,1.8,1c-0.5,0.8-0.9,1.6-1.4,2.4 c-2-1.1-3.9-2.2-5.9-3.3c0.4-0.8,0.9-1.6,1.4-2.4c0.6,0.3,1.2,0.6,1.7,1c1.2-2.1,2.5-4.3,3.7-6.4c-1.6-0.9-3.3-1.8-5-2.7 c-1.2,2.1-2.5,4.3-3.7,6.5c0.6,0.3,1.2,0.6,1.7,0.9c-0.5,0.8-0.9,1.6-1.3,2.4C199.2,155.5,197.2,154.4,195.2,153.4z"></path> </g> </g> <g> <g> <path d="M59,159.2c-1.3,0.1-2.7,0.1-4,0.2c0.3-1.2,0.7-2.3,1-3.5c4.3-0.2,8.6-0.3,12.9-0.3c2.9,0,5.2,0.7,6.8,2 c1.7,1.5,2.1,3.3,1.4,5.5c-0.7,2.1-2.5,3.9-5.5,5.5c2.8,1.8,3.8,4.1,3,6.8c-0.8,2.6-2.4,4.6-5,6.2c-2.5,1.5-5.3,2.3-8.6,2.4 c-1.2,0.1-2.3,0.1-3.5,0.2s-4,0.2-8.4,0.6c0.2-1.2,0.4-2.3,0.7-3.5c1.3-0.1,2.5-0.2,3.8-0.3C55,173.8,56.9,166.5,59,159.2z M57.7,180.8c1.3-0.1,2.6-0.1,3.8-0.2c2.2-0.1,4-0.5,5.4-1.2c1.7-0.9,2.8-2.2,3.3-4c0.4-1.5-0.1-2.8-1.5-3.7 c-1.3-0.8-3-1.2-5.3-1.2c-1.1,0-2.2,0.1-3.4,0.1C59.3,174,58.5,177.4,57.7,180.8z M61.1,167.4c1.1,0,2.3-0.1,3.4-0.1 c1.9-0.2,3.6-0.6,5.1-1.3c1.7-0.8,2.7-1.8,3.1-3c0.6-1.8-0.3-3-2.6-3.6c-1.2-0.3-3.4-0.5-6.5-0.4 C62.7,161.8,61.9,164.6,61.1,167.4z"></path> <path d="M78.3,183.8c0.4-1.3,0.7-2.6,1.1-3.9c2.5,0.1,4.9,0.2,7.4,0.4c2.1-6.6,4.5-13.1,7.1-19.7c-2.6-0.2-5.2-0.4-7.8-0.6 c0.5-1.3,1-2.6,1.5-3.9c6.9,0.5,13.7,1.2,20.4,2.2c-0.6,1.3-1.2,2.5-1.7,3.8c-2.5-0.3-4.9-0.7-7.4-0.9c-2.7,6.5-5.2,13-7.3,19.5 c2.4,0.2,4.7,0.4,7.1,0.7c-0.5,1.3-0.9,2.5-1.3,3.8C91,184.4,84.7,184,78.3,183.8z"></path> <path d="M104.2,182.4c1.1,0.1,2.1,0.3,3.2,0.5c2.5-6.6,5.4-13.1,8.5-19.6c-1.1-0.2-2.2-0.4-3.3-0.6c0.5-1.2,1.1-2.3,1.7-3.5 c4.5,0.8,8.9,1.7,13.3,2.7c2.7,0.6,4.6,1.9,5.6,3.8s1,3.8,0,5.8c-0.9,1.7-2.4,3.1-4.5,4.1c-2.1,1-4.3,1.4-6.6,1.3 c0.2,3,0.4,6,0.6,8.9c1,0.2,2,0.5,3,0.7c-0.5,1.1-1,2.2-1.5,3.3c-1.9-0.4-3.8-0.9-5.7-1.3c-0.4-4.2-0.7-8.4-1.1-12.5 c-0.7-0.1-1.5-0.3-2.2-0.4c-1.2,2.7-2.3,5.4-3.4,8.1c1,0.2,2,0.4,3,0.5c-0.5,1.2-0.9,2.3-1.4,3.5c-3.4-0.6-6.8-1.2-10.3-1.6 C103.3,184.7,103.8,183.6,104.2,182.4z M120.3,164.1c-1.3,2.6-2.6,5.3-3.8,7.9c1.8,0.3,3.5,0.7,5.3,1.1c1.4,0.3,2.7,0.2,4.1-0.4 c1.4-0.6,2.3-1.4,2.9-2.4c0.5-1.1,0.5-2.1-0.1-3.1s-1.6-1.7-3-2C123.9,164.9,122.1,164.5,120.3,164.1z"></path> <path d="M134.1,188.7c1.2,0.4,2.5,0.7,3.7,1.1c3.1-6.2,6.6-12.3,10.3-18.4c-1.5-0.5-3-1-4.6-1.4c-0.6,1.1-1.2,2.1-1.8,3.2 c-1.4-0.4-2.8-0.8-4.2-1.2c1.2-2.2,2.4-4.3,3.7-6.5c7.4,2.1,14.5,4.6,21.5,7.3c-1.4,2-2.8,4.1-4.1,6.2c-1.3-0.5-2.7-1-4-1.5 c0.6-1,1.3-2.1,2-3.1c-1.4-0.5-2.8-1-4.3-1.5c-3.8,6-7.3,12.1-10.5,18.2c1.3,0.4,2.5,0.8,3.7,1.2c-0.6,1.1-1.2,2.2-1.7,3.2 c-3.7-1.2-7.4-2.4-11.2-3.5C133,190.9,133.6,189.8,134.1,188.7z"></path> <path d="M151.4,198.2c0.5-1,1.1-2,1.7-2.9c0.9,0.3,1.7,0.7,2.6,1c3.6-6.1,7.5-12.1,11.6-18.1c-0.9-0.4-1.8-0.8-2.8-1.2 c0.7-0.9,1.3-1.9,2-2.8c3.1,1.3,6.1,2.6,9.1,4c-0.7,0.9-1.4,1.8-2.1,2.8c-0.9-0.4-1.7-0.8-2.6-1.2c-1.8,2.5-3.5,4.9-5.2,7.4 c2.4,1,4.7,2.1,7,3.2c1.7-2.4,3.5-4.9,5.3-7.3c-0.8-0.4-1.7-0.8-2.5-1.2c0.7-0.9,1.4-1.8,2.1-2.7c3,1.4,5.9,2.9,8.8,4.4 c-0.7,0.9-1.4,1.8-2.2,2.7c-0.9-0.5-1.7-0.9-2.6-1.3c-4.4,5.7-8.6,11.5-12.4,17.3c0.8,0.4,1.6,0.8,2.5,1.2 c-0.6,0.9-1.2,1.9-1.8,2.8c-2.7-1.3-5.4-2.6-8.1-3.8c0.6-1,1.2-1.9,1.8-2.8c0.8,0.4,1.6,0.7,2.4,1.1c1.6-2.5,3.3-5,5-7.5 c-2.3-1.1-4.6-2.1-7-3.1c-1.7,2.5-3.2,5.1-4.8,7.6c0.8,0.3,1.6,0.7,2.4,1c-0.6,1-1.2,1.9-1.7,2.9 C157,200.4,154.2,199.3,151.4,198.2z"></path> <path d="M178.2,206.5c3.9-5.6,8.1-11,12.6-16.4c-1.1-0.6-2.2-1.3-3.4-1.9c0.8-1,1.6-1.9,2.4-2.9c2.8,1.5,5.5,3.1,8.2,4.7 c3.8,2.3,5.4,5.1,5.1,8.4c-0.3,2.6-1.8,5.4-4.4,8.4c-2.3,2.7-4.8,4.6-7.6,5.8c-3.5,1.5-6.7,1.4-9.7-0.3c-2.8-1.6-5.6-3.1-8.4-4.6 c0.7-1,1.4-2,2-3C176.1,205.4,177.1,205.9,178.2,206.5z M194.4,192.2c-4.5,5.3-8.8,10.7-12.8,16.2c0.6,0.3,1.2,0.7,1.8,1 c2.1,1.2,4.3,1.1,6.8-0.2c1.9-1,3.6-2.4,5.2-4.4c4.4-5.2,4.7-9.1,0.3-11.8C195.3,192.8,194.8,192.5,194.4,192.2z"></path> <path d="M201.2,221.5c-0.7,0.8-1.4,1.7-2.1,2.5c-2.1-1.5-4.2-3-6.3-4.4c0.7-0.9,1.4-1.7,2.1-2.6c0.7,0.5,1.4,1,2.1,1.4 c6.5-5.2,13.4-10.2,20.7-14.8c1.3,1,2.5,1.9,3.7,2.9c-4.7,6.6-9.1,13.4-13.3,20.2c0.7,0.5,1.3,1,1.9,1.6c-0.8,0.8-1.5,1.6-2.2,2.4 c-1.9-1.6-3.9-3.2-5.9-4.7c0.7-0.8,1.4-1.6,2.2-2.5c0.4,0.3,0.9,0.7,1.3,1c0.5-0.8,1-1.6,1.5-2.5c-1.5-1.2-3.1-2.3-4.6-3.5 c-0.8,0.6-1.6,1.2-2.4,1.8C200.3,220.8,200.8,221.1,201.2,221.5z M205,216.6c1.2,0.9,2.5,1.8,3.7,2.8c2-3.2,4-6.4,6.1-9.6 C211.4,212,208.1,214.2,205,216.6z"></path> <path d="M216,233c0.8,0.8,1.7,1.5,2.5,2.3c1.8-1.7,3.6-3.4,5.4-5.1c1.8-4.1,3.7-8.1,5.5-12.2c-0.6-0.5-1.2-1-1.7-1.6 c0.9-0.8,1.8-1.6,2.8-2.4c2.1,1.9,4.2,3.8,6.2,5.7c-1,0.8-1.9,1.5-2.8,2.3c-0.4-0.4-0.8-0.8-1.3-1.2c-1.2,2.4-2.3,4.8-3.5,7.3 c2.7-0.9,5.5-1.8,8.3-2.6c-0.4-0.4-0.8-0.8-1.2-1.2c0.9-0.8,1.9-1.5,2.9-2.2c2,2,3.9,4,5.8,6c-1,0.7-2,1.4-2.9,2.1 c-0.5-0.6-1.1-1.1-1.6-1.7c-4.8,1.3-9.4,2.8-14,4.4c-1.8,1.6-3.6,3.2-5.3,4.8c0.8,0.8,1.6,1.6,2.5,2.4c-0.9,0.8-1.7,1.6-2.6,2.4 c-2.4-2.4-4.9-4.7-7.5-7C214.3,234.7,215.1,233.9,216,233z"></path> </g> </g> </svg> 