<?xml version="1.0" encoding="UTF-8"?> <svg xmlns="http://www.w3.org/2000/svg" width="150" height="150" viewBox="0 0 150 150" fill="none"><path d="M76.7887 17.2962C66.0122 17.0322 55.3848 19.892 46.1511 25.5408C36.9171 31.1894 29.4591 39.3933 24.6503 49.1915C19.8415 58.9898 17.881 69.9766 18.9983 80.8657C20.1156 91.7547 24.2647 102.095 30.9593 110.676C32.0298 112.042 33.5296 112.995 35.208 113.375C36.8866 113.755 38.6425 113.539 40.1834 112.763L50.7457 107.51V100.745L37.5147 107.328C37.2027 107.489 36.8448 107.535 36.5033 107.455C36.1618 107.376 35.8583 107.178 35.646 106.895C27.5977 96.592 23.7353 83.5526 24.8501 70.4498C25.965 57.3471 31.9731 45.1739 41.6425 36.4263C51.312 27.6785 63.9099 23.0192 76.8537 23.4034C89.7974 23.7876 102.106 29.1862 111.256 38.4926C112.282 39.5301 113.254 40.6031 114.171 41.7115H121.713C119.851 39.0342 117.768 36.5224 115.487 34.2033C105.223 23.7004 91.3544 17.6414 76.7887 17.2962Z" fill="#E1DDFF" fill-opacity="0.6"></path><path d="M121.721 41.7572H114.164C122.127 51.2881 126.396 63.4411 126.171 75.9389C125.945 88.437 121.24 100.423 112.938 109.651C99.5504 124.303 78.9344 130.012 60.4262 124.189C60.1075 124.102 59.8262 123.91 59.6261 123.644C59.4261 123.378 59.3183 123.051 59.3199 122.716V103.251L103.968 81.0525C105.112 80.4626 106.067 79.5527 106.718 78.4303C107.37 77.3077 107.692 76.0193 107.647 74.7169C107.601 73.4145 107.19 72.1526 106.461 71.0799C105.733 70.0071 104.717 69.1683 103.535 68.6625L62.7434 48.9619L62.5788 48.8935C61.5584 48.4765 60.4528 48.3197 59.3589 48.4374C58.2651 48.555 57.2162 48.9434 56.3044 49.5682C55.3924 50.1931 54.6454 51.0356 54.1285 52.0219C53.6118 53.0079 53.3409 54.1078 53.3398 55.2251V99.4549L50.7459 100.746V107.51L53.3398 106.227V122.678C53.3386 124.31 53.8551 125.898 54.8123 127.208C55.7695 128.518 57.1168 129.48 58.6546 129.951C63.981 131.623 69.5245 132.473 75.0997 132.472C83.0257 132.456 90.8638 130.784 98.1268 127.561C105.39 124.338 111.922 119.632 117.318 113.735C126.039 104.054 131.232 91.6315 132.033 78.5356C132.834 65.4399 129.195 52.4602 121.721 41.7572ZM59.3199 55.2251C59.3199 55.0238 59.3986 54.8306 59.5387 54.6881C59.679 54.5459 59.8691 54.466 60.0674 54.466C60.1461 54.4648 60.2245 54.4777 60.2991 54.5039L101.053 74.1818L101.217 74.2577C101.353 74.3074 101.47 74.3981 101.553 74.5177C101.635 74.6372 101.68 74.7797 101.681 74.9257C101.697 75.0652 101.67 75.2063 101.605 75.33C101.539 75.4535 101.438 75.5536 101.314 75.6167L59.3199 96.4866V55.2251Z" fill="#E1DDFF"></path><path d="M75.4286 28.6228C86.9126 28.6191 97.9701 33.0417 106.368 40.9976L101.135 40.504C93.5449 34.6828 84.2532 31.6111 74.7434 31.7789C65.2334 31.9465 56.0525 35.344 48.6653 41.4293C41.2784 47.5146 36.1108 55.9371 33.9868 65.3534C31.863 74.7694 32.9052 84.6368 36.9471 93.3811C37.0373 93.5618 37.0909 93.7589 37.1049 93.9609C37.1188 94.163 37.0929 94.3657 37.0286 94.5574C36.9642 94.7491 36.8629 94.9259 36.7302 95.077C36.5977 95.2282 36.4366 95.351 36.2566 95.4382C36.0766 95.5254 35.8812 95.5748 35.682 95.5842C35.4829 95.5936 35.2839 95.5622 35.0968 95.4921C34.9096 95.4223 34.7382 95.3149 34.5926 95.1766C34.4469 95.0384 34.3299 94.8717 34.2487 94.687C30.9766 87.634 29.5108 79.8565 29.9871 72.075C30.4634 64.2935 32.8664 56.76 36.9732 50.1731C41.0799 43.586 46.7578 38.1586 53.4801 34.3941C60.2026 30.6295 67.752 28.6498 75.4286 28.638V28.6228Z" fill="#E1DDFF" fill-opacity="0.6"></path><path d="M114.942 51.8843C114.561 51.2086 114.157 50.5407 113.738 49.8877C114.164 50.5407 114.561 51.2086 114.942 51.8843Z" fill="#E1DDFF" fill-opacity="0.6"></path><path d="M53.2128 14.3508L50.5142 6.83494C50.4113 6.54265 50.2507 6.27481 50.0421 6.04788C49.8337 5.82096 49.5817 5.63972 49.3015 5.51529C49.0216 5.39088 48.7195 5.32589 48.4138 5.32437C48.1082 5.32282 47.8055 5.38477 47.5244 5.50636C44.7046 6.67163 41.9585 8.01289 39.3018 9.52245C39.0358 9.67104 38.8022 9.87296 38.6153 10.116C38.4282 10.359 38.2918 10.638 38.2142 10.9362C38.1367 11.2343 38.1196 11.5454 38.1639 11.8504C38.2082 12.1555 38.313 12.4483 38.472 12.711L42.5908 19.5436C42.8922 20.042 43.3708 20.4036 43.9274 20.5534C44.484 20.7032 45.0759 20.6298 45.5808 20.3484C47.6317 19.1875 49.7483 18.1507 51.9196 17.2433C52.4635 17.0272 52.9032 16.6041 53.1448 16.0639C53.3862 15.5236 53.4106 14.909 53.2128 14.3508Z" fill="#E1DDFF" fill-opacity="0.6"></path><path d="M69.2841 12.8247C70.4578 12.7033 71.6239 12.6198 72.7899 12.5666C73.3678 12.5411 73.9136 12.29 74.3132 11.8656C74.7129 11.4412 74.9359 10.8764 74.9354 10.2891V2.27969C74.9356 1.97211 74.8745 1.66765 74.7559 1.38469C74.637 1.10173 74.4632 0.846127 74.2445 0.633295C74.0259 0.420462 73.767 0.254813 73.4836 0.146338C73.2002 0.0378633 72.8982 -0.0111891 72.5956 0.00213952C71.1007 0.0628741 69.6056 0.16916 68.0509 0.320995C66.4959 0.472833 65.016 0.685404 63.5659 0.928343C63.2668 0.977318 62.9806 1.08729 62.7247 1.25163C62.4688 1.41596 62.2482 1.63126 62.0762 1.88453C61.9043 2.1378 61.7848 2.42379 61.7248 2.72527C61.6648 3.02674 61.6655 3.33743 61.7269 3.63862L63.2892 11.4886C63.4052 12.0631 63.735 12.57 64.2097 12.9037C64.6846 13.2375 65.2678 13.3723 65.8382 13.2802C66.9519 13.098 68.1106 12.9462 69.2841 12.8247Z" fill="#E1DDFF" fill-opacity="0.6"></path><path d="M34.1742 25.7307L29.0986 19.5813C28.9036 19.3454 28.6639 19.152 28.3934 19.0129C28.1229 18.8738 27.8276 18.7918 27.525 18.772C27.2225 18.7521 26.919 18.7947 26.6331 18.8973C26.3474 18.9999 26.085 19.1603 25.8619 19.3687C23.6153 21.4441 21.4935 23.6548 19.5081 25.9887C19.308 26.2212 19.1565 26.4926 19.0628 26.7863C18.9692 27.08 18.9353 27.39 18.9632 27.6975C18.9912 28.005 19.0804 28.3034 19.2255 28.5748C19.3706 28.8462 19.5685 29.0848 19.8072 29.2761L25.989 34.2715C26.4406 34.6341 27.0123 34.8064 27.5855 34.7527C28.1589 34.699 28.6899 34.4234 29.0686 33.983C30.6049 32.1781 32.2422 30.4646 33.9723 28.8509C34.3916 28.4553 34.6461 27.9118 34.6837 27.3315C34.7213 26.7514 34.5388 26.1786 34.1742 25.7307Z" fill="#E1DDFF" fill-opacity="0.6"></path><path d="M96.7175 14.0092L99.4158 6.47806C99.5211 6.18844 99.567 5.88015 99.5511 5.57194C99.5351 5.26372 99.4578 4.96198 99.3235 4.68509C99.1892 4.40818 99.0011 4.16187 98.7701 3.96113C98.5394 3.76037 98.2708 3.60936 97.9807 3.51725C95.0919 2.57492 92.1487 1.81429 89.1676 1.23972C88.8695 1.17989 88.5625 1.18225 88.2651 1.24666C87.9678 1.31107 87.6865 1.43619 87.4385 1.61441C87.1901 1.79264 86.9804 2.02024 86.8214 2.2834C86.6626 2.54656 86.5578 2.83979 86.514 3.14525L85.3555 11.0787C85.2648 11.659 85.3987 12.2523 85.7289 12.7347C86.0589 13.2172 86.5599 13.5514 87.1269 13.6675C89.4305 14.1195 91.7065 14.705 93.9443 15.4212C94.4965 15.5942 95.0933 15.5439 95.61 15.2808C96.1267 15.0177 96.5234 14.5621 96.7175 14.0092Z" fill="#E1DDFF" fill-opacity="0.6"></path><path d="M115.928 25.0929L121.004 18.9815C121.198 18.7456 121.344 18.4721 121.431 18.1775C121.519 17.883 121.546 17.5734 121.513 17.2676C121.479 16.9618 121.385 16.6661 121.236 16.3983C121.087 16.1305 120.886 15.8962 120.645 15.7095C118.249 13.8177 115.74 12.0784 113.133 10.5015C112.873 10.3409 112.583 10.2357 112.282 10.1923C111.98 10.149 111.674 10.1684 111.38 10.2493C111.086 10.3303 110.812 10.4711 110.573 10.6633C110.335 10.8554 110.137 11.0948 109.993 11.367L106.256 18.4122C105.981 18.9275 105.912 19.5308 106.063 20.0965C106.215 20.6621 106.576 21.1465 107.07 21.4489C109.08 22.6768 111.019 24.0202 112.878 25.4726C113.339 25.8155 113.911 25.9671 114.477 25.8966C115.044 25.826 115.563 25.5387 115.928 25.0929Z" fill="#E1DDFF" fill-opacity="0.6"></path><path d="M130.258 42.1517L137.098 38.1432C137.359 37.9875 137.587 37.7796 137.767 37.5321C137.947 37.2849 138.076 37.0029 138.146 36.7034C138.216 36.4041 138.225 36.0933 138.173 35.7903C138.122 35.487 138.01 35.1975 137.845 34.9392C136.229 32.3337 134.457 29.8313 132.538 27.4463C132.348 27.206 132.111 27.0075 131.843 26.8629C131.574 26.7183 131.28 26.6307 130.977 26.6051C130.675 26.5796 130.37 26.6168 130.082 26.7143C129.794 26.8118 129.528 26.9679 129.301 27.173L123.381 32.4872C122.949 32.8753 122.68 33.4177 122.631 34.0017C122.583 34.5856 122.757 35.1661 123.12 35.6227C124.599 37.4717 125.971 39.4057 127.231 41.4153C127.543 41.9121 128.034 42.2665 128.598 42.4039C129.163 42.5412 129.758 42.4507 130.258 42.1517Z" fill="#E1DDFF" fill-opacity="0.6"></path><path d="M20.1058 43.017L13.2587 39.0087C12.9959 38.854 12.705 38.7551 12.4035 38.7181C12.102 38.6811 11.7962 38.7068 11.5047 38.7933C11.2133 38.88 10.9421 39.0258 10.7078 39.222C10.4735 39.4182 10.2809 39.6607 10.1416 39.9347C8.72501 42.6572 7.47676 45.4665 6.4041 48.3465C6.29324 48.6345 6.24127 48.9425 6.25135 49.2514C6.26146 49.5603 6.33337 49.864 6.46276 50.1439C6.59215 50.4237 6.77628 50.674 7.00394 50.8791C7.23159 51.0844 7.49801 51.2405 7.78696 51.3378L15.262 53.8885C15.8107 54.079 16.4107 54.0465 16.9362 53.7973C17.4616 53.5482 17.8716 53.1019 18.0801 52.5523C18.9229 50.3265 19.8913 48.1515 20.9804 46.0386C21.2459 45.5175 21.3031 44.9126 21.1402 44.3497C20.9773 43.7867 20.6067 43.3093 20.1058 43.017Z" fill="#E1DDFF" fill-opacity="0.6"></path><path d="M137.965 63.1812L145.746 61.7918C146.046 61.7389 146.331 61.6245 146.586 61.4557C146.841 61.287 147.059 61.0674 147.228 60.8103C147.396 60.5531 147.511 60.2642 147.566 59.9604C147.621 59.6567 147.615 59.3447 147.548 59.0435C146.913 56.0307 146.091 53.0614 145.088 50.1535C144.991 49.8642 144.837 49.5978 144.636 49.3702C144.435 49.1426 144.19 48.9584 143.917 48.8288C143.645 48.6992 143.349 48.6265 143.048 48.6155C142.747 48.6045 142.447 48.6551 142.166 48.7643L134.81 51.7099C134.275 51.9246 133.842 52.3397 133.6 52.8694C133.358 53.3993 133.326 54.0035 133.509 54.5569C134.277 56.8097 134.913 59.1064 135.416 61.4351C135.542 62.0011 135.876 62.4971 136.349 62.8217C136.823 63.146 137.401 63.2747 137.965 63.1812Z" fill="#E1DDFF"></path><path d="M12.8848 86.5945L5.0958 87.9839C4.79627 88.0369 4.51046 88.1513 4.2558 88.32C4.00115 88.4888 3.78293 88.7084 3.61443 88.9655C3.44592 89.2223 3.33065 89.5116 3.27561 89.8153C3.2206 90.1191 3.22694 90.431 3.2943 90.7322C3.93358 93.7465 4.75491 96.7179 5.75359 99.6298C5.85171 99.9211 6.007 100.189 6.21007 100.418C6.41315 100.647 6.65982 100.831 6.93513 100.961C7.21041 101.09 7.50866 101.161 7.8118 101.169C8.11493 101.178 8.41667 101.124 8.69876 101.011L16.0766 98.0658C16.6119 97.8497 17.0447 97.4327 17.2855 96.9012C17.5263 96.3699 17.5564 95.7647 17.3698 95.2113C16.5995 92.9588 15.9605 90.6619 15.4562 88.3331C15.3286 87.7638 14.9907 87.266 14.5122 86.9424C14.0337 86.6189 13.4511 86.4945 12.8848 86.5945Z" fill="#E1DDFF" fill-opacity="0.6"></path><path d="M138.129 85.6151L145.902 87.012C146.202 87.0671 146.51 87.0593 146.807 86.9895C147.104 86.9196 147.384 86.7891 147.629 86.6058C147.875 86.4225 148.081 86.1903 148.235 85.9233C148.389 85.6564 148.488 85.3603 148.526 85.0533C148.933 82.0003 149.155 78.9249 149.192 75.8445C149.199 75.5356 149.144 75.2288 149.031 74.9421C148.917 74.6555 148.748 74.3953 148.533 74.1774C148.317 73.9594 148.061 73.7881 147.778 73.6739C147.496 73.56 147.193 73.5054 146.889 73.5136L138.988 73.7262C138.414 73.7435 137.868 73.984 137.464 74.3979C137.059 74.8118 136.826 75.3675 136.813 75.9507C136.773 78.3354 136.596 80.7157 136.282 83.0794C136.208 83.6623 136.359 84.2517 136.703 84.7242C137.047 85.1967 137.558 85.516 138.129 85.6151Z" fill="#E1DDFF"></path><path d="M130.736 106.75L137.591 110.766C137.853 110.921 138.144 111.02 138.446 111.057C138.747 111.094 139.053 111.068 139.345 110.981C139.636 110.895 139.907 110.749 140.142 110.553C140.376 110.357 140.569 110.114 140.708 109.84C142.121 107.114 143.37 104.302 144.445 101.421C144.555 101.133 144.606 100.826 144.595 100.518C144.585 100.21 144.513 99.907 144.383 99.6281C144.254 99.3492 144.07 99.0998 143.843 98.895C143.616 98.6904 143.351 98.5345 143.062 98.4372L135.588 95.8788C135.041 95.6927 134.444 95.7276 133.922 95.9765C133.4 96.2254 132.993 96.6689 132.784 97.215C131.947 99.4434 130.979 101.619 129.884 103.729C129.617 104.247 129.556 104.85 129.715 105.413C129.873 105.975 130.239 106.454 130.736 106.75Z" fill="#E1DDFF"></path><path d="M116.668 124.037L121.759 130.194C121.953 130.43 122.193 130.624 122.464 130.763C122.734 130.902 123.03 130.984 123.332 131.003C123.635 131.023 123.938 130.981 124.224 130.878C124.51 130.776 124.772 130.615 124.995 130.407C127.243 128.335 129.363 126.124 131.342 123.787C131.542 123.555 131.694 123.284 131.788 122.99C131.883 122.697 131.917 122.387 131.89 122.079C131.863 121.772 131.774 121.474 131.63 121.202C131.485 120.93 131.288 120.691 131.05 120.5L124.868 115.504C124.416 115.141 123.845 114.969 123.272 115.023C122.698 115.077 122.167 115.352 121.788 115.793C120.251 117.592 118.611 119.298 116.877 120.902C116.453 121.297 116.194 121.843 116.155 122.427C116.116 123.011 116.3 123.587 116.668 124.037Z" fill="#E1DDFF"></path><path d="M97.6295 135.402L100.343 142.994C100.446 143.285 100.608 143.553 100.817 143.779C101.025 144.005 101.278 144.185 101.558 144.309C101.838 144.432 102.139 144.497 102.445 144.498C102.75 144.499 103.052 144.437 103.333 144.315C106.155 143.154 108.901 141.813 111.555 140.299C111.822 140.15 112.055 139.948 112.242 139.705C112.429 139.462 112.565 139.183 112.643 138.885C112.72 138.587 112.737 138.276 112.693 137.971C112.649 137.666 112.544 137.373 112.385 137.11L108.244 130.278C107.943 129.779 107.464 129.418 106.907 129.268C106.351 129.118 105.759 129.191 105.254 129.473C103.203 130.631 101.086 131.665 98.9151 132.57C98.3864 132.788 97.9592 133.202 97.7204 133.728C97.4813 134.254 97.449 134.852 97.6295 135.402Z" fill="#E1DDFF"></path><path d="M75.9214 139.471V147.503C75.9212 147.811 75.9824 148.116 76.101 148.399C76.2198 148.681 76.3936 148.937 76.6124 149.15C76.8309 149.363 77.0898 149.528 77.3732 149.637C77.6566 149.745 77.9587 149.794 78.2612 149.781C79.7561 149.72 81.2513 149.614 82.806 149.462C84.3609 149.311 85.8408 149.105 87.336 148.855C87.6348 148.806 87.921 148.696 88.1769 148.532C88.4331 148.367 88.6535 148.152 88.8254 147.899C88.9973 147.646 89.1168 147.359 89.1768 147.058C89.2368 146.757 89.2361 146.446 89.1748 146.145L87.5975 138.272C87.4816 137.699 87.1528 137.193 86.6797 136.86C86.2066 136.526 85.6251 136.39 85.056 136.48C82.737 136.859 80.3984 137.1 78.0519 137.202C77.4782 137.231 76.9373 137.482 76.5408 137.905C76.1444 138.327 75.9228 138.888 75.9214 139.471Z" fill="#E1DDFF"></path><path d="M12.7056 64.1606L4.92406 62.7637C4.62473 62.7086 4.31751 62.7161 4.02109 62.7855C3.72464 62.8549 3.44522 62.9847 3.19978 63.1673C2.95433 63.3497 2.74802 63.581 2.59341 63.8472C2.43877 64.1132 2.33906 64.4083 2.30032 64.7149C1.89361 67.7704 1.67143 70.8482 1.63505 73.9314C1.62887 74.2394 1.68431 74.5455 1.79802 74.8312C1.91173 75.1169 2.08133 75.3761 2.29657 75.5934C2.51181 75.8107 2.76819 75.9811 3.05024 76.0947C3.33226 76.2084 3.63406 76.2628 3.93736 76.2543L11.8385 76.0495C12.4151 76.034 12.9637 75.7933 13.3702 75.3778C13.7767 74.962 14.0098 74.4032 14.0211 73.8175C14.0566 71.4356 14.2289 69.0579 14.5369 66.6963C14.6112 66.1155 14.4623 65.5282 14.1213 65.0559C13.7802 64.5839 13.2732 64.2632 12.7056 64.1606Z" fill="#E1DDFF" fill-opacity="0.6"></path><path d="M120.989 74.8957C120.987 68.5266 119.688 62.2266 117.171 56.3927C114.655 50.5589 110.976 45.3173 106.368 40.9983L101.135 40.4972C108.231 45.9668 113.457 53.5601 116.078 62.2069C118.698 70.8537 118.58 80.1176 115.741 88.6929C112.901 97.268 107.483 104.722 100.251 110.003C93.0185 115.285 84.3365 118.128 75.4285 118.131C74.1203 118.131 72.7599 118.063 71.3695 117.934C71.1732 117.915 70.9754 117.936 70.7869 117.996C70.5985 118.055 70.4236 118.151 70.272 118.279C70.1204 118.407 69.9949 118.564 69.903 118.741C69.8112 118.918 69.7544 119.112 69.7364 119.312C69.7182 119.511 69.7389 119.712 69.7971 119.903C69.8555 120.095 69.9503 120.272 70.0763 120.426C70.2023 120.581 70.3569 120.708 70.5314 120.801C70.7059 120.894 70.8967 120.952 71.0931 120.971C72.588 121.115 74.0308 121.183 75.4285 121.183C87.5114 121.173 99.0962 116.293 107.639 107.614C116.181 98.9348 120.983 87.1673 120.989 74.8957Z" fill="#E1DDFF"></path></svg> 