<?xml version="1.0" encoding="UTF-8"?>
<svg version="1.1" xmlns="http://www.w3.org/2000/svg" width="1200" height="800">
<path d="M0 0 C0.85770996 0.21076172 1.71541992 0.42152344 2.59912109 0.63867188 C30.24211783 7.62874609 61.17235699 19.53010656 77.5 44.4140625 C82.55953436 53.13648892 85.16521271 60.54327807 85.11352539 70.63598633 C85.11367142 71.38774139 85.11381744 72.13949646 85.1139679 72.91403198 C85.11327395 75.38672826 85.1055059 77.85934821 85.09765625 80.33203125 C85.09579023 82.05124368 85.09436719 83.77045665 85.09336853 85.4896698 C85.08955786 90.00566079 85.07973997 94.52161942 85.06866455 99.03759766 C85.05841924 103.64940961 85.05386423 108.26122681 85.04882812 112.87304688 C85.03811638 121.91537877 85.0210574 130.95768669 85 140 C85.74752029 140.06335037 86.49504059 140.12670074 87.26521301 140.19197083 C88.24995102 140.27791 89.23468903 140.36384918 90.24926758 140.45239258 C91.22366287 140.53636795 92.19805817 140.62034332 93.20198059 140.7068634 C126.252751 144.16945209 157.97317998 164.78997841 178.65234375 190.015625 C203.16801722 221.42445849 213.10561922 259.64444662 208.50390625 299.18359375 C204.67570403 324.87982461 192.96454873 349.44595068 176 369 C175.26910156 369.85207031 174.53820312 370.70414063 173.78515625 371.58203125 C150.83481216 397.74934664 117.0363274 414.89069572 82.25683594 417.25439453 C42.44831905 418.86144552 6.52751604 408.57447007 -23.3125 381.375 C-25.21839312 379.59366715 -27.10889112 377.79710639 -29 376 C-29.63421875 375.43023438 -30.2684375 374.86046875 -30.921875 374.2734375 C-48.74943148 357.71927791 -61.68787823 331.75449537 -66 308 C-66 306.68 -66 305.36 -66 304 C-67.05574219 303.96261719 -68.11148438 303.92523438 -69.19921875 303.88671875 C-95.86281414 302.78057372 -123.69320801 298.43350843 -148 287 C-148.95640381 286.5656665 -148.95640381 286.5656665 -149.93212891 286.12255859 C-169.82220651 277.05283668 -188.32113407 264.19511537 -197.0657959 243.38134766 C-199.83189502 235.62801477 -199.56088678 227.88089692 -199.51757812 219.76953125 C-199.52300786 218.05178232 -199.53013527 216.33403805 -199.53881836 214.61630249 C-199.55695353 209.97988192 -199.55002498 205.34381996 -199.53730202 200.70739365 C-199.52712325 195.83852982 -199.53658117 190.9696952 -199.54284668 186.10083008 C-199.55010894 177.92686492 -199.54057277 169.75304468 -199.52148438 161.57910156 C-199.49971839 152.15012275 -199.50677077 142.72149 -199.52879 133.29251957 C-199.54698458 125.17411636 -199.54948252 117.05581689 -199.53903532 108.93739986 C-199.53282266 104.09864066 -199.53190311 99.26004373 -199.54518127 94.42129517 C-199.55679842 89.8705704 -199.54860776 85.32028864 -199.52560425 80.76961136 C-199.52034832 79.10684568 -199.52177706 77.44404225 -199.53065491 75.78129196 C-199.61365002 58.64774576 -194.93479537 46.04617683 -183 33.4375 C-138.41726852 -9.14627749 -56.61049703 -14.03929965 0 0 Z M-83.375 2.8125 C-84.56766479 2.94180908 -84.56766479 2.94180908 -85.78442383 3.07373047 C-93.28796811 3.93799737 -100.63196091 5.3479733 -108 7 C-106.40193652 13.08882416 -103.1388717 18.0664755 -99.875 23.375 C-99.31167969 24.30183594 -98.74835938 25.22867188 -98.16796875 26.18359375 C-96.78393957 28.45903155 -95.39451078 30.7309763 -94 33 C-93.29351318 32.8669043 -92.58702637 32.73380859 -91.85913086 32.59667969 C-81.64341358 30.70455374 -71.34164786 29.9280966 -61 29 C-61 20.09 -61 11.18 -61 2 C-72.24982476 1.97999342 -72.24982476 1.97999342 -83.375 2.8125 Z M-53 2 C-53 10.91 -53 19.82 -53 29 C-49.761875 29.28875 -46.52375 29.5775 -43.1875 29.875 C-35.71394423 30.56426378 -28.34068307 31.38401825 -21 33 C-17.18026871 27.47262414 -13.60517128 21.80770857 -10.125 16.0625 C-9.71967041 15.39984131 -9.31434082 14.73718262 -8.89672852 14.05444336 C-6.73140584 10.76102571 -6.73140584 10.76102571 -6 7 C-14.35989235 5.10002447 -22.65811844 3.68102287 -31.1875 2.8125 C-31.98124023 2.72887207 -32.77498047 2.64524414 -33.59277344 2.55908203 C-40.14065085 1.93643111 -46.3415521 2 -53 2 Z M2 9 C0.15650325 11.37320217 0.15650325 11.37320217 -1.57421875 14.46875 C-2.24130859 15.59667969 -2.90839844 16.72460938 -3.59570312 17.88671875 C-4.29320754 19.09100756 -4.99047004 20.29543652 -5.6875 21.5 C-6.39547119 22.70502292 -7.10444331 23.90945838 -7.81445312 25.11328125 C-9.55292892 28.06987273 -11.28085231 31.03214173 -13 34 C-10.60993116 36.51772072 -8.86547064 37.57566259 -5.5625 38.6875 C0.93143768 41.13351789 6.3649843 45.01095108 12 49 C17.3090193 45.54396633 22.40366829 41.82332332 27.5 38.0625 C28.32886719 37.45470703 29.15773438 36.84691406 30.01171875 36.22070312 C34.46252717 32.94097387 38.79873228 29.59426638 43 26 C39.30774229 21.39775243 34.36375708 19.69572904 29.0625 17.5 C28.1255127 17.10562744 27.18852539 16.71125488 26.22314453 16.30493164 C14.47468926 11.09210194 14.47468926 11.09210194 2 9 Z M-149.75 20.3125 C-150.47010254 20.64958984 -151.19020508 20.98667969 -151.93212891 21.33398438 C-155.61671591 22.94630732 -155.61671591 22.94630732 -158 26 C-157.35675781 26.46148437 -156.71351563 26.92296875 -156.05078125 27.3984375 C-150.14793732 31.6592635 -144.34204112 36.01908072 -138.58642578 40.47558594 C-134.78582598 43.41256987 -130.93880864 46.25199397 -127 49 C-126.36835938 48.56429687 -125.73671875 48.12859375 -125.0859375 47.6796875 C-117.68660796 42.75390905 -110.22707187 39.27881842 -102 36 C-102.92655038 29.77417021 -106.20618692 25.02462807 -109.375 19.6875 C-109.96539062 18.66076172 -110.55578125 17.63402344 -111.1640625 16.57617188 C-111.73640625 15.60615234 -112.30875 14.63613281 -112.8984375 13.63671875 C-113.42099121 12.74686279 -113.94354492 11.85700684 -114.48193359 10.94018555 C-114.98289551 10.29992432 -115.48385742 9.65966309 -116 9 C-127.04740677 9 -139.88893935 15.67855098 -149.75 20.3125 Z M-178.484375 40.40625 C-186.3444129 48.74105529 -189.50717489 55.78228702 -192 67 C-173.85 67 -155.7 67 -137 67 C-132.75240622 58.17607048 -132.75240622 58.17607048 -133 53 C-134.56079168 51.29889322 -134.56079168 51.29889322 -136.734375 49.86328125 C-137.92945679 49.00307373 -137.92945679 49.00307373 -139.14868164 48.12548828 C-140.43633423 47.22805908 -140.43633423 47.22805908 -141.75 46.3125 C-143.49389657 45.06697589 -145.23738607 43.82088163 -146.98046875 42.57421875 C-148.2651001 41.66422119 -148.2651001 41.66422119 -149.57568359 40.73583984 C-153.74414605 37.75117035 -157.78874562 34.60755948 -161.84765625 31.4765625 C-167.67279831 27.48036704 -174.40757746 36.45765364 -178.484375 40.40625 Z M43.6875 34.375 C38.59815969 38.76807102 33.32022707 42.7512368 27.80932617 46.59912109 C24.43861485 48.95465232 21.18205949 51.39487466 18 54 C18.268125 54.66 18.53625 55.32 18.8125 56 C20.25648851 59.64797099 21.62241448 63.32643861 23 67 C40.82 67 58.64 67 77 67 C75.01220322 51.0976258 66.3194437 40.80401177 53.9453125 31.1796875 C49.36138898 28.39987846 47.18408306 31.29952099 43.6875 34.375 Z M-127 60 C-130.10542471 64.21637947 -130.48726915 68.57055824 -129.71875 73.64453125 C-128.40935907 77.93563306 -125.97568171 81.66123777 -123 85 C-122.34 85 -121.68 85 -121 85 C-121 85.66 -121 86.32 -121 87 C-110.29093018 94.92145945 -97.80728211 99.00932656 -85 102 C-84.08605469 102.2165625 -83.17210937 102.433125 -82.23046875 102.65625 C-54.85929312 108.37434506 -22.72275716 104.90626776 1.53125 90.49609375 C7.87034005 86.02215904 14.57499573 80.01252419 15.9765625 72.0703125 C16.04843249 65.72179629 13.18612137 60.23313899 8.9140625 55.6875 C-24.00690031 26.66330422 -97.16399914 27.29012865 -127 60 Z M-192 74 C-188.43016853 90.06424162 -179.78852278 101.87184386 -166 111 C-162.80345451 109.51903168 -160.08516726 107.71175354 -157.25 105.625 C-155.81914062 104.573125 -155.81914062 104.573125 -154.359375 103.5 C-149.68939287 100.03315124 -145.03884446 96.54003094 -140.39550781 93.03759766 C-139.73905273 92.54308105 -139.08259766 92.04856445 -138.40625 91.5390625 C-137.82166016 91.09771973 -137.23707031 90.65637695 -136.63476562 90.20166016 C-135.12183304 89.08955529 -133.5623375 88.04155834 -132 87 C-132.268125 86.34 -132.53625 85.68 -132.8125 85 C-134.25648851 81.35202901 -135.62241448 77.67356139 -137 74 C-155.15 74 -173.3 74 -192 74 Z M23 74 C17.14507426 83.56930794 17.14507426 83.56930794 19 88 C20.4046155 89.36340675 20.4046155 89.36340675 22.17578125 90.6015625 C22.83344482 91.0877002 23.4911084 91.57383789 24.16870117 92.07470703 C24.87615479 92.58630371 25.5836084 93.09790039 26.3125 93.625 C27.77362637 94.69765944 29.23456207 95.77057866 30.6953125 96.84375 C31.42266602 97.37484375 32.15001953 97.9059375 32.89941406 98.453125 C34.80182449 99.85406322 36.6829899 101.27716744 38.5546875 102.71875 C39.58851563 103.5128125 40.62234375 104.306875 41.6875 105.125 C42.59886719 105.82882812 43.51023437 106.53265625 44.44921875 107.2578125 C46.91207549 108.93994742 49.19357183 110.0190143 52 111 C62.93971397 102.63324752 73.55242846 92.91083061 77 79 C77 77.35 77 75.7 77 74 C59.18 74 41.36 74 23 74 Z M-130.83203125 94.74609375 C-132.02252075 95.62563721 -132.02252075 95.62563721 -133.23706055 96.52294922 C-134.08695557 97.15475098 -134.93685059 97.78655273 -135.8125 98.4375 C-136.66948486 99.07187988 -137.52646973 99.70625977 -138.40942383 100.35986328 C-144.95959311 105.21325377 -151.49220648 110.08992824 -158 115 C-154.8533032 117.59153669 -151.71876469 119.09937173 -147.94921875 120.62890625 C-146.77552734 121.10650391 -145.60183594 121.58410156 -144.39257812 122.07617188 C-143.16990234 122.56666016 -141.94722656 123.05714844 -140.6875 123.5625 C-138.87088867 124.3040332 -138.87088867 124.3040332 -137.01757812 125.06054688 C-126.24914429 130.31136529 -126.24914429 130.31136529 -115 130 C-113.02719582 127.66247903 -113.02719582 127.66247903 -111.44921875 124.65234375 C-110.83369141 123.57275391 -110.21816406 122.49316406 -109.58398438 121.38085938 C-108.95814453 120.24455078 -108.33230469 119.10824219 -107.6875 117.9375 C-107.04232422 116.79732422 -106.39714844 115.65714844 -105.73242188 114.48242188 C-104.13985211 111.66298355 -102.56330998 108.83573478 -101 106 C-103.86353048 104.09097968 -106.36404287 103.03433564 -109.5625 101.8125 C-114.98263862 99.61015657 -119.46289135 96.85152146 -124.13671875 93.35546875 C-127.24701762 91.09284043 -127.90167405 92.57517726 -130.83203125 94.74609375 Z M12 92 C10.67548828 92.90492188 10.67548828 92.90492188 9.32421875 93.828125 C2.14261581 98.64231002 -4.61960548 102.55429303 -13 105 C-11.62938601 108.66942861 -9.96645212 111.93859497 -7.9609375 115.30078125 C-7.38085938 116.27724609 -6.80078125 117.25371094 -6.203125 118.25976562 C-5.59984375 119.26716797 -4.9965625 120.27457031 -4.375 121.3125 C-3.76398438 122.33923828 -3.15296875 123.36597656 -2.5234375 124.42382812 C-1.01880606 126.95113875 0.4890994 129.47643399 2 132 C16.36510539 128.1299778 30.15721825 123.67301791 43 116 C38.75665995 111.51005301 34.06994712 107.77371635 29.1875 104 C28.41857422 103.39671875 27.64964844 102.7934375 26.85742188 102.171875 C22.0688269 98.45414725 17.1940025 95.12706194 12 92 Z M77 95 C76.14060634 96.12641955 75.3138578 97.27775263 74.5 98.4375 C70.49751152 103.84756218 65.80684105 109.75988312 59.94628906 113.20849609 C55.4775887 115.93830378 55.4775887 115.93830378 53.35791016 120.54052734 C53.21217148 123.53353947 53.30082548 126.38341637 53.5 129.375 C53.665 132.88125 53.83 136.3875 54 140 C61.92 139.67 69.84 139.34 78 139 C78 124.48 78 109.96 78 95 C77.67 95 77.34 95 77 95 Z M-192 96 C-192.07493936 100.37415276 -192.12896881 104.74795155 -192.16479492 109.12255859 C-192.17975184 110.60634889 -192.20012495 112.09009599 -192.22631836 113.57373047 C-192.47943655 128.29429041 -190.36747603 140.16580318 -180.01171875 151.296875 C-177.09703217 154.31031244 -174.16195006 157.24512735 -171 160 C-170.34 160 -169.68 160 -169 160 C-168.77678787 154.00456026 -168.61387618 148.01155825 -168.50561523 142.01293945 C-168.46047316 139.97475034 -168.39914031 137.93685082 -168.32104492 135.8996582 C-167.39632451 124.53281703 -167.39632451 124.53281703 -170.91381836 114.17016602 C-173.21736219 112.38035033 -175.35301166 111.20007253 -178 110 C-182.80258012 106.40080512 -186.39396325 102.4535391 -189.8359375 97.5390625 C-190.22007812 97.03117187 -190.60421875 96.52328125 -191 96 C-191.33 96 -191.66 96 -192 96 Z M-94 108 C-96.12721665 111.58202182 -98.251386 115.16584135 -100.375 118.75 C-101.27992188 120.27367187 -101.27992188 120.27367187 -102.203125 121.828125 C-102.78320312 122.8078125 -103.36328125 123.7875 -103.9609375 124.796875 C-104.49509277 125.69760742 -105.02924805 126.59833984 -105.57958984 127.52636719 C-106.80139862 129.6541373 -107.93204705 131.791996 -109 134 C-100.28210745 135.65529605 -91.56705515 137.16448449 -82.75 138.1875 C-82.06760254 138.27112793 -81.38520508 138.35475586 -80.68212891 138.44091797 C-74.03228399 139.16934621 -67.81768732 139 -61 139 C-61 130.09 -61 121.18 -61 112 C-68.86716051 111.0575139 -68.86716051 111.0575139 -76.734375 110.11547852 C-82.49153234 109.42519759 -88.24725263 108.72614336 -94 108 Z M-28.1953125 108.62109375 C-28.99453125 108.75193359 -29.79375 108.88277344 -30.6171875 109.01757812 C-32.26562797 109.29360204 -33.91406556 109.56964319 -35.5625 109.84570312 C-36.36945313 109.97783203 -37.17640625 110.10996094 -38.0078125 110.24609375 C-38.72598145 110.36654053 -39.44415039 110.4869873 -40.18408203 110.61108398 C-44.44066256 111.19897481 -48.72433857 111.57243386 -53 112 C-53 120.91 -53 129.82 -53 139 C-43.63067295 139.07334111 -43.63067295 139.07334111 -34.45703125 138.4140625 C-33.36326172 138.28773438 -32.26949219 138.16140625 -31.14257812 138.03125 C-30.04365234 137.8971875 -28.94472656 137.763125 -27.8125 137.625 C-26.70197266 137.49867188 -25.59144531 137.37234375 -24.44726562 137.2421875 C-18.18563206 136.50160399 -12.1274787 135.4881944 -6 134 C-7.34211975 130.444218 -8.92244697 127.20894833 -10.8203125 123.91796875 C-11.35527344 122.98662109 -11.89023437 122.05527344 -12.44140625 121.09570312 C-13.27478516 119.65614258 -13.27478516 119.65614258 -14.125 118.1875 C-14.68832031 117.20845703 -15.25164062 116.22941406 -15.83203125 115.22070312 C-17.21844415 112.81210445 -18.60785055 110.40528605 -20 108 C-22.95040989 108 -25.33636601 108.14158075 -28.1953125 108.62109375 Z M-161 123 C-161.19798642 129.03211308 -161.34303077 135.06233101 -161.43945312 141.09692383 C-161.4796489 143.14869123 -161.53421767 145.20022998 -161.60351562 147.2512207 C-161.70074752 150.20320973 -161.74596217 153.1521691 -161.78125 156.10546875 C-161.82254028 157.02023483 -161.86383057 157.93500092 -161.90637207 158.87748718 C-161.90820162 161.4829701 -161.82284738 163.52549585 -161 166 C-158.60611466 168.32251504 -156.0235725 169.64603802 -153 171 C-151.25009766 171.91265625 -151.25009766 171.91265625 -149.46484375 172.84375 C-139.29468723 177.61910588 -129.06551193 181.78689761 -118 184 C-118 169.15 -118 154.3 -118 139 C-121.609375 137.845 -125.21875 136.69 -128.9375 135.5 C-138.29647758 132.44525832 -147.13689385 128.88235277 -155.9296875 124.46875 C-158.73344275 122.85615443 -158.73344275 122.85615443 -161 123 Z M37.5 126.625 C29.23819275 130.62365415 20.82343761 133.64092489 12.0637207 136.34912109 C9.36532264 137.20017152 6.68422709 138.10525764 4 139 C4 144.61 4 150.22 4 156 C6.31 154.948125 8.62 153.89625 11 152.8125 C22.63212387 147.64440524 34.70746736 144.24386278 47 141 C47 135.06 47 129.12 47 123 C43.53934151 123 40.5577723 125.11262671 37.5 126.625 Z M-111 141 C-111 155.85 -111 170.7 -111 186 C-92.43975347 189.37459028 -79.47231403 191 -61 191 C-61 176.15 -61 161.3 -61 146 C-67.6 145.67 -74.2 145.34 -81 145 C-85.89054592 144.38652598 -90.70780308 143.73766263 -95.5625 142.9375 C-97.87603491 142.56992903 -100.18982532 142.20396138 -102.50390625 141.83984375 C-103.49205322 141.67863037 -104.4802002 141.51741699 -105.49829102 141.35131836 C-108.07409874 140.93046661 -108.07409874 140.93046661 -111 141 Z M-11.49609375 141.83984375 C-13.17348633 142.1037793 -13.17348633 142.1037793 -14.88476562 142.37304688 C-17.18788772 142.73896347 -19.49005158 143.11098404 -21.79101562 143.49023438 C-32.32273449 145.12744336 -42.15501968 145.45775098 -53 146 C-53 160.85 -53 175.7 -53 191 C-39.20374572 192.45718501 -39.20374572 192.45718501 -33.96484375 188.10546875 C-32.91517231 186.83184757 -31.90635945 185.52362589 -30.9375 184.1875 C-29.79788189 182.80129594 -28.64923682 181.42246927 -27.4921875 180.05078125 C-26.92209961 179.3645166 -26.35201172 178.67825195 -25.76464844 177.97119141 C-22.99662951 174.87919019 -19.8617073 172.37606194 -16.5625 169.875 C-16.00747803 169.45114014 -15.45245605 169.02728027 -14.88061523 168.59057617 C-14.07539429 167.98499878 -14.07539429 167.98499878 -13.25390625 167.3671875 C-12.72885498 166.97007568 -12.20380371 166.57296387 -11.6628418 166.16381836 C-10 165 -10 165 -8.05004883 163.93188477 C-6.03251073 162.75938347 -4.53664595 161.76168934 -3 160 C-2.15887739 156.68610341 -2.33237505 153.57868188 -2.5625 150.1875 C-2.59408203 149.30384766 -2.62566406 148.42019531 -2.65820312 147.50976562 C-2.74036258 145.3384086 -2.86591511 143.16876987 -3 141 C-5.9577368 141 -8.5794584 141.36400296 -11.49609375 141.83984375 Z M46 149 C47.39822859 157.98950542 49.1861515 166.86283797 51.125 175.75 C51.40214844 177.03132813 51.67929687 178.31265625 51.96484375 179.6328125 C52.64070656 182.75576478 53.31913377 185.87813547 54 189 C54.56195068 188.9292627 55.12390137 188.85852539 55.70288086 188.78564453 C60.67749754 188.19105218 65.54476857 187.86435794 70.5625 187.875 C71.78066406 187.87242187 72.99882813 187.86984375 74.25390625 187.8671875 C78.23755542 188.00842219 82.05427645 188.45065064 86 189 C89.48397694 175.76478032 92.2790172 162.41007821 95 149 C86.64327125 146.83913773 78.53289913 146.69911456 69.9375 146.75 C67.97200195 146.73839844 67.97200195 146.73839844 65.96679688 146.7265625 C58.99051181 146.74062051 52.73226005 147.14180774 46 149 Z M-192 148 C-192.07493936 152.37415276 -192.12896881 156.74795155 -192.16479492 161.12255859 C-192.17975184 162.60634889 -192.20012495 164.09009599 -192.22631836 165.57373047 C-192.41417248 176.49873693 -191.91264572 186.04199928 -185.9375 195.5625 C-185.43089844 196.38878906 -184.92429687 197.21507812 -184.40234375 198.06640625 C-183.13726985 200.12365295 -183.13726985 200.12365295 -181 201 C-180.77593364 195.34433525 -180.61348478 189.69130248 -180.50561523 184.03222656 C-180.46061382 182.11152095 -180.39938731 180.19111915 -180.32104492 178.27148438 C-179.46630855 165.03315779 -179.46630855 165.03315779 -185.41015625 153.8046875 C-186.89824203 152.48758972 -188.42155348 151.20733277 -190 150 C-190.66 149.34 -191.32 148.68 -192 148 Z M-9 173 C-7.52920916 176.24460895 -5.68575824 178.80554495 -3.4375 181.5625 C-2.72722656 182.43648437 -2.01695312 183.31046875 -1.28515625 184.2109375 C-0.53105469 185.13132812 0.22304688 186.05171875 1 187 C1.76441406 187.94101562 2.52882813 188.88203125 3.31640625 189.8515625 C7.47648613 194.96191443 11.6843246 200.02037454 16 205 C16.825 204.49210937 17.65 203.98421875 18.5 203.4609375 C25.75206839 199.10587344 32.88002336 195.63537539 40.93164062 192.99169922 C42.65021306 192.40729909 44.33025095 191.7120062 46 191 C47.35974398 186.92076807 46.27179039 183.68552093 45.34765625 179.61328125 C45.16867294 178.79627243 44.98968964 177.97926361 44.80528259 177.13749695 C44.23172256 174.52747515 43.64725744 171.9200335 43.0625 169.3125 C42.67180561 167.54377877 42.28182279 165.77490021 41.89257812 164.00585938 C40.93663374 159.6687038 39.97090192 155.33383066 39 151 C22.6227055 151 3.57357516 163.39218213 -9 173 Z M102 151 C100.82922756 155.88996557 99.67200823 160.78286918 98.52709961 165.67895508 C98.13593238 167.34323803 97.74110962 169.00666629 97.3425293 170.66918945 C96.7694353 173.06244716 96.20966454 175.45849548 95.65234375 177.85546875 C95.38211647 178.96513252 95.38211647 178.96513252 95.10643005 180.09721375 C94.21531832 183.99188979 93.54320355 187.19942935 95 191 C97.47558709 192.1977654 99.64549112 193.0241049 102.25 193.8125 C110.31716254 196.51066344 116.95517245 200.24715402 124 205 C127.82445561 201.27342808 131.35392153 197.37908192 134.8125 193.3125 C135.33368408 192.70108154 135.85486816 192.08966309 136.3918457 191.4597168 C144.40999178 182.94727303 144.40999178 182.94727303 150 173 C127.70191369 157.54050579 127.70191369 157.54050579 102 151 Z M-173 168 C-173.24833166 173.83464789 -173.42915883 179.66618608 -173.54931641 185.50488281 C-173.59942399 187.48784996 -173.66753548 189.47045093 -173.75439453 191.45214844 C-174.61776206 202.67273256 -174.61776206 202.67273256 -171.08325195 212.93554688 C-168.49259049 215.08052223 -166.02357008 216.53711647 -163 218 C-162.14599609 218.49951172 -161.29199219 218.99902344 -160.41210938 219.51367188 C-157.95856998 220.93615191 -155.4725286 222.22948921 -152.9375 223.5 C-152.08478516 223.94085938 -151.23207031 224.38171875 -150.35351562 224.8359375 C-146.8417877 226.97235973 -146.8417877 226.97235973 -143 228 C-143 213.15 -143 198.3 -143 183 C-147.62 181.02 -152.24 179.04 -157 177 C-159.69745274 175.41923468 -162.21100479 173.90229665 -164.75 172.125 C-168.55238973 169.16337813 -168.55238973 169.16337813 -173 168 Z M-24.55322266 186.51513672 C-33.04914106 195.23470738 -39.64807836 205.6800878 -46 216 C-41.23141058 220.39539547 -35.56289806 222.78928388 -29.75 225.5 C-28.75097656 225.97308594 -27.75195312 226.44617188 -26.72265625 226.93359375 C-20.85082719 229.70448302 -14.9469037 232.39426316 -9 235 C-8.46282349 234.03271973 -8.46282349 234.03271973 -7.91479492 233.04589844 C-3.46792622 225.1302533 2.36081958 216.09278695 10 211 C8.65303168 208.08324748 7.11555313 205.74064765 5.05859375 203.27734375 C4.47875732 202.57859131 3.8989209 201.87983887 3.30151367 201.15991211 C2.68638916 200.42651611 2.07126465 199.69312012 1.4375 198.9375 C0.1716354 197.41686609 -1.09398924 195.89603239 -2.359375 194.375 C-2.97876953 193.6325 -3.59816406 192.89 -4.23632812 192.125 C-7.33987663 188.3856193 -10.38118041 184.59605468 -13.42578125 180.80859375 C-14.20501953 179.91333984 -14.20501953 179.91333984 -15 179 C-18.24454082 179 -22.33673227 184.36929743 -24.55322266 186.51513672 Z M156 179 C149.54694263 185.61658514 143.66821889 192.70728126 138 200 C137.32324219 200.86625 136.64648438 201.7325 135.94921875 202.625 C134.29502987 204.74660498 132.64524868 206.87145952 131 209 C132.38972246 212.19845671 133.97459224 214.06418136 136.5625 216.375 C142.17645289 221.7932371 145.97986952 228.37422939 150 235 C162.19424053 229.33791027 174.17754579 223.40319863 186 217 C180.47525184 202.1072006 168.50760803 189.62398813 157 179 C156.67 179 156.34 179 156 179 Z M-135 187 C-135 201.52 -135 216.04 -135 231 C-128.09653644 233.76138543 -121.77696612 236.02760339 -114.625 237.6875 C-113.7690625 237.89955078 -112.913125 238.11160156 -112.03125 238.33007812 C-105.2135338 239.94292591 -99.15593164 240.40367236 -92 241 C-92 226.48 -92 211.96 -92 197 C-96.17489686 195.80717233 -100.14615837 194.6952523 -104.36328125 193.81640625 C-105.33330078 193.61080078 -106.30332031 193.40519531 -107.30273438 193.19335938 C-109.2972354 192.77530368 -111.29202453 192.35861998 -113.28710938 191.94335938 C-118.93758369 190.74296079 -124.43354578 189.34748885 -129.93041992 187.56616211 C-132.1246754 186.86806585 -132.1246754 186.86806585 -135 187 Z M27 207 C26.12730469 207.50660156 25.25460937 208.01320313 24.35546875 208.53515625 C4.90829182 220.7620153 -6.64829037 240.01682353 -12 262 C-12.19464844 262.76699219 -12.38929688 263.53398437 -12.58984375 264.32421875 C-15.83487964 285.49421481 -10.86739271 307.73283475 1.08984375 325.4453125 C16.29446883 345.78033254 36.03156584 357.992564 61.1875 361.6875 C84.02410895 363.55935319 103.44637753 357.00487556 122 344 C123.18529297 343.18595703 123.18529297 343.18595703 124.39453125 342.35546875 C124.92433594 341.90816406 125.45414063 341.46085938 126 341 C126 340.34 126 339.68 126 339 C127.32 338.34 128.64 337.68 130 337 C130 336.34 130 335.68 130 335 C130.66 335 131.32 335 132 335 C146.75775259 318.83383119 154.19204487 297.72240897 154 276 C152.65055918 255.53002076 145.77932294 237.23831007 132 222 C131.36320313 221.29359375 130.72640625 220.5871875 130.0703125 219.859375 C115.22382736 204.23777216 94.35532958 195.26264 72.89990234 194.70703125 C55.91008137 194.55704387 41.67033135 198.48216004 27 207 Z M-84 198 C-84 212.52 -84 227.04 -84 242 C-81.76352369 243.11823815 -80.35108471 243.19396061 -77.8671875 243.31640625 C-77.06152344 243.35830078 -76.25585938 243.40019531 -75.42578125 243.44335938 C-74.16314453 243.50233398 -74.16314453 243.50233398 -72.875 243.5625 C-71.60076172 243.62727539 -71.60076172 243.62727539 -70.30078125 243.69335938 C-68.20071777 243.79954236 -66.10038052 243.90028497 -64 244 C-63.84031738 243.46334717 -63.68063477 242.92669434 -63.51611328 242.3737793 C-58.79946096 226.78565711 -52.39891507 212.92784911 -44 199 C-48.04148012 198.82860405 -52.08320532 198.66379672 -56.125 198.5 C-57.24777344 198.45230469 -58.37054687 198.40460938 -59.52734375 198.35546875 C-61.21923828 198.28779297 -61.21923828 198.28779297 -62.9453125 198.21875 C-63.96125488 198.17685547 -64.97719727 198.13496094 -66.02392578 198.09179688 C-72.01443232 197.95349217 -78.00789713 198 -84 198 Z M-192 201 C-192.10044978 205.17677912 -192.17219399 209.35287985 -192.21972656 213.53051758 C-192.23958394 214.945356 -192.26667966 216.36011531 -192.30175781 217.7746582 C-192.68205128 233.52887442 -189.4430425 245.70124373 -178.6875 257.546875 C-175.2957307 261.05021566 -172.41867009 263.90241671 -168 266 C-167.65127324 260.07815977 -167.39877507 254.16239649 -167.23095703 248.23266602 C-167.16096741 246.22119001 -167.06572468 244.21041583 -166.94384766 242.20141602 C-165.9143512 231.18007838 -165.9143512 231.18007838 -169.33370972 221.06069946 C-172.58423482 217.7587278 -176.28844101 215.48420422 -180.27146912 213.17341614 C-184.1139505 210.5649411 -186.65195962 206.68548775 -189.42578125 203.01953125 C-189.94527344 202.35308594 -190.46476562 201.68664062 -191 201 C-191.33 201 -191.66 201 -192 201 Z M-50 224 C-56.87552616 240.82212066 -61.29741272 257.72564039 -61 276 C-55.32154468 275.88207014 -49.64327605 275.75784597 -43.96508789 275.62768555 C-42.03185815 275.58426959 -40.09858841 275.54259958 -38.1652832 275.50268555 C-35.39261798 275.44514369 -32.62015543 275.3814038 -29.84765625 275.31640625 C-28.97786636 275.29969376 -28.10807648 275.28298126 -27.21192932 275.26576233 C-23.28884034 275.54973787 -23.28884034 275.54973787 -20 274 C-19.72050355 271.83694055 -19.47784749 269.6691081 -19.25 267.5 C-18.22152615 258.68218999 -15.7033063 250.42977577 -13 242 C-17.36372083 238.9649546 -21.79311627 236.46263704 -26.5625 234.125 C-27.60108154 233.61163086 -27.60108154 233.61163086 -28.66064453 233.08789062 C-39.01068278 227.03082794 -39.01068278 227.03082794 -50 224 Z M184.53833008 225.44702148 C183.11022679 226.16146942 181.68760108 226.88693245 180.26953125 227.62109375 C179.51911057 227.99984146 178.76868988 228.37858917 177.99552917 228.76881409 C175.59633985 229.98241915 173.20446943 231.20973589 170.8125 232.4375 C169.18861361 233.26197942 167.5642699 234.08555877 165.93945312 234.90820312 C161.95425077 236.92839043 157.97555831 238.96090396 154 241 C154.96186243 246.01100153 156.43756024 250.78203606 157.96484375 255.6484375 C159.47589719 262.00056402 160.13705294 268.52789708 161 275 C181.295 275.495 181.295 275.495 202 276 C201.33523794 263.07524984 201.33523794 263.07524984 199.3125 250.5 C199.05738647 249.33041748 199.05738647 249.33041748 198.79711914 248.13720703 C197.5204664 242.59137809 195.8862489 237.22055599 193.9375 231.875 C193.69233643 231.19373047 193.44717285 230.51246094 193.19458008 229.81054688 C192.41775327 227.72148135 192.41775327 227.72148135 191 225 C187.89303828 223.59898794 187.89303828 223.59898794 184.53833008 225.44702148 Z M-161 228 C-161.19798642 234.03211308 -161.34303077 240.06233101 -161.43945312 246.09692383 C-161.4796489 248.14869123 -161.53421767 250.20022998 -161.60351562 252.2512207 C-161.70074752 255.20320973 -161.74596217 258.1521691 -161.78125 261.10546875 C-161.82254028 262.02023483 -161.86383057 262.93500092 -161.90637207 263.87748718 C-161.90819962 266.48011794 -161.8169589 268.5267892 -161 271 C-158.62358593 273.34751533 -156.03438076 274.65727459 -153 276 C-152.13745605 276.43900635 -151.27491211 276.8780127 -150.38623047 277.33032227 C-147.88614893 278.41681133 -145.3848718 279.49877475 -142.875 280.5625 C-142.02679688 280.93568359 -141.17859375 281.30886719 -140.3046875 281.69335938 C-132.90587881 284.85877232 -125.9046712 286.74152251 -118 289 C-118 274.15 -118 259.3 -118 244 C-121.609375 242.845 -125.21875 241.69 -128.9375 240.5 C-138.29647758 237.44525832 -147.13689385 233.88235277 -155.9296875 229.46875 C-158.73344275 227.85615443 -158.73344275 227.85615443 -161 228 Z M-111 246 C-111 260.52 -111 275.04 -111 290 C-105.81154375 291.48241607 -100.96311482 292.67778768 -95.6875 293.5625 C-94.92002441 293.69180908 -94.15254883 293.82111816 -93.36181641 293.9543457 C-84.94389491 295.2901032 -76.50890681 295.70832353 -68 296 C-68.01571045 294.96782349 -68.01571045 294.96782349 -68.03173828 293.91479492 C-68.22182791 279.45474896 -67.93500513 265.33977014 -66 251 C-66.60247559 250.95512451 -67.20495117 250.91024902 -67.82568359 250.86401367 C-79.10803197 250.00429401 -90.27737802 249.01376668 -101.41357422 246.96557617 C-104.7029414 246.36139876 -107.63623543 246 -111 246 Z M-61 283 C-60.21361759 296.71120515 -60.21361759 296.71120515 -57.6875 309.875 C-57.48705078 310.720625 -57.28660156 311.56625 -57.08007812 312.4375 C-55.57675004 318.52528062 -53.45660706 324.2353875 -51 330 C-46.79621001 329.3569176 -43.36848172 327.9328806 -39.52734375 326.12890625 C-38.61995201 325.70532082 -38.61995201 325.70532082 -37.69422913 325.2731781 C-35.77288333 324.37471284 -33.85521548 323.46868385 -31.9375 322.5625 C-30.64541145 321.95719288 -29.35309579 321.35237033 -28.06054688 320.74804688 C-20.99547643 317.44601591 -20.99547643 317.44601591 -14 314 C-14.56427537 311.01404282 -15.21605572 308.06047977 -15.9375 305.109375 C-16.11023438 304.39910156 -16.28296875 303.68882812 -16.4609375 302.95703125 C-16.81671207 301.50041797 -17.17601574 300.04466156 -17.5390625 298.58984375 C-18.81235092 293.31614919 -19.39068854 288.48380313 -20 283 C-33.53 283 -47.06 283 -61 283 Z M161 283 C160.01 288.94 159.02 294.88 158 301 C156.73697465 305.40254552 155.49943524 309.69197795 154 314 C158.76174834 316.31205618 163.53057629 318.60853201 168.30664062 320.89086914 C169.93042782 321.66950171 171.55219671 322.4523579 173.171875 323.23950195 C175.50002972 324.37005503 177.8350142 325.48523271 180.171875 326.59765625 C180.89493835 326.952798 181.61800171 327.30793976 182.36297607 327.67384338 C186.08077705 329.4979721 186.08077705 329.4979721 190.12359619 329.80613708 C192.45523632 329.05459547 192.45523632 329.05459547 193.59765625 325.45703125 C194.10549035 323.91515726 194.59254137 322.3663371 195.0625 320.8125 C195.31926514 319.99749023 195.57603027 319.18248047 195.84057617 318.34277344 C199.48299679 306.52138927 201.108561 295.480146 202 283 C188.47 283 174.94 283 161 283 Z M-19.08984375 324.2109375 C-20.14033653 324.70323349 -20.14033653 324.70323349 -21.21205139 325.20547485 C-22.69488428 325.901422 -24.17683116 326.59925957 -25.65795898 327.29882812 C-27.92276288 328.3680426 -30.19060962 329.43057333 -32.45898438 330.4921875 C-33.89862396 331.16887429 -35.33808312 331.84594507 -36.77734375 332.5234375 C-37.45554672 332.84122162 -38.13374969 333.15900574 -38.83250427 333.48641968 C-41.70711472 334.84741033 -44.34757735 336.23171823 -47 338 C-39.94546177 351.3005334 -31.53834132 362.67090852 -20.9375 373.375 C-20.37716064 373.940979 -19.81682129 374.50695801 -19.23950195 375.09008789 C-16.60299841 378.04983747 -16.60299841 378.04983747 -13 379 C-11.66883134 377.6187921 -11.66883134 377.6187921 -10.34765625 375.7734375 C-9.56104614 374.72917603 -9.56104614 374.72917603 -8.75854492 373.66381836 C-8.1988501 372.9085083 -7.63915527 372.15319824 -7.0625 371.375 C-5.89407103 369.82098125 -4.72478502 368.26760656 -3.5546875 366.71484375 C-2.96397461 365.92835449 -2.37326172 365.14186523 -1.76464844 364.33154297 C0.88388982 360.83215997 3.59294588 357.38181643 6.3125 353.9375 C6.7861499 353.33663574 7.2597998 352.73577148 7.74780273 352.11669922 C8.83085009 350.74366223 9.91525275 349.37169442 11 348 C10.154375 347.01 9.30875 346.02 8.4375 345 C7.88707031 344.35417969 7.33664062 343.70835937 6.76953125 343.04296875 C5.6392138 341.73798856 4.4921714 340.44718891 3.32421875 339.17578125 C-1.16480675 334.2533326 -4.75079481 328.97909193 -8.30078125 323.34375 C-8.86152344 322.5703125 -9.42226563 321.796875 -10 321 C-13.31913559 321 -16.13507405 322.81296172 -19.08984375 324.2109375 Z M150 321 C148.47078355 323.12039283 147.13566942 325.19360374 145.8125 327.4375 C141.31286954 334.76772274 136.10870171 340.94751334 130 347 C131.37321081 349.95483335 132.96741945 352.41504382 134.9765625 354.9765625 C135.56163574 355.72566895 136.14670898 356.47477539 136.74951172 357.24658203 C137.36842285 358.03145996 137.98733398 358.81633789 138.625 359.625 C139.25293457 360.42663574 139.88086914 361.22827148 140.52783203 362.05419922 C144.98174949 367.73211153 149.4610503 373.38974541 154 379 C168.50061441 368.71774615 179.09240756 354.83727313 187 339 C187 338.34 187 337.68 187 337 C182.21628934 334.71397225 177.42907128 332.43552579 172.63842773 330.1640625 C171.00885709 329.39010166 169.38026835 328.61406994 167.75268555 327.8359375 C165.41449297 326.71850807 163.07288264 325.60854778 160.73046875 324.5 C160.00224411 324.15001953 159.27401947 323.80003906 158.52372742 323.43945312 C154.44162066 321.51073452 154.44162066 321.51073452 150 321 Z M17 352 C8.24101626 362.34305527 -0.240704 372.8783424 -8 384 C4.69501277 392.56913362 18.79553604 401.79773313 34 405 C34.99 404.67 35.98 404.34 37 404 C37.91471094 401.17624389 38.62734448 398.47891389 39.26171875 395.58984375 C39.45723831 394.74780899 39.65275787 393.90577423 39.85420227 393.03822327 C40.47760213 390.34063699 41.08270272 387.63931139 41.6875 384.9375 C42.10622576 383.11105349 42.52613252 381.28487731 42.94726562 379.45898438 C43.97858822 374.97568138 44.99351516 370.48894133 46 366 C45.21496094 365.68184326 44.42992187 365.36368652 43.62109375 365.03588867 C37.91699802 362.69694697 32.38731723 360.30919521 27 357.3125 C22.04462237 354.57095011 22.04462237 354.57095011 17 352 Z M118.5925293 354.59106445 C112.03513936 358.49317631 105.70654054 361.46958778 98.44921875 363.89453125 C97.64097656 364.25933594 96.83273437 364.62414062 96 365 C94.62764541 369.11706377 95.83413225 372.31204236 96.87109375 376.38671875 C97.17286278 377.61223198 97.17286278 377.61223198 97.48072815 378.86250305 C98.12535061 381.47279741 98.7812716 384.08010182 99.4375 386.6875 C99.87639781 388.45619507 100.31455807 390.22507333 100.75195312 391.99414062 C101.82608721 396.33159956 102.91036312 400.66641081 104 405 C120.06869019 401.25932296 135.10293336 394.42112548 148 384 C143.94337368 377.43467055 139.2580826 371.46045414 134.40991211 365.47412109 C131.63855599 362.0520382 128.92091893 358.6119708 126.3125 355.0625 C125.549375 354.051875 124.78625 353.04125 124 352 C121.9524385 352 120.3059469 353.56880628 118.5925293 354.59106445 Z M53 368 C51.71375363 372.91019446 50.43050318 377.82097413 49.15478516 382.73388672 C48.72000695 384.40458926 48.28349709 386.07484217 47.84521484 387.74462891 C47.21515236 390.14629565 46.59135681 392.54951618 45.96875 394.953125 C45.77188599 395.69806213 45.57502197 396.44299927 45.37219238 397.21051025 C44.49462945 400.62178356 44 403.45020258 44 407 C60.82368936 410.61762005 80.32346621 412.5588446 97 407 C94.15044582 393.96209569 91.11455821 380.97732587 88 368 C76.45 368 64.9 368 53 368 Z " fill="#D2D3CA" transform="translate(595,172)"/>
</svg>
