<?xml version="1.0" encoding="UTF-8"?> <svg xmlns="http://www.w3.org/2000/svg" viewBox="0 0 399.26 403.56"><defs><style>.cls-1{fill:#fff;}</style></defs><title>dota-logo</title><g id="Layer_2" data-name="Layer 2"><g id="svg3842"><path class="cls-1" d="M147.73,11.87l.78,0C148.43,11.17,147.73,11.87,147.73,11.87Z"></path><path class="cls-1" d="M399.26,392.44l-1.51-163.39c-17.18,1.77-10.61-4-10.61-4,3.28,2.78,5.05.76,5.05.76-1.26-11.62,2.27-18.18,2.27-18.18-4.54-3.29,1.52-17.43,1.52-17.43-7.83.51-4-15.15-4-15.15-6.57-1.26-5.56-5.81-5.56-5.81,4.3-4.29-1.76-1.77-1.76-1.77-6.32-11.11,5.3-14.64,5.3-14.64l-4.55-11.62,11.62-.25c5.3-63.14-2.27-99.25-2.27-99.25,6.06-3.28,1.51-23.74,1.51-23.74-12.37-2.52-11.11-7.83-11.11-7.83l-10.86-.25-3.79-2.27c-.25,8.58-20-.76-20-.76C341.94,16.41,339.66.76,339.66.76c1.77.25-6.06-2-3,3s-.75,5.3-.75,5.3c-71-7.57-77-2-77-2,7.33,4.8-.25,10.86,0,12.63-13.38-.25-16.67,2.52-16.67,2.52C241.93,10.86,227.54,3.28,218.7,4A20.13,20.13,0,0,1,204.56.25C196.22,8.08,177,0,177,0,174.5,6.31,171,3.54,171,3.54l-7.83-.76-1.26,5.55L159.35,3c-2.27,9.85-4.54,8.59-4.54,8.59l-6.3.22a8.47,8.47,0,0,1-.78,3.06c-1.76,4.8-6.81,0-6.81,0s-17.18,1-25.76.51-13.39-7.33-13.39-7.33l-3.28,4.55-8.08-1L89.9,9.09l-4.29,2.53-18.18-.51-1.77,1.77-2.78-3L58.34,9.6l-2,2.27L53.54,8.08,52,7.83l-1.51,4L48,9.85,37.12,9.34,34.78,5c-15,15.35-27.5,2.5-27.5,2.5l-2,16-1.51-.26L3,13.89l1.77-.51.5-1.51L.76,11.36,0,31.82c3.79,5.81,4.55-.25,4.55-.25l2.27,1.26c-8.59,90.66,3.79,129.55,3.79,129.55-8.84,22.48,5.05,28.79,5.05,28.79l-.51,15.15-6.82-3.78-.25,3.78,3.54,2-1,1.77c-3.54-3-4.8-2.27-4.8-2.27-2,35.86,1.51,51.77,1.51,51.77l7.83,1.26L13.38,303.8l-6.06.26c-2.52,4-2.77,19.69-2.77,19.69,5.55,45-2,58.59-2,58.59l11.61,1.77-.25,5.56,2.52,1.26c.51-4,4.55-5.05,4.55-5.05,2.78,1,.25,5.3.25,5.3l2.53.51,1-5.56h1.51L26,389.41l2.53.26c11.11-5.05,11.87.5,11.87.5l1-6.31c1.51,4,13.38,3.28,13.38,3.28,10.35-1.26,11.62,3.28,11.62,3.28l-.51-6.31h2.28c1,4.8,4.29,3.54,4.29,3.54.5-6.57,3.28-5.31,3.28-5.31,2,2.28,1.52,7.58,1.52,7.58l2.77,1.26c1-4.8,6.07-4,6.07-4l4.29-3v3H95l1.27-3.28c1.26.76,2,5.81,2,5.81h2.27l1.77-1.27,1.26,1.77c.25-2.52,3.54-4.29,3.54-4.29l3,4.54,2.27-.75-.25-3.29c2.27-1.26,7.57,4.3,7.57,4.3l1.27-1.52-2.53-3,3.54-3.79c.25,3,5,8.34,5,8.34-1.77-7.83,2.77-9.09,2.77-9.09,2.78,8.83,8.59,9.09,8.59,9.09.51-3.54,1.77-3.79,1.77-3.79,7.07,7.57,21.21,1,21.21,1l9.6,15.66c2.27-2.78,8.33-2.28,8.33-2.28L178,397c17.17-5.56,22.73,4.29,22.73,4.29l3.28-4.79,2-.26.25,3.79c5.81,4,18.69-.76,18.69-.76L222,397c-1.26-3,37.38-2.53,37.38-2.53.25,1.77-1.52,3-1.52,3l-9.85.75c9.6,6.32,17.43-1.51,17.43-1.51l1-4.3-3.29.76c1.52-3.79,5.56-2.52,5.56-2.52l-1.77,6.06a5,5,0,0,0,4.8-.76l.25-4.29h1.77l-1,3.53c13.39-4,23-2.27,23-2.27,1.26-6.06,7.33-4.8,7.33-4.8,8.84,6.82,19.69,2.27,19.69,2.27,22.48,11.12,34.6-.25,34.6-.25,5.05,6.82,4.8-.5,4.8-.5l6.57-.26,1-2-15.16-1.26C366.94,373.76,399.26,392.44,399.26,392.44ZM287.51,76.27C299.76,72.35,306,77,306,77L323.5,89.9l-.12,1.64-2.66-.75s-2.27,1.13-1.26,5,2-.51,2-.51l-.25-2,2.27-.12-8.08,51.89-3.28.26L310,142.56H306.2s1-7.58-3-7.7-1.89,2.52-1.89,2.52l3.15,1.52-.88,1.76L237.26,89.78S275.27,80.18,287.51,76.27ZM100.64,337l-3.41-2.14s-.84,3.49-4.25,2.37c-1.14.38-1.94-1-1.94-1a7.74,7.74,0,0,0,1.94,1c.73-.24,1.6-1.18,2.48-3.64,0,0-.88-2-2.15,0l-.88,1.9-.25-3.66-2.28,1.51-1.76-.25-.38,3.28L54.42,311.63s-4.8-1.76-1-13.26,24.25-55.43,24.25-55.43l78.79,76.14Zm225.13-5.17c-50.5,3.28-59.85-18.94-59.85-18.94l-40.4-43.19,1.76-2.27-4.29-4,.25,3.28c-4.29-8.59-9.34-11.36-9.34-11.36l1.26,4c-5.81-4.8-4-10.36-4-10.36l-7.57-9.85c-6.07-3.28-1.77,1.77-1.77,1.77l5.81,6.57-1.52,2.27a79.12,79.12,0,0,1-16.41-20.46c-6.32-11.86-1.52,1.27-1.52,1.27L149,188.14l3,2.27s3.79,5.05,1.51-.75-9.59-4.8-9.59-4.8L47,81.32c28.29-18.44,41.92-3.79,41.92-3.79l29.8,21-1.51,1.77,6.56,6.56,1.52-.75-3-3.79,6.31,3.53L127,108.34l1.26,1.26,2.27-1.77,2.27,2.28,4,.25c-.51,6.57,9.59,6.06,9.59,6.06l160.36,109.1-2,2.27,4.3,3.54-2.53-.26-7.32-3-.25,3.29,19.44,1.76,33.34,22.48C349.77,301.28,325.77,331.84,325.77,331.84Z"></path></g></g></svg> 