<?xml version="1.0" encoding="UTF-8"?> <svg xmlns="http://www.w3.org/2000/svg" width="200" height="100" viewBox="0 0 200 100" fill="none"><rect width="200" height="100" rx="10" fill="#01326F"></rect><path d="M152 7H48C41.3726 7 36 12.3726 36 19V81C36 87.6274 41.3726 93 48 93H152C158.627 93 164 87.6274 164 81V19C164 12.3726 158.627 7 152 7Z" fill="#01326F"></path><path d="M111.49 28.7739H87.8673V71.2265H111.49V28.7739Z" fill="#FF5F00"></path><path d="M89.3672 50.0048C89.3628 45.9157 90.2889 41.8793 92.0754 38.2011C93.8619 34.5229 96.4619 31.2994 99.6785 28.7747C95.6958 25.6448 90.9128 23.6984 85.8763 23.1582C80.8397 22.6179 75.7528 23.5055 71.1969 25.7195C66.6409 27.9336 62.7998 31.3847 60.1124 35.6785C57.4251 39.9723 56 44.9356 56 50.001C56 55.0665 57.4251 60.0297 60.1124 64.3235C62.7998 68.6173 66.6409 72.0685 71.1969 74.2825C75.7528 76.4966 80.8397 77.3842 85.8763 76.8439C90.9128 76.3036 95.6958 74.3573 99.6785 71.2273C96.4628 68.7034 93.8635 65.4812 92.077 61.8044C90.2906 58.1276 89.3639 54.0926 89.3672 50.0048Z" fill="#EB001B"></path><path d="M143.361 50.0037C143.361 55.0696 141.935 60.0331 139.248 64.3271C136.56 68.621 132.718 72.0721 128.162 74.2859C123.605 76.4996 118.518 77.3866 113.481 76.8456C108.444 76.3045 103.661 74.3572 99.6785 71.2263C102.893 68.7002 105.492 65.477 107.278 61.8C109.065 58.123 109.994 54.0882 109.994 50C109.994 45.9118 109.065 41.877 107.278 38.2C105.492 34.523 102.893 31.2998 99.6785 28.7737C103.661 25.6428 108.444 23.6955 113.481 23.1544C118.518 22.6134 123.605 23.5004 128.162 25.7141C132.718 27.9279 136.56 31.379 139.248 35.6729C141.935 39.9669 143.361 44.9304 143.361 49.9963V50.0037Z" fill="#F79E1B"></path></svg> 