<?xml version="1.0" encoding="UTF-8"?> <svg xmlns="http://www.w3.org/2000/svg" width="82" height="16" viewBox="0 0 82 16" fill="none"><g clip-path="url(#clip0_105_5208)"><path d="M34.9661 11.5389L34.1172 16H38.5598L39.407 11.5389H34.9661Z" fill="#FF5C00"></path><path d="M37.1551 0.00695801C37.1551 0.00695801 36.1777 5.18864 35.3652 9.45519H44.9136C45.0541 9.45521 45.1928 9.48627 45.3199 9.54616C45.4469 9.60606 45.5592 9.6933 45.6486 9.80165C45.738 9.91 45.8024 10.0368 45.8371 10.1729C45.8718 10.309 45.876 10.4512 45.8494 10.5891L45.7105 11.1934C45.6588 11.4645 45.5141 11.7091 45.3015 11.8851C45.0889 12.061 44.8215 12.1572 44.5456 12.1572L41.4658 12.1693L40.7332 16.0052H46.6497C47.5536 16.0079 48.4301 15.6946 49.1275 15.1194C49.8249 14.5442 50.2995 13.7433 50.4691 12.8552C50.5975 12.1849 50.7399 11.4869 50.8666 10.8218C51.1739 9.2225 49.8701 8.02259 48.2417 8.02259L48.3441 7.50164C50.0316 7.4426 51.2191 6.58304 51.5385 4.91428L51.7677 3.64316C51.8522 3.2018 51.8383 2.74722 51.7271 2.31182C51.6159 1.87642 51.41 1.4709 51.1242 1.12417C50.8384 0.777437 50.4797 0.498016 50.0736 0.305809C49.6674 0.113602 49.2239 0.0133401 48.7747 0.0121673L37.1551 0.00695801ZM46.3737 4.73194L46.3251 5.06882C46.2669 5.37352 46.1044 5.64841 45.8655 5.84618C45.6266 6.04395 45.3262 6.15223 45.0161 6.15239H41.0995L41.5595 3.73694H45.5525C45.6753 3.73707 45.7966 3.76429 45.9077 3.81668C46.0188 3.86907 46.117 3.94533 46.1953 4.04003C46.2735 4.13472 46.3299 4.24551 46.3605 4.36451C46.391 4.48351 46.3949 4.60778 46.3719 4.72847" fill="white"></path><path d="M68.4173 0.00866699L67.6309 4.05468H71.8391L69.5475 15.993H74.7158L77.0143 4.05468H81.2295L82.0004 0.00866699H68.4173Z" fill="white"></path><path d="M23.243 6.90429C23.5537 5.25462 24.6318 4.06166 26.6752 4.06166L34.3608 4.07034L35.1281 0.00695801H25.3506C21.9427 0.00695801 19.4479 1.32842 18.3698 5.76688C18.0087 7.25332 17.7691 8.89257 17.481 10.3894C17.3498 11.0696 17.3698 11.7704 17.5396 12.4419C17.7095 13.1135 18.0249 13.7396 18.4636 14.2756C18.9022 14.8117 19.4534 15.2446 20.0781 15.5438C20.7027 15.843 21.3855 16.0012 22.0781 16.007H32.097L34.0066 6.15933H25.8992L25.2481 9.45866H28.5779L28.1023 11.9002H24.8523C22.6614 11.9002 22.5052 10.6846 22.7534 9.36662L23.243 6.90429Z" fill="#FF5C00"></path><path d="M5.85236 6.90429C6.16485 5.25462 7.24122 4.06166 9.28458 4.06166L16.9702 4.07034L17.7375 0.00695801H7.95996C4.55204 0.00695801 2.0573 1.32842 0.979198 5.76688C0.619831 7.25332 0.378517 8.89257 0.0903291 10.3894C-0.0408261 11.0696 -0.0207889 11.7704 0.149021 12.4419C0.318831 13.1135 0.634258 13.7396 1.07294 14.2756C1.51162 14.8117 2.06282 15.2446 2.68746 15.5438C3.31211 15.843 3.9949 16.0012 4.68745 16.007H14.7063L16.616 6.15933H8.50856L7.85753 9.45866H11.196L10.7134 11.8932H7.45823C5.2673 11.8932 5.11106 10.6777 5.35932 9.35968L5.85236 6.90429Z" fill="#FF5C00"></path><path d="M53.8931 2.04384L51.6535 13.9614C51.6071 14.208 51.6156 14.4618 51.6784 14.7047C51.7412 14.9477 51.8568 15.1738 52.0169 15.367C52.177 15.5601 52.3778 15.7156 52.6048 15.8223C52.8319 15.929 53.0797 15.9844 53.3306 15.9844H65.1602L65.9241 11.9904H57.044L57.5388 9.43086H63.9901L64.6116 6.1489H58.1725L58.577 4.05643H66.2678L67.0525 0.0156254H56.3479C55.7656 0.0152948 55.2016 0.218526 54.7533 0.590164C54.3051 0.961802 54.0008 1.47847 53.8931 2.05079" fill="white"></path></g><defs><clipPath id="clip0_105_5208"><rect width="82" height="16" fill="white"></rect></clipPath></defs></svg> 