<?xml version="1.0" encoding="UTF-8"?> <svg xmlns="http://www.w3.org/2000/svg" viewBox="0 0 200 100"><defs><style>.cls-1{fill:#c1c1c1;fill-opacity:0.76;}.cls-2{fill:#5f6368;}.cls-3{fill:#4285f4;}.cls-4{fill:#34a853;}.cls-5{fill:#fbbc04;}.cls-6{fill:#ea4335;}</style></defs><title>google-pay</title><g id="Layer_2" data-name="Layer 2"><g id="Layer_1-2" data-name="Layer 1"><rect class="cls-1" width="200" height="100" rx="10"></rect><path class="cls-2" d="M96.43,49.4V64.76H91.55V26.82h12.93a11.7,11.7,0,0,1,8.37,3.29,11,11,0,0,1,0,16.06,11.68,11.68,0,0,1-8.37,3.23Zm0-17.91V44.74h8.17a6.6,6.6,0,0,0,5-11.11l-.13-.13a6.35,6.35,0,0,0-4.82-2Z"></path><path class="cls-2" d="M127.58,38c3.6,0,6.45,1,8.53,2.88a10.25,10.25,0,0,1,3.13,7.92v16h-4.67v-3.6h-.21a9.3,9.3,0,0,1-8.05,4.45,10.51,10.51,0,0,1-7.18-2.54,8.14,8.14,0,0,1-2.89-6.36,7.72,7.72,0,0,1,3.05-6.41,12.89,12.89,0,0,1,8.13-2.38,14.39,14.39,0,0,1,7.15,1.59V48.39a5.55,5.55,0,0,0-2-4.31,6.88,6.88,0,0,0-4.71-1.78,7.45,7.45,0,0,0-6.46,3.45L117.1,43Q120.64,38,127.58,38Zm-6.31,18.86A3.92,3.92,0,0,0,122.89,60a6,6,0,0,0,3.79,1.27A7.78,7.78,0,0,0,132.16,59a7.13,7.13,0,0,0,2.42-5.35,10,10,0,0,0-6.36-1.82,8.19,8.19,0,0,0-5,1.44,4.28,4.28,0,0,0-2,3.56Z"></path><path class="cls-2" d="M166,38.8,149.72,76.21h-5l6-13.09L140,38.8h5.3l7.73,18.65h.11l7.52-18.65Z"></path><path class="cls-3" d="M76.73,46.09a25.24,25.24,0,0,0-.38-4.43H55.8v8.39H67.57a10.06,10.06,0,0,1-4.35,6.62v5.45h7C74.36,58.33,76.73,52.72,76.73,46.09Z"></path><path class="cls-4" d="M55.8,67.39a20.89,20.89,0,0,0,14.45-5.26l-7-5.45a13.23,13.23,0,0,1-19.66-6.92H36.32v5.62A21.81,21.81,0,0,0,55.8,67.39Z"></path><path class="cls-5" d="M43.56,49.76a13.08,13.08,0,0,1,0-8.34V35.8H36.32a21.84,21.84,0,0,0,0,19.58Z"></path><path class="cls-6" d="M55.8,32.42a11.86,11.86,0,0,1,8.36,3.27h0l6.22-6.22A20.93,20.93,0,0,0,55.8,23.79a21.81,21.81,0,0,0-19.48,12l7.24,5.62A13,13,0,0,1,55.8,32.42Z"></path></g></g></svg> 