<?xml version="1.0" encoding="UTF-8"?> <svg xmlns="http://www.w3.org/2000/svg" version="1.2" viewBox="0 0 1150 150" width="1150" height="150"><title>GrandWin_Logo_final-ai</title><style> .s0 { fill: #0f2445 } .s1 { fill: #ff9629 } </style><g id="Layer 1"><g id="&lt;Group&gt;"><path id="&lt;Compound Path&gt;" class="s0" d="m75.5 146.6q-19 0-33.1-6-14.2-6.1-21.9-17.8-7.8-11.8-7.8-28.8 0-8.4 1.9-17.7 7.6-34.9 30.4-53.9 22.9-19 63.9-19 12.9 0 23.1 1.5 10.1 1.5 18.7 4.5l-7.5 34.8q-8.7-3.7-18.5-5-9.8-1.3-20.4-1.3-18.5 0-31.2 9.1-12.7 9-17.1 29.3-1.9 8.4-1.9 14.7 0 11 6.6 16 6.6 5.1 22.1 5.1 5.6 0 10.7-0.8 5-0.7 9.8-2l4.3-20.3h-27.6l5.4-25h61.4l-14.8 69.9q-9.1 4.9-23.2 8.8-14.2 3.9-33.3 3.9z"></path><path id="&lt;Compound Path&gt;" fill-rule="evenodd" class="s0" d="m145.1 144.4l29.3-138.8h72.3q19.8 0 30.2 10 10.3 10 10.3 26.6 0 5.8-1.3 12.7-3 14.1-12.3 24.7-9.2 10.7-22.2 16.3 2.2 2 3.2 4.7 1.1 2.7 2.2 7.4l8.4 36.4h-42.3l-7.7-33.4q-0.9-3.9-3-5.5-2.2-1.6-6.7-1.6h-11.4l-8.5 40.5zm55.7-71.6h21.3q18.6 0 22.5-17.9 0.4-1.9 0.6-3.6 0.2-1.7 0.2-3.3 0-5.6-3.2-8.5-3.3-2.9-11-2.9h-22.7z"></path><path id="&lt;Compound Path&gt;" fill-rule="evenodd" class="s0" d="m268 144.4l82.6-138.8h42.9l24 138.8h-42.3l-5-29.5h-42.2l-17.7 29.5zm71.4-58.6h31l-6.9-40.8z"></path><path id="&lt;Compound Path&gt;" class="s0" d="m432.8 144.4l29.3-138.8h34.5l36.9 73.5 15.5-73.5h40.5l-29.3 138.8h-34.7l-36.7-73.3-15.5 73.3z"></path><path id="&lt;Compound Path&gt;" fill-rule="evenodd" class="s0" d="m579.8 144.4l29.4-138.8h62.1q16.1 0 28.5 5.4 12.4 5.3 19.3 16.6 6.9 11.2 6.9 28.4 0 4.6-0.5 9.5-0.5 5-1.6 10.4-4.8 23.9-14.7 39-9.9 15.1-26 22.3-16 7.2-39.8 7.2zm47-31h16.4q10.2 0 17.7-2.9 7.6-2.9 13-11 5.3-8.1 8.6-23.6 1.1-5.6 1.7-10.4 0.7-4.7 0.7-8.6 0-11.7-6.1-16-6-4.3-19.2-4.3h-16.4z"></path><g id="&lt;Group&gt;"><g id="&lt;Group&gt;"><path id="&lt;Compound Path&gt;" class="s1" d="m756.3 144.4l-3.1-138.8h39.7l0.2 73.5 26.6-52.6 4.3-20.9h33.2l5.6 73.7 32.1-73.7h39.7l-61.5 138.8h-35.5l-5.9-71.8-37.7 71.8z"></path></g></g><g id="&lt;Group&gt;"><g id="&lt;Group&gt;"><path id="&lt;Compound Path&gt;" class="s1" d="m920.4 144.4l29.3-138.8h40.5l-29.3 138.8z"></path></g></g><g id="&lt;Group&gt;"><g id="&lt;Group&gt;"><path id="&lt;Compound Path&gt;" class="s1" d="m980.5 144.4l29.4-138.8h34.5l36.8 73.5 15.6-73.5h40.5l-29.3 138.8h-34.8l-36.6-73.3-15.5 73.3z"></path></g></g></g></g></svg> 