<?xml version="1.0" encoding="UTF-8"?> <svg xmlns="http://www.w3.org/2000/svg" width="200" height="100" viewBox="0 0 200 100" fill="none"><rect width="200" height="100" rx="10" fill="black"></rect><g clip-path="url(#clip0)"><path d="M58.1316 29.9619C56.5847 31.7859 54.1097 33.2245 51.6347 33.019C51.3253 30.5528 52.537 27.9324 53.955 26.314C55.5019 24.4386 58.2089 23.1028 60.4003 23C60.6581 25.569 59.6526 28.0866 58.1316 29.9619ZM60.3745 33.5071C56.7909 33.3016 53.723 35.5366 52.0214 35.5366C50.2941 35.5366 47.6901 33.6099 44.8542 33.6613C41.1675 33.7127 37.7386 35.7935 35.8566 39.1075C31.9894 45.7355 34.8511 55.549 38.5894 60.9439C40.4198 63.6156 42.6112 66.5442 45.4987 66.4415C48.2316 66.3387 49.3144 64.6689 52.6144 64.6689C55.9401 64.6689 56.8941 66.4415 59.7816 66.3901C62.7722 66.3387 64.6542 63.7184 66.4847 61.0466C68.573 58.0152 69.4237 55.0609 69.4753 54.9068C69.4237 54.8554 63.7003 52.6717 63.6487 46.0951C63.5972 40.5975 68.1605 37.9772 68.3667 37.823C65.7886 34.0209 61.7667 33.6099 60.3745 33.5071ZM81.0769 26.0571V66.1075H87.3159V52.4148H95.9526C103.842 52.4148 109.385 47.02 109.385 39.2103C109.385 31.4006 103.945 26.0571 96.1589 26.0571H81.0769ZM87.3159 31.2978H94.5089C99.923 31.2978 103.017 34.1751 103.017 39.236C103.017 44.2969 99.923 47.1998 94.4831 47.1998H87.3159V31.2978ZM120.78 66.4158C124.699 66.4158 128.334 64.4377 129.984 61.3035H130.113V66.1075H135.888V46.1722C135.888 40.392 131.247 36.667 124.106 36.667C117.48 36.667 112.582 40.4434 112.401 45.6327H118.021C118.485 43.1665 120.78 41.548 123.925 41.548C127.741 41.548 129.881 43.3206 129.881 46.5833V48.7926L122.095 49.255C114.85 49.6917 110.932 52.646 110.932 57.784C110.932 62.9734 114.979 66.4158 120.78 66.4158ZM122.456 61.6632C119.13 61.6632 117.016 60.0704 117.016 57.6299C117.016 55.1123 119.053 53.648 122.946 53.4167L129.881 52.98V55.2407C129.881 58.9914 126.684 61.6632 122.456 61.6632ZM143.596 77C149.681 77 152.542 74.6879 155.043 67.6746L166 37.0523H159.658L152.31 60.7127H152.182L144.834 37.0523H138.311L148.882 66.2103L148.314 67.9829C147.36 70.9886 145.814 72.1446 143.055 72.1446C142.565 72.1446 141.611 72.0932 141.225 72.0419V76.8459C141.585 76.9486 143.132 77 143.596 77Z" fill="white"></path></g><defs><clipPath id="clip0"><rect width="132" height="54" fill="white" transform="translate(34 23)"></rect></clipPath></defs></svg> 