<?xml version="1.0" encoding="UTF-8"?> <svg xmlns="http://www.w3.org/2000/svg" xmlns:xlink="http://www.w3.org/1999/xlink" version="1.1" id="Layer_1" x="0px" y="0px" viewBox="0 0 1760.9 277.2" style="enable-background:new 0 0 1760.9 277.2;" xml:space="preserve"> <style type="text/css"> .st0{fill:url(#SVGID_1_);} .st1{fill:url(#SVGID_2_);} .st2{fill:url(#SVGID_3_);} .st3{fill:#F57A1F;} .st4{clip-path:url(#SVGID_5_);} .st5{fill:url(#SVGID_6_);} .st6{fill:url(#SVGID_7_);} .st7{fill:url(#SVGID_8_);} .st8{fill:url(#SVGID_9_);} .st9{fill:url(#SVGID_10_);} .st10{fill:url(#SVGID_11_);} .st11{fill:#E41B29;} .st12{clip-path:url(#SVGID_13_);} .st13{opacity:0.8;} .st14{fill:url(#SVGID_14_);} .st15{fill:url(#SVGID_15_);} .st16{fill:url(#SVGID_16_);} .st17{fill:url(#SVGID_17_);} .st18{fill:url(#SVGID_18_);} .st19{fill:url(#SVGID_19_);} .st20{fill:url(#SVGID_20_);} .st21{fill:url(#SVGID_21_);} .st22{fill:url(#SVGID_22_);} .st23{fill:url(#SVGID_23_);} .st24{fill:url(#SVGID_24_);} .st25{fill:url(#SVGID_25_);} .st26{fill:url(#SVGID_26_);} .st27{fill:url(#SVGID_27_);} .st28{fill:url(#SVGID_28_);} .st29{fill:url(#SVGID_29_);} .st30{fill:url(#SVGID_30_);} </style> <linearGradient id="SVGID_1_" gradientUnits="userSpaceOnUse" x1="-39.5622" y1="164.7908" x2="410.5583" y2="164.7908" gradientTransform="matrix(1 0 0 -1 -75.5071 344.4479)"> <stop offset="0" style="stop-color:#ED1C24"></stop> <stop offset="1" style="stop-color:#F7931E"></stop> </linearGradient> <path class="st0" d="M45,180.9c-2.3,4.3-4.2,8.7-5.8,13.3c8.1-10.2,17.3-13.1,26.4-13.3c18.1-0.3,36.1,10.1,45.3-4.6 C91.4,185.8,65.4,143.4,45,180.9z"></path> <linearGradient id="SVGID_2_" gradientUnits="userSpaceOnUse" x1="-39.5626" y1="272.981" x2="410.5602" y2="272.981" gradientTransform="matrix(1 0 0 -1 -75.5071 344.4479)"> <stop offset="0" style="stop-color:#ED1C24"></stop> <stop offset="1" style="stop-color:#F7931E"></stop> </linearGradient> <path class="st1" d="M50,63.8c-16.8,16-39-3-48.6,8.7C16,67.2,34.9,95.5,50,63.8z"></path> <linearGradient id="SVGID_3_" gradientUnits="userSpaceOnUse" x1="23.5039" y1="199.0468" x2="226.9265" y2="199.0468" gradientTransform="matrix(1 0 0 -1 -75.5071 344.4479)"> <stop offset="0" style="stop-color:#ED1C24"></stop> <stop offset="1" style="stop-color:#F57A1F"></stop> </linearGradient> <path class="st2" d="M232.2,38.9c-17.7-4.5-35.3-9.8-56.7,0.4c29.2,1.2,25.1,56.8-11.6,37.2c-14.5-7.8-35-28.6-29.4-37.9 c0.5-0.6,1-1.2,1.6-1.8c-21.1,8.7-10.7,29.1-6.2,36c8.7,13.4,0.4,20.4-16.7,6.9C96.7,66.9,73.7,65,55.5,78.4 C120,95,8.2,141.1,0,96.1c5.4,39.1,61.2,44.5,80.6,32.2c42.8-27.2,73,12.3,7.8,24c28.6,20.5,70.3-2.8,88.2-4.1 c38-2.7,37.7,48.7,7.2,43.1c-30.2-5.6-58.5,19.8-58.6,25.5c39.4-16.4,71.6,2.9,69.8,28.1l-6.5,12.4"></path> <path class="st3" d="M483.4,3.4h-84l-4.7,3.8l-19.8,93.3h-62.2l19.4-91.3l-4.7-5.8h-84l-4.7,3.8l-56.2,264.6l4.7,5.8h84l4.7-3.8 l23.5-110.4h62.2l-23.1,108.5l4.7,5.8h84l4.7-3.8L488.1,9.2L483.4,3.4z M645.5,0.2c-42.6,0-79.8,11.2-110.4,33.4 c-30.8,22.3-51.7,58.1-61.9,106.4c-10.5,49.6-6.1,86.3,13.3,109.2c19.3,22.8,53.1,34.4,100.4,34.4c46.2,0,83.7-13.2,111.4-39.4 c27.5-25.9,46.3-61.9,55.9-106.9c9.7-45.5,5.1-80.2-13.5-103.1C722.3,11.6,690.3,0.2,645.5,0.2L645.5,0.2z M654.9,140.9 c-6,28-13.4,48.3-22.2,60.4l-0.1,0.1c-4.5,6.6-9.6,11.3-15.2,13.9c-5.8,2.6-12.8,4-20.8,4c-8.2,0-14.7-1.6-19.2-4.9 c-4.3-3.1-7.1-8.5-8.4-16.2l0-0.1c-2.2-11.4-0.7-29.9,4.7-55.2c3.2-15.5,7.5-30.7,12.7-45.6c5.9-16.5,10.4-23.1,13.2-25.7l0.2-0.2 c0.8-0.8,3.4-2.8,11.9-4.4c6.5-1.3,13.1-2,19.7-2c15,0.6,23.8,6.1,26.9,17C661.8,93.9,660.7,113.7,654.9,140.9L654.9,140.9z M1016,3.4H783l-4.7,3.8l-12.3,58l4.7,5.8h68.9l-42.7,200.8l4.7,5.8H885l4.7-3.8L932.8,71h70.9l4.7-3.8l12.3-58L1016,3.4z"></path> <g> <defs> <path id="SVGID_4_" d="M483.6,3.3h-84L394.9,7l-19.8,93.3h-62.2L332.3,9l-4.7-5.8h-84L238.9,7l-56.2,264.6l4.7,5.8h84l4.7-3.8 l23.5-110.4h62.2l-23.1,108.5l4.7,5.8h84l4.7-3.8L488.3,9L483.6,3.3z M645.6,0C603,0,565.9,11.2,535.2,33.4 c-30.8,22.3-51.7,58.1-61.9,106.4c-10.5,49.6-6.1,86.3,13.3,109.2c19.3,22.8,53.1,34.4,100.4,34.4c46.2,0,83.7-13.2,111.4-39.4 c27.5-25.9,46.3-61.9,55.9-106.9c9.7-45.5,5.1-80.2-13.5-103.1C722.5,11.4,690.5,0,645.6,0L645.6,0z M655,140.7 c-6,28-13.4,48.3-22.2,60.4l-0.1,0.1c-4.5,6.6-9.6,11.3-15.2,13.9c-5.8,2.6-12.8,4-20.8,4c-8.2,0-14.7-1.6-19.2-4.9 c-4.3-3.1-7.1-8.5-8.4-16.2l0-0.1c-2.2-11.4-0.7-29.9,4.7-55.2c3.2-15.5,7.5-30.7,12.7-45.6c5.9-16.5,10.4-23.1,13.2-25.7l0.2-0.2 c0.8-0.8,3.4-2.8,11.9-4.4c6.5-1.3,13.1-2,19.7-2c15,0.6,23.8,6.1,26.9,17C662,93.7,660.8,113.5,655,140.7L655,140.7z M1016.2,3.3 H783.2L778.5,7l-12.3,58l4.7,5.8h68.9L797,271.7l4.7,5.8h83.6l4.7-3.8L933,70.8h70.9l4.7-3.8l12.3-58L1016.2,3.3z"></path> </defs> <clipPath id="SVGID_5_"> <use xlink:href="#SVGID_4_" style="overflow:visible;"></use> </clipPath> <g class="st4"> <linearGradient id="SVGID_6_" gradientUnits="userSpaceOnUse" x1="-138.9796" y1="157.4792" x2="1222.3326" y2="157.4792" gradientTransform="matrix(1 0 0 -1 -75.5071 344.4479)"> <stop offset="0" style="stop-color:#ED1C24"></stop> <stop offset="1" style="stop-color:#F7931E"></stop> </linearGradient> <path class="st5" d="M269.7,190.7c-6.8,12.9-12.7,26.4-17.4,40.2c24.5-30.9,52.2-39.6,79.8-40.1c54.8-0.9,109.2,30.7,136.9-13.9 C409.8,205.7,331.3,77.2,269.7,190.7z"></path> <linearGradient id="SVGID_7_" gradientUnits="userSpaceOnUse" x1="-138.9809" y1="484.6819" x2="1222.3381" y2="484.6819" gradientTransform="matrix(1 0 0 -1 -75.5071 344.4479)"> <stop offset="0" style="stop-color:#ED1C24"></stop> <stop offset="1" style="stop-color:#F7931E"></stop> </linearGradient> <path class="st6" d="M284.8-163.3c-50.7,48.5-117.8-9.1-147,26.3C182.1-153.1,239.1-67.7,284.8-163.3z"></path> <linearGradient id="SVGID_8_" gradientUnits="userSpaceOnUse" x1="51.753" y1="-41.1095" x2="666.9695" y2="-41.1095" gradientTransform="matrix(1 0 0 -1 -75.5071 344.4479)"> <stop offset="0" style="stop-color:#ED1C24"></stop> <stop offset="1" style="stop-color:#F46820"></stop> </linearGradient> <path class="st7" d="M723,384.5c0.9-12-0.8-24.1-5.1-35.4l-14.6,73L723,384.5z"></path> <linearGradient id="SVGID_9_" gradientUnits="userSpaceOnUse" x1="51.753" y1="70.7881" x2="666.9695" y2="70.7881" gradientTransform="matrix(1 0 0 -1 -75.5071 344.4479)"> <stop offset="0" style="stop-color:#ED1C24"></stop> <stop offset="1" style="stop-color:#F46820"></stop> </linearGradient> <path class="st8" d="M689.4,222.3c-91.2-16.8-176.9,60-177.3,77c99.7-41.6,184.3-7.3,205.9,49.7l30.2-150.7 C737.8,216.2,718,227.6,689.4,222.3z"></path> <linearGradient id="SVGID_10_" gradientUnits="userSpaceOnUse" x1="51.753" y1="392.6648" x2="666.9695" y2="392.6648" gradientTransform="matrix(1 0 0 -1 -75.5071 344.4479)"> <stop offset="0" style="stop-color:#ED1C24"></stop> <stop offset="1" style="stop-color:#F46820"></stop> </linearGradient> <path class="st9" d="M835.6-238.8c-53.6-13.7-106.8-29.7-171.5,1.2c88.4,3.5,76,171.8-34.9,112.5c-44-23.5-106-86.5-88.8-114.7 c1.5-1.7,3.1-3.5,4.7-5.3c-63.7,26.3-32.3,88.1-18.8,109c26.3,40.6,1.2,61.6-50.6,21c-49.7-39-119.3-44.6-174.5-4.1 C496.4-69,158.3,70.3,133.5-65.7C149.8,52.7,318.6,69,377.4,31.7c129.4-82.2,220.8,37.2,23.5,72.6c86.4,61.9,212.7-8.5,266.7-12.3 c56.7-4,85.1,31.8,88.5,67l15.5-77.5c-0.3-0.2-0.6-0.4-0.9-0.6c-4.5-3.6-7-9.2-6.7-14.9c-2.2-5.5-2.2-12.9-1.9-17.7 c0.8-12,3-24.8,7.8-35.9c1.1-2.6,3.9-3,6.1-2C776,6.1,776,2,775.8-2c-0.3-6.4,9.7-6.4,10,0c0.2,3.8,0.2,7.6,0.1,11.4L835.6-238.8z "></path> <linearGradient id="SVGID_11_" gradientUnits="userSpaceOnUse" x1="51.753" y1="165.8495" x2="666.9695" y2="165.8495" gradientTransform="matrix(1 0 0 -1 -75.5071 344.4479)"> <stop offset="0" style="stop-color:#ED1C24"></stop> <stop offset="1" style="stop-color:#F46820"></stop> </linearGradient> <path class="st10" d="M756,158.9l-7.9,39.4C754.6,186.9,757.3,173,756,158.9z"></path> </g> </g> <path class="st11" d="M1756.3,3.3h-233.1l-4.7,3.8l-12.3,58l4.7,5.8h68.9L1537,271.7l4.7,5.8h83.6l4.7-3.8L1673,70.8h70.9l4.7-3.8 l12.3-58L1756.3,3.3z M1307.6,3.3L1303,7l-56.2,264.6l4.7,5.8h192.2l4.7-3.8l12-56.6l-4.7-5.8h-102.8l9.4-44.3h88.1l4.7-3.8 l10.7-50.1l-4.7-5.8h-86l8.2-38.8h105.2l4.7-3.8L1505,9l-4.7-5.7H1307.6z M1248.9,151.7c-5.4-9.6-15-16.5-28.7-20.5 c12-4.2,21.8-10.1,29.5-17.7c10.6-10.5,17.8-24.4,21.4-41.4c4.2-20,2-35.3-6.6-45.6c-8.4-10-20.6-16.4-36.4-19.3 c-15-2.7-35.2-4-60.1-4H1059l-4.7,3.8l-56.2,264.6l4.7,5.8h90.1c64.5,0,103.1-4.1,118.1-12.7c4-2.2,8.9-6.5,15-13.3 c6.5-7.4,12.1-15.5,16.7-24.1c5.2-9.5,9-19.7,11.3-30.3C1257.7,179.5,1256,164.3,1248.9,151.7z M1164.9,192.3c-1.1,5-2.8,9.9-5,14.5 c-2.6,5.4-4.7,7.6-6,8.6c-0.5,0.3-3.6,1.7-18.3,2.6c-8.2,0.5-17.2,0.8-26.8,0.8c-2,0-4.1,0-6.2,0l12.3-58.1 c4.5-0.2,9.8-0.3,15.7-0.3c11.7,0,20,0.4,24.6,1.3c3.7,0.7,6.4,2,7.8,3.8l0.2,0.3c1,1.2,2.4,3.7,2.9,9.5 C1166.6,181,1166.2,186.7,1164.9,192.3z M1179.6,84.1c-1.2,5.5-3.4,10.8-6.5,15.6c-3.8,5.8-6.3,7.5-7.5,7.9c-2.4,0.9-8.1,2-21.5,2 h-18.3l10.1-47.3c4.3-0.2,9.9-0.3,16.6-0.3c8.6,0,14.9,0.4,18.6,1.1c2.7,0.5,5.1,1.9,6.8,4.1C1180.7,70.6,1181.2,76.3,1179.6,84.1z"></path> <g> <defs> <path id="SVGID_12_" d="M1307.6,3.3L1303,7l-56.2,264.6l4.7,5.8h192.2l4.7-3.8l12-56.6l-4.7-5.8h-102.8l9.4-44.3h88.1l4.7-3.8 l10.7-50.1l-4.7-5.8h-86l8.2-38.8h105.2l4.7-3.8L1505,9l-4.7-5.7H1307.6z M1756.3,3.3h-233.1l-4.7,3.8l-12.3,58l4.7,5.8h68.9 L1537,271.7l4.7,5.8h83.6l4.7-3.8L1673,70.8h70.9l4.7-3.8l12.3-58L1756.3,3.3z M1248.9,151.7c-5.4-9.6-15-16.5-28.7-20.5 c12-4.2,21.8-10.1,29.5-17.7c10.6-10.5,17.8-24.4,21.4-41.4c4.2-20,2-35.3-6.6-45.6c-8.4-10-20.6-16.4-36.4-19.3 c-15-2.7-35.2-4-60.1-4H1059l-4.7,3.8l-56.2,264.6l4.7,5.8h90.1c64.5,0,103.1-4.1,118.1-12.7c4-2.2,8.9-6.5,15-13.3 c6.5-7.4,12.1-15.5,16.7-24.1c5.2-9.5,9-19.7,11.3-30.3C1257.7,179.5,1256,164.3,1248.9,151.7z M1164.9,192.3 c-1.1,5-2.8,9.9-5,14.5c-2.6,5.4-4.7,7.6-6,8.6c-0.5,0.3-3.6,1.7-18.3,2.6c-8.2,0.5-17.2,0.8-26.8,0.8c-2,0-4.1,0-6.2,0l12.3-58.1 c4.5-0.2,9.8-0.3,15.7-0.3c11.7,0,20,0.4,24.6,1.3c3.7,0.7,6.4,2,7.8,3.8l0.2,0.3c1,1.2,2.4,3.7,2.9,9.5 C1166.6,181,1166.2,186.7,1164.9,192.3z M1179.6,84.1c-1.2,5.5-3.4,10.8-6.5,15.6c-3.8,5.8-6.3,7.5-7.5,7.9c-2.4,0.9-8.1,2-21.5,2 h-18.3l10.1-47.3c4.3-0.2,9.9-0.3,16.6-0.3c8.6,0,14.9,0.4,18.6,1.1c2.7,0.5,5.1,1.9,6.8,4.1C1180.7,70.6,1181.2,76.3,1179.6,84.1 z"></path> </defs> <clipPath id="SVGID_13_"> <use xlink:href="#SVGID_12_" style="overflow:visible;"></use> </clipPath> <g class="st12"> <g class="st13"> <linearGradient id="SVGID_14_" gradientUnits="userSpaceOnUse" x1="587.3786" y1="-131.2715" x2="1948.6909" y2="-131.2715" gradientTransform="matrix(1 0 0 -1 -75.5071 344.4479)"> <stop offset="0" style="stop-color:#ED1C24"></stop> <stop offset="1" style="stop-color:#F7931E"></stop> </linearGradient> <path class="st14" d="M996.1,479.5c-6.8,12.9-12.7,26.4-17.4,40.2c24.5-30.9,52.2-39.6,79.8-40.1c54.8-0.9,109.2,30.7,136.9-13.9 C1136.2,494.4,1057.7,366,996.1,479.5z"></path> <linearGradient id="SVGID_15_" gradientUnits="userSpaceOnUse" x1="587.3773" y1="195.9311" x2="1948.6964" y2="195.9311" gradientTransform="matrix(1 0 0 -1 -75.5071 344.4479)"> <stop offset="0" style="stop-color:#ED1C24"></stop> <stop offset="1" style="stop-color:#F7931E"></stop> </linearGradient> <path class="st15" d="M1011.1,125.5c-50.7,48.5-117.8-9.1-147,26.3C908.4,135.6,965.4,221.1,1011.1,125.5z"></path> <linearGradient id="SVGID_16_" gradientUnits="userSpaceOnUse" x1="778.1112" y1="-27.67" x2="1393.3278" y2="-27.67" gradientTransform="matrix(1 0 0 -1 -75.5071 344.4479)"> <stop offset="0" style="stop-color:#ED1C24"></stop> <stop offset="1" style="stop-color:#F46820"></stop> </linearGradient> <path class="st16" d="M1562,49.9c-53.6-13.7-106.8-29.7-171.5,1.2c88.4,3.5,76,171.8-34.9,112.5c-44-23.5-106-86.5-88.8-114.7 c1.5-1.7,3.1-3.5,4.7-5.3c-63.7,26.3-32.3,88.1-18.8,109c26.3,40.6,1.2,61.6-50.6,21c-49.7-39-119.3-44.6-174.5-4.1 c195.1,50.3-143,189.6-167.7,53.7c16.3,118.4,185.1,134.7,243.9,97.3c129.4-82.2,220.8,37.2,23.5,72.6 c86.4,61.9,212.7-8.5,266.7-12.3c114.9-8.1,114,147.3,21.8,130.4c-91.2-16.8-176.9,60-177.3,77c119.1-49.7,216.6,8.9,211,85.1 l-19.7,37.6L1562,49.9z"></path> <linearGradient id="SVGID_17_" gradientUnits="userSpaceOnUse" x1="1283.8954" y1="-65.3485" x2="2116.3916" y2="-65.3485" gradientTransform="matrix(0.8467 0.532 0.532 -0.8467 153.6265 -810.5221)"> <stop offset="0" style="stop-color:#ED1C24"></stop> <stop offset="1" style="stop-color:#F46820"></stop> </linearGradient> <path class="st17" d="M1398.5,48c-0.3,0.9-0.6,1.7-0.9,2.6c0.4-0.3,0.8-0.7,1.2-1c0.3-0.8,0.7-1.6,1-2.4 C1399.3,47.5,1398.9,47.8,1398.5,48z"></path> <linearGradient id="SVGID_18_" gradientUnits="userSpaceOnUse" x1="1283.8954" y1="-100.4052" x2="2116.3916" y2="-100.4052" gradientTransform="matrix(0.8467 0.532 0.532 -0.8467 153.6265 -810.5221)"> <stop offset="0" style="stop-color:#ED1C24"></stop> <stop offset="1" style="stop-color:#F46820"></stop> </linearGradient> <path class="st18" d="M1394.6,100.9c3.2-8.1,6.2-16.2,9.3-24.4c-1.8,0.4-3.6-0.3-4.7-1.7c-3.4,8.9-6.4,18-9.3,27.1 C1391.4,101.6,1393,101.2,1394.6,100.9z"></path> <linearGradient id="SVGID_19_" gradientUnits="userSpaceOnUse" x1="1283.8954" y1="-178.2621" x2="2116.3916" y2="-178.2621" gradientTransform="matrix(0.8467 0.532 0.532 -0.8467 153.6265 -810.5221)"> <stop offset="0" style="stop-color:#ED1C24"></stop> <stop offset="1" style="stop-color:#F46820"></stop> </linearGradient> <path class="st19" d="M1388.6,171.3c-1.3,2.6-2.5,5.3-3.4,8c1.3,0.9,2.6,1.6,4,2.1c0-3.5,0.1-7,0.3-10.4 C1389.2,171.1,1388.9,171.2,1388.6,171.3z"></path> <linearGradient id="SVGID_20_" gradientUnits="userSpaceOnUse" x1="1283.8954" y1="-51.6544" x2="2116.3916" y2="-51.6544" gradientTransform="matrix(0.8467 0.532 0.532 -0.8467 153.6265 -810.5221)"> <stop offset="0" style="stop-color:#ED1C24"></stop> <stop offset="1" style="stop-color:#F46820"></stop> </linearGradient> <path class="st20" d="M1414,38.7c-0.1,0-0.1,0.1-0.2,0.1c-0.8,1.8-1.5,3.7-2.3,5.5c0.1,0.1,0.2,0.3,0.4,0.4 c0.1-0.1,0.3-0.2,0.4-0.3c-0.1-0.7,0-1.4,0.3-2C1412.9,41.2,1413.5,39.9,1414,38.7z"></path> <linearGradient id="SVGID_21_" gradientUnits="userSpaceOnUse" x1="1283.8954" y1="-96.8064" x2="2116.3916" y2="-96.8064" gradientTransform="matrix(0.8467 0.532 0.532 -0.8467 153.6265 -810.5221)"> <stop offset="0" style="stop-color:#ED1C24"></stop> <stop offset="1" style="stop-color:#F46820"></stop> </linearGradient> <path class="st21" d="M1463.4,130.7c0.3-0.4,0.6-0.8,0.9-1.2c0.2-1.9,0.5-3.9,0.7-5.8c-0.8,0.5-1.6,1-2.4,1.5 c0.8,0.9,1.2,2.1,1,3.3C1463.5,129.3,1463.4,130,1463.4,130.7z"></path> <linearGradient id="SVGID_22_" gradientUnits="userSpaceOnUse" x1="1283.8954" y1="-87.4189" x2="2116.3916" y2="-87.4189" gradientTransform="matrix(0.8467 0.532 0.532 -0.8467 153.6265 -810.5221)"> <stop offset="0" style="stop-color:#ED1C24"></stop> <stop offset="1" style="stop-color:#F46820"></stop> </linearGradient> <path class="st22" d="M1411,99c2.9-2.8,5.9-5.5,8.9-8.3c0.1-0.5,0.2-0.9,0.3-1.4c-3-1.5-2.7-5.6-0.9-7.8c1.1-1.3,2.2-2.5,3.4-3.7 c0.2-1.1,0.5-2.3,0.7-3.4c-3.3,1.9-6.7,3.7-10.1,5.4c-1.8,4.8-3.5,9.6-5.4,14.3C1409.9,95,1411.1,96.9,1411,99z"></path> <linearGradient id="SVGID_23_" gradientUnits="userSpaceOnUse" x1="1283.8954" y1="-87.4258" x2="2116.3916" y2="-87.4258" gradientTransform="matrix(0.8467 0.532 0.532 -0.8467 153.6265 -810.5221)"> <stop offset="0" style="stop-color:#ED1C24"></stop> <stop offset="1" style="stop-color:#F46820"></stop> </linearGradient> <path class="st23" d="M1384,59.2c-0.3,0.2-0.5,0.5-0.8,0.7c-2.6,2.3-4.9,4.9-7,7.7c2.2-1.5,4.4-3.1,6.5-4.7 C1383.1,61.6,1383.5,60.4,1384,59.2z"></path> <linearGradient id="SVGID_24_" gradientUnits="userSpaceOnUse" x1="1283.8954" y1="-64.8867" x2="2116.3916" y2="-64.8867" gradientTransform="matrix(0.8467 0.532 0.532 -0.8467 153.6265 -810.5221)"> <stop offset="0" style="stop-color:#ED1C24"></stop> <stop offset="1" style="stop-color:#F46820"></stop> </linearGradient> <path class="st24" d="M1470.5,82.2c-1.8,2.5-3.7,5-5.6,7.6c-0.7,3.5-1.5,6.9-2.2,10.4c0.5,0,0.9,0,1.4,0.1 c1.4,0.1,2.7,0.8,3.6,1.8C1468.7,95.4,1469.6,88.8,1470.5,82.2z"></path> <linearGradient id="SVGID_25_" gradientUnits="userSpaceOnUse" x1="1283.8954" y1="-214.126" x2="2116.3916" y2="-214.126" gradientTransform="matrix(0.8467 0.532 0.532 -0.8467 153.6265 -810.5221)"> <stop offset="0" style="stop-color:#ED1C24"></stop> <stop offset="1" style="stop-color:#F46820"></stop> </linearGradient> <path class="st25" d="M1426.1,239.9c-0.4,0.2-0.8,0.3-1.2,0.5c1.5,1.9,3.1,3.9,4.7,5.8c0-0.4,0.1-0.7,0.1-1.1 C1428.6,243.3,1427.3,241.6,1426.1,239.9z"></path> <linearGradient id="SVGID_26_" gradientUnits="userSpaceOnUse" x1="1283.8954" y1="-149.0285" x2="2116.3916" y2="-149.0285" gradientTransform="matrix(0.8467 0.532 0.532 -0.8467 153.6265 -810.5221)"> <stop offset="0" style="stop-color:#ED1C24"></stop> <stop offset="1" style="stop-color:#F46820"></stop> </linearGradient> <path class="st26" d="M1453.4,208.8c1.6-8.6,3-17.1,4.2-25.8c1.1-8.1,2.2-16.3,3.2-24.4c-1.5,2.8-3,5.5-4.6,8.2 c-0.5,0.9-1.2,1.6-2.2,2.1c-0.3,3.4-0.7,6.8-1.1,10.1c-1,9.7-2,19.4-3.1,29.2c0.7,0.1,1.3,0.1,2,0.2 C1452.4,208.5,1452.9,208.6,1453.4,208.8z"></path> <linearGradient id="SVGID_27_" gradientUnits="userSpaceOnUse" x1="1283.8954" y1="-96.9895" x2="2116.3916" y2="-96.9895" gradientTransform="matrix(0.8467 0.532 0.532 -0.8467 153.6265 -810.5221)"> <stop offset="0" style="stop-color:#ED1C24"></stop> <stop offset="1" style="stop-color:#F46820"></stop> </linearGradient> <path class="st27" d="M1859.3,181c-130.8-82.2-260.5-133.5-355.1-146.1c-0.2,1.1-0.3,2.2-0.5,3.2c-2.3,14.5-6.6,28.5-10.1,42.7 c-0.8,3.3-4.9,4.4-7.6,2.9c-1.8,1-4,0.8-5.6-0.4c-1.1,7.5-2.1,15-3.1,22.6c2.1,1.1,3.2,3.4,2.9,5.7c3.4,0.3,6.5,3.7,4,7.2 c-3.9,5.5-7.4,11.2-10.8,17c-2.3,19.8-4.4,39.6-7.5,59.3c-0.3,1.8-0.6,3.7-0.9,5.5c2.7,0.8,4.5,3.5,4.1,6.3 c-0.2,1.3-0.4,2.6-0.7,3.8c0.8,1.2,1,2.6,0.7,4c-0.1,0.8-0.3,1.6-0.5,2.3c0.4,4.5-0.2,9-1.8,13.3c-0.3,0.9-0.9,1.7-1.7,2.2 c0.7,3.2,0.9,6.5,0.3,9.8c1,1.5,0.9,3.4-0.2,4.8c-0.5,0.7-1,1.4-1.5,2.1c-2.1,6.6-5.4,12.7-8.3,19c2.1,1,3.1,3.4,2.4,5.6 c-0.3,1.1-0.6,2.2-1.1,3.2c56.5,60.8,134.8,125.1,227.1,183.1c222.1,139.6,441.5,190.2,489.9,113.1 C2222.2,496.3,2081.4,320.6,1859.3,181z"></path> <linearGradient id="SVGID_28_" gradientUnits="userSpaceOnUse" x1="1283.8954" y1="-72.4434" x2="2116.3916" y2="-72.4434" gradientTransform="matrix(0.8467 0.532 0.532 -0.8467 153.6265 -810.5221)"> <stop offset="0" style="stop-color:#ED1C24"></stop> <stop offset="1" style="stop-color:#F46820"></stop> </linearGradient> <path class="st28" d="M1447.7,96.2c0.3-0.4,0.6-0.8,0.9-1.2c0.8-5.7,1.6-11.4,2.6-17.1c0-2.7,0.1-5.3,0.1-8c-0.1,0-0.2,0-0.2,0 c-2.8,1.3-5.5,2.8-8.1,4.5c-1.8,9.3-3.6,18.6-5.5,27.8c0.7-1.7,1.5-3.5,2.3-5.2C1441.4,93.8,1445.5,94.2,1447.7,96.2z"></path> <linearGradient id="SVGID_29_" gradientUnits="userSpaceOnUse" x1="1283.8954" y1="-187.8628" x2="2116.3916" y2="-187.8628" gradientTransform="matrix(0.8467 0.532 0.532 -0.8467 153.6265 -810.5221)"> <stop offset="0" style="stop-color:#ED1C24"></stop> <stop offset="1" style="stop-color:#F46820"></stop> </linearGradient> <path class="st29" d="M1399.8,193.1c0.2,1.3,0.4,2.6,0.6,4c0.4,2,0.9,3.9,1.5,5.8c2.8,0,5.6,0,8.4,0.1c-0.3-1.8-0.5-3.7-0.7-5.5 c-0.1-1.4-0.2-2.9-0.3-4.4C1406.1,193.2,1402.9,193.3,1399.8,193.1z"></path> <linearGradient id="SVGID_30_" gradientUnits="userSpaceOnUse" x1="1283.8954" y1="-163.8698" x2="2116.3916" y2="-163.8698" gradientTransform="matrix(0.8467 0.532 0.532 -0.8467 153.6265 -810.5221)"> <stop offset="0" style="stop-color:#ED1C24"></stop> <stop offset="1" style="stop-color:#F46820"></stop> </linearGradient> <path class="st30" d="M1419.4,176c-0.2,2.3-0.3,4.5-0.4,6.8c0.2,0,0.4,0,0.6,0c2.2,0,4.2,1.5,4.8,3.7c1.3,5.7,0.5,11.4-0.6,17.1 c3.4,0.2,6.9,0.5,10.3,1c1.4-12.2,2.9-24.4,4.5-36.5c-1,0.6-2.1,1.2-3.1,1.8c-1.9,1.2-4.4,0.8-5.9-0.8c-3.5,1.8-6.8,4.1-9.8,6.8 C1419.6,175.8,1419.5,175.9,1419.4,176z"></path> </g> </g> </g> <circle class="st3" cx="947" cy="247.7" r="29.6"></circle> <circle class="st11" cx="946.9" cy="247.3" r="23.7"></circle> </svg> 