<?xml version="1.0" encoding="UTF-8"?>
<svg version="1.1" xmlns="http://www.w3.org/2000/svg" width="1200" height="800">
<path d="M0 0 C0.64195312 0.47824219 1.28390625 0.95648438 1.9453125 1.44921875 C11.0649416 8.58543076 18.09445302 19.53719562 20 31 C20.08557873 33.2380233 20.1177432 35.47836264 20.11352539 37.71801758 C20.11367142 38.37223694 20.11381744 39.0264563 20.1139679 39.70050049 C20.11327494 41.84854526 20.10551164 43.99650175 20.09765625 46.14453125 C20.09578988 47.63954114 20.09436701 49.13455165 20.09336853 50.62956238 C20.08956064 54.55371811 20.07974518 58.4778365 20.06866455 62.40197754 C20.05841321 66.41055801 20.05386294 70.41914455 20.04882812 74.42773438 C20.0381213 82.28517334 20.02106572 90.14258202 20 98 C20.95538162 98.12982773 21.91076324 98.25965546 22.89509583 98.39341736 C24.15150375 98.56772781 25.40791168 98.74203827 26.70239258 98.92163086 C27.9465242 99.09270859 29.19065582 99.26378632 30.4724884 99.44004822 C34.70679729 100.11219592 38.6424885 101.17292928 42.6875 102.5625 C43.36232422 102.78357422 44.03714844 103.00464844 44.73242188 103.23242188 C46.49188745 103.81075664 48.24631406 104.40436939 50 105 C52.9218503 105.9739501 55.01443281 106.12720017 58.0625 106.25 C64.8882472 106.85492733 71.02898586 108.77488597 75.78125 113.93359375 C76.79085882 115.29605055 77.76995851 116.68172786 78.71484375 118.08984375 C81.99073593 122.95887499 86.78313446 126.5930123 91.23046875 130.3515625 C93 132 93 132 95 135 C95.51304687 134.84273437 96.02609375 134.68546875 96.5546875 134.5234375 C105.46362574 132.61641238 114.13737935 133.00998769 121.8515625 138.00390625 C124.68434759 139.31728843 126.05634879 138.9242233 129 138 C130.40486317 137.33114545 131.80038602 136.64242678 133.1875 135.9375 C142.02779072 132.31921009 153.80485746 132.36695466 162.75 135.6875 C166.70218616 137.60889154 169.89441027 139.89441027 173 143 C173 143.66 173 144.32 173 145 C174.093125 144.505 175.18625 144.01 176.3125 143.5 C182.82761468 141.08998413 189.84936153 140.7194911 196.3125 143.5 C201.81525395 146.6976989 204.95060591 151.58183101 207.4375 157.3125 C208.39306341 163.57674901 208.28667781 169.47613199 205.375 175.1875 C204.199375 176.5796875 204.199375 176.5796875 203 178 C202.29037109 178.91845703 202.29037109 178.91845703 201.56640625 179.85546875 C196.00140379 186.75500417 188.92227203 192.49905898 180.6875 195.875 C175.49724876 198.24768628 173.62807918 203.20089889 171 208 C165.95669663 215.28477153 158.06732302 219.96598759 149.63671875 222.5390625 C143.15409105 223.67232186 135.25920788 224.08640263 129 222 C129.0928125 223.918125 129.0928125 223.918125 129.1875 225.875 C129.05756263 256.58353142 113.77803513 286.15357123 92.45068359 307.57519531 C73.92116729 325.77416151 50.64874268 337.09013069 25 341 C24.23171875 341.13019531 23.4634375 341.26039063 22.671875 341.39453125 C-7.975191 345.78103879 -40.05072953 336.80375137 -65 319 C-87.61272648 302.04790334 -107.7090039 276.36615963 -112.375 247.69580078 C-112.61472287 245.800908 -112.81185354 243.90070688 -113 242 C-114.24136719 242.02449219 -115.48273438 242.04898437 -116.76171875 242.07421875 C-134.80083039 242.05661275 -154.35442608 239.07261778 -171.18359375 232.390625 C-177.77317139 229.54569137 -177.77317139 229.54569137 -184.734375 229.66015625 C-186.49607516 230.5329986 -188.22938518 231.4649481 -189.93359375 232.4453125 C-204.87244151 240.01940347 -223.3130496 239.44828669 -239 235 C-253.28426167 229.61101615 -264.67873148 219.60181304 -271.53125 205.94921875 C-274.08712789 200.10190509 -276.00515362 194.30454973 -277 188 C-277.11085938 187.30777344 -277.22171875 186.61554688 -277.3359375 185.90234375 C-280.8596606 159.66489201 -274.21415599 132.96513697 -259.25 111.25 C-251.75814309 101.51498436 -243.05105662 92.62455212 -232 87 C-231.34 87 -230.68 87 -230 87 C-230.00888245 86.31032639 -230.01776489 85.62065277 -230.0269165 84.91007996 C-230.10754211 78.36490269 -230.16820539 71.81986688 -230.20724869 65.27430248 C-230.22799721 61.91027075 -230.25607591 58.5466542 -230.30175781 55.18286133 C-230.35062704 51.30278844 -230.37305005 47.42329474 -230.390625 43.54296875 C-230.41127014 42.35293747 -230.43191528 41.16290619 -230.45318604 39.93681335 C-230.45629715 28.19408216 -227.03763472 19.31242574 -220 10 C-219.57203125 9.40703125 -219.1440625 8.8140625 -218.703125 8.203125 C-199.18473375 -16.82634142 -160.94060031 -24.9984957 -131.15966797 -28.73876953 C-87.64086852 -34.00274369 -35.22227402 -28.16595987 0 0 Z M-129.5625 -22.125 C-130.37243408 -22.03621582 -131.18236816 -21.94743164 -132.0168457 -21.85595703 C-138.06291965 -21.16866983 -144.0439807 -20.25812542 -150 -19 C-148.25727938 -14.10471737 -145.7170619 -9.73131985 -143.125 -5.25 C-142.69058594 -4.47011719 -142.25617188 -3.69023437 -141.80859375 -2.88671875 C-141.16470703 -1.77490234 -141.16470703 -1.77490234 -140.5078125 -0.640625 C-140.12254395 0.03452148 -139.73727539 0.70966797 -139.34033203 1.40527344 C-137.65584552 3.40947487 -136.56580042 3.67760552 -134 4 C-132.01138833 3.78184007 -130.03123909 3.48029778 -128.0625 3.125 C-121.37712595 2.0031912 -114.76285564 1.44590257 -108 1 C-108 -6.92 -108 -14.84 -108 -23 C-115.37862364 -23 -122.30437337 -22.95884381 -129.5625 -22.125 Z M-102 -23 C-102 -15.08 -102 -7.16 -102 1 C-95.82342168 1.61373802 -95.82342168 1.61373802 -89.64672852 2.22631836 C-84.09322112 2.77991256 -78.54579317 3.37377107 -73 4 C-71.39526997 1.4378513 -69.79119818 -1.12470555 -68.1875 -3.6875 C-67.73568359 -4.40873047 -67.28386719 -5.12996094 -66.81835938 -5.87304688 C-65.93868362 -7.27924389 -65.06086109 -8.68660224 -64.18505859 -10.09521484 C-63.18758133 -11.69849412 -62.18254874 -13.29706934 -61.17578125 -14.89453125 C-59.8374776 -16.8891074 -59.8374776 -16.8891074 -60 -19 C-74.17486847 -21.50422676 -87.50010883 -23 -102 -23 Z M-53 -17 C-55.17373046 -13.3791912 -57.33777229 -9.75268765 -59.5 -6.125 C-60.43005859 -4.57619141 -60.43005859 -4.57619141 -61.37890625 -2.99609375 C-61.96542969 -2.00996094 -62.55195312 -1.02382812 -63.15625 -0.0078125 C-63.70087891 0.90339355 -64.24550781 1.81459961 -64.80664062 2.75341797 C-66.15637104 4.87040225 -66.15637104 4.87040225 -66 7 C-65.23816406 7.29132813 -64.47632813 7.58265625 -63.69140625 7.8828125 C-56.87277965 10.5898328 -50.91326227 13.65464818 -45 18 C-41.13541707 16.26760076 -37.79488168 13.84002179 -34.375 11.375 C-33.76124512 10.93494629 -33.14749023 10.49489258 -32.51513672 10.04150391 C-27.20092856 6.20292635 -22.05725073 2.17164922 -17 -2 C-19.70541627 -5.30661989 -23.29609963 -6.72675218 -27.125 -8.375 C-27.81916016 -8.67736572 -28.51332031 -8.97973145 -29.22851562 -9.29125977 C-36.94647727 -12.55277104 -44.91933125 -14.8298204 -53 -17 Z M-158 -17 C-170.19436964 -13.19995094 -181.79724203 -9.19446617 -193 -3 C-188.70025153 1.55114505 -183.93894222 5.35100024 -179 9.1875 C-178.2059375 9.81591797 -177.411875 10.44433594 -176.59375 11.09179688 C-175.8203125 11.69443359 -175.046875 12.29707031 -174.25 12.91796875 C-173.55390625 13.46219482 -172.8578125 14.0064209 -172.140625 14.56713867 C-169.80815346 16.12841553 -167.68470637 17.17812875 -165 18 C-162.34154839 16.84863036 -162.34154839 16.84863036 -159.8125 14.875 C-154.74758576 11.38598978 -149.79102822 9.02246322 -144 7 C-145.68515915 2.35442613 -148.0183865 -1.8339069 -150.4375 -6.125 C-150.83259766 -6.84042969 -151.22769531 -7.55585938 -151.63476562 -8.29296875 C-152.02212891 -8.98261719 -152.40949219 -9.67226562 -152.80859375 -10.3828125 C-153.33151001 -11.31697998 -153.33151001 -11.31697998 -153.86499023 -12.27001953 C-155.06531833 -14.09955812 -156.40497104 -15.50924931 -158 -17 Z M-211 10 C-217.33082076 16.54652164 -223 24.53936659 -223 34 C-207.16 34 -191.32 34 -175 34 C-173.02 28.555 -173.02 28.555 -171 23 C-178.19944513 17.18733324 -185.40419215 11.37738872 -192.75 5.75 C-193.69359375 5.02296875 -194.6371875 4.2959375 -195.609375 3.546875 C-201.76792701 -0.43807042 -206.51792656 5.91633309 -211 10 Z M-17.875 6.375 C-19.03357287 7.28941902 -20.19243603 8.20347034 -21.3515625 9.1171875 C-21.9487207 9.59124023 -22.54587891 10.06529297 -23.16113281 10.55371094 C-24.99599049 11.99684648 -26.84877887 13.41262681 -28.7109375 14.8203125 C-29.30406738 15.26971191 -29.89719727 15.71911133 -30.50830078 16.18212891 C-31.65343576 17.04860474 -32.80020268 17.91292878 -33.94873047 18.77490234 C-36.93342408 20.98253556 -36.93342408 20.98253556 -39 24 C-37.68 27.3 -36.36 30.6 -35 34 C-19.16 34 -3.32 34 13 34 C10.08658113 20.88961509 4.98701802 12.01574811 -5.875 3.875 C-11.32657022 0.60405787 -13.45600968 2.81780447 -17.875 6.375 Z M-165.2578125 26.75390625 C-168.08736894 30.401877 -169.40579229 33.6881587 -169 38.3125 C-168.03293693 44.79182256 -164.72697284 48.79600826 -159.71875 52.84375 C-137.88789371 67.8360248 -108.37306555 70.2100932 -82.875 65.875 C-69.23241522 63.20601432 -53.42241229 58.05320653 -44.375 47 C-41.5828384 42.79152454 -40.39937391 39.12077888 -41.37890625 34.03125 C-43.82734911 26.02376393 -49.31969071 21.72368925 -56.4465332 17.86572266 C-87.54052854 1.91761947 -139.34230505 0.12643431 -165.2578125 26.75390625 Z M-223 40 C-219.9887117 53.55079734 -214.33794172 62.96966805 -202.875 71.1875 C-201.92625 71.785625 -200.9775 72.38375 -200 73 C-193.69279902 69.0454851 -187.84722326 64.61541158 -182.05029297 59.9597168 C-178.47668805 57.10255924 -174.8431875 54.48436703 -171 52 C-171.433125 50.700625 -171.433125 50.700625 -171.875 49.375 C-172.91666667 46.25 -173.95833333 43.125 -175 40 C-190.84 40 -206.68 40 -223 40 Z M-35 40 C-37.78296029 45.84921562 -37.78296029 45.84921562 -39 52 C-37.10032219 53.60460211 -37.10032219 53.60460211 -34.5625 55.3125 C-29.2211171 59.09481433 -24.00334477 63.01360064 -18.8125 67 C-18.04558838 67.58821533 -17.27867676 68.17643066 -16.48852539 68.7824707 C-14.65816197 70.18720677 -12.82863291 71.59301241 -11 73 C0.60232342 66.42328191 9.10236461 56.77558267 13 44 C13 42.68 13 41.36 13 40 C-2.84 40 -18.68 40 -35 40 Z M-170.8515625 58.8515625 C-172.00591797 59.75841797 -172.00591797 59.75841797 -173.18359375 60.68359375 C-174.39208984 61.64458984 -174.39208984 61.64458984 -175.625 62.625 C-177.19998688 63.86786444 -178.7755041 65.11005713 -180.3515625 66.3515625 C-181.12145508 66.9590332 -181.89134766 67.56650391 -182.68457031 68.19238281 C-186.08455308 70.84669243 -189.53531976 73.43096759 -193 76 C-192.10083484 78.38629516 -192.10083484 78.38629516 -188.7890625 79.078125 C-187.40212678 79.47258544 -186.01402321 79.86295447 -184.625 80.25 C-178.45882153 82.05281174 -173.11075814 84.24839254 -167.625 87.66796875 C-164.15746049 89.42753865 -160.79299228 90.15220194 -157 91 C-155.57950242 88.66892704 -154.16356939 86.3352698 -152.75 84 C-152.35425781 83.35160156 -151.95851563 82.70320313 -151.55078125 82.03515625 C-148.78785392 77.46047329 -146.33858274 72.80589481 -144 68 C-145.64548828 67.20335937 -145.64548828 67.20335937 -147.32421875 66.390625 C-148.77880526 65.67740839 -150.2332235 64.96384852 -151.6875 64.25 C-152.40873047 63.90195312 -153.12996094 63.55390625 -153.87304688 63.1953125 C-158.00922054 61.15555562 -161.42255745 58.94691001 -165 56 C-167.76475351 56 -168.6946569 57.14420038 -170.8515625 58.8515625 Z M-45 56 C-47.20727257 57.26965487 -47.20727257 57.26965487 -49.5 59.125 C-54.6919572 62.94621924 -60.0583129 65.54877167 -66 68 C-62.17078533 76.03714289 -57.93194641 83.58748883 -53 91 C-40.2538786 88.29411948 -28.14016477 83.82297354 -17 77 C-21.54407368 72.09468197 -26.77362167 68.23474226 -32.125 64.25 C-33.48431641 63.22326172 -33.48431641 63.22326172 -34.87109375 62.17578125 C-35.74121094 61.52480469 -36.61132812 60.87382812 -37.5078125 60.203125 C-38.29816895 59.61176758 -39.08852539 59.02041016 -39.90283203 58.41113281 C-42.03760304 56.83899342 -42.03760304 56.83899342 -45 56 Z M-223 60 C-223 67.59 -223 75.18 -223 83 C-216.73 81.68 -210.46 80.36 -204 79 C-207.16356197 75.83643803 -210.18390748 72.9357726 -213.5625 70.0625 C-217.10952396 66.95221443 -219.58480733 64.02532112 -222 60 C-222.33 60 -222.66 60 -223 60 Z M12 60 C11.045351 61.2790443 10.11240364 62.57428393 9.1875 63.875 C6.09603477 68.06594032 2.86762374 70.48456231 -1.4375 73.375 C-4.47387018 75.74964567 -6.63870422 77.45505856 -7.53759766 81.29882812 C-8.05483258 87.00910164 -7.48953911 92.20712054 -7 98 C-0.4 98 6.2 98 13 98 C13 85.46 13 72.92 13 60 C12.67 60 12.34 60 12 60 Z M-137 70 C-138.98 72.97 -140.96 75.94 -143 79 C-142.67 79.66 -142.34 80.32 -142 81 C-141.31035156 80.7834375 -140.62070312 80.566875 -139.91015625 80.34375 C-128.0624953 76.83333194 -119.13850041 77.4307498 -108 83 C-108 80.03 -108 77.06 -108 74 C-117.57 72.68 -127.14 71.36 -137 70 Z M-81.1015625 70.875 C-82.31328125 71.05546875 -83.525 71.2359375 -84.7734375 71.421875 C-86.67996094 71.70804687 -86.67996094 71.70804687 -88.625 72 C-90.543125 72.28617187 -90.543125 72.28617187 -92.5 72.578125 C-95.6668621 73.05079098 -98.83351637 73.52480629 -102 74 C-102.94304696 86.24495434 -102.94304696 86.24495434 -98 97 C-85.34135936 97.50188443 -72.26940633 96.1809572 -60 93 C-63.77822337 85.06988282 -67.64648675 77.009239 -73 70 C-75.75343715 70 -78.37779838 70.46770817 -81.1015625 70.875 Z M-16.87890625 84.03125 C-27.64636408 89.92435647 -39.34869361 93.28591042 -51 97 C-51 101.95 -51 106.9 -51 112 C-49.75347656 111.48050781 -48.50695312 110.96101563 -47.22265625 110.42578125 C-36.26981634 105.9201124 -25.41908257 102.15009174 -14 99 C-14 93.72 -14 88.44 -14 83 C-15.21111137 82.9198085 -15.21111137 82.9198085 -16.87890625 84.03125 Z M-64.93237305 99.96557617 C-75.25970474 101.65341705 -85.59054307 102.94288669 -96 104 C-96 106.31 -96 108.62 -96 111 C-94.989375 110.505 -93.97875 110.01 -92.9375 109.5 C-85.7398008 106.84081451 -77.24294878 106.63095635 -69.94921875 108.984375 C-65.68790098 111.02980753 -62.02296475 113.28999781 -59 117 C-57.55611429 115.78571012 -57.55611429 115.78571012 -57.90234375 112.18359375 C-57.90901911 110.60153318 -57.92098125 109.01948841 -57.9375 107.4375 C-57.94201172 106.63119141 -57.94652344 105.82488281 -57.95117188 104.99414062 C-57.96299482 102.99606244 -57.98093086 100.99802217 -58 99 C-60.32929986 99 -62.63751188 99.58863426 -64.93237305 99.96557617 Z M-14 106 C-13.37106708 112.43197373 -12.38928062 118.67682992 -11.0625 125 C-10.89298828 125.85722656 -10.72347656 126.71445312 -10.54882812 127.59765625 C-10.37931641 128.41105469 -10.20980469 129.22445312 -10.03515625 130.0625 C-9.80904663 131.16271484 -9.80904663 131.16271484 -9.57836914 132.28515625 C-9.15067956 134.21824299 -9.15067956 134.21824299 -7 135 C-5.32783803 134.49835141 -3.65577469 133.99637005 -1.984375 133.4921875 C6.27308803 131.44407659 13.71125719 134.2242999 21 138 C22.4570521 134.57093659 23.49514111 131.25931083 24.2890625 127.62109375 C24.61777344 126.11579102 24.61777344 126.11579102 24.953125 124.58007812 C25.17484375 123.54302734 25.3965625 122.50597656 25.625 121.4375 C25.85445312 120.39658203 26.08390625 119.35566406 26.3203125 118.28320312 C27.23306047 114.05902725 28 110.3411359 28 106 C13.51102519 103.78310768 0.48897481 103.78310768 -14 106 Z M-48.4375 118.1875 C-49.08170898 118.52007812 -49.72591797 118.85265625 -50.38964844 119.1953125 C-54.19313351 121.18755907 -54.19313351 121.18755907 -56 125 C-55.91478259 126.89952346 -55.76270916 128.79663573 -55.5625 130.6875 C-55.40974609 132.17830078 -55.40974609 132.17830078 -55.25390625 133.69921875 C-55.17011719 134.45847656 -55.08632813 135.21773437 -55 136 C-54.20078125 135.84273437 -53.4015625 135.68546875 -52.578125 135.5234375 C-39.6876394 133.63771144 -28.4773577 133.72646146 -17.74609375 141.66796875 C-17.16988281 142.10753906 -16.59367187 142.54710937 -16 143 C-14.26939797 140.4074608 -13.98206914 139.17337906 -14.30786133 136.02319336 C-14.69107544 134.3236853 -14.69107544 134.3236853 -15.08203125 132.58984375 C-15.35466797 131.35298828 -15.62730469 130.11613281 -15.90820312 128.84179688 C-16.20947381 127.54032716 -16.51090784 126.23889525 -16.8125 124.9375 C-17.10343241 123.63243258 -17.39315925 122.32709578 -17.68164062 121.02148438 C-19.12037578 114.4506486 -19.12037578 114.4506486 -21 108 C-30.11010735 108 -40.50030623 114.02347246 -48.4375 118.1875 Z M35 108 C34.34 111.3 33.68 114.6 33 118 C34.11375 117.05125 35.2275 116.1025 36.375 115.125 C37.00148438 114.59132813 37.62796875 114.05765625 38.2734375 113.5078125 C39.55836651 112.38567993 40.79371975 111.20628025 42 110 C39.35261084 108.5393715 38.10551666 108 35 108 Z M82 132 C82 132.66 82 133.32 82 134 C82.66 133.67 83.32 133.34 84 133 C83.34 132.67 82.68 132.34 82 132 Z M28 137 C28 138.98 28 140.96 28 143 C28.33 143 28.66 143 29 143 C29 141.02 29 139.04 29 137 C28.67 137 28.34 137 28 137 Z M-223 166 C-223.51288003 177.83283019 -223.51288003 177.83283019 -220 189 C-218.4585058 190.5414942 -217.01556186 190.20646315 -214.875 190.25 C-214.12992187 190.27578125 -213.38484375 190.3015625 -212.6171875 190.328125 C-209.14463191 190.0152725 -209.14463191 190.0152725 -203 187 C-203 181.72 -203 176.44 -203 171 C-204.44375 170.9175 -205.8875 170.835 -207.375 170.75 C-213.06426719 170.20545586 -217.83483006 168.36279051 -223 166 Z M-192 169 C-190.77190909 170.64555699 -190.77190909 170.64555699 -189 172 C-186.83700789 171.77242269 -186.83700789 171.77242269 -185 171 C-184.67 169.35 -184.34 167.7 -184 166 C-187.08009879 166 -189.31135136 167.5972268 -192 169 Z M-196 176 C-196 177.98 -196 179.96 -196 182 C-194.35 180.68 -192.7 179.36 -191 178 C-193.475 177.01 -193.475 177.01 -196 176 Z M-31.9375 215.75 C-35.77648216 218.53341914 -38.60723486 219.3125589 -43.25 220.0625 C-46.44303278 220.78425487 -46.44303278 220.78425487 -49 223 C-51.27194699 228.02244313 -52.03986432 233.46257065 -52.9375 238.86328125 C-53.52743958 242.34506906 -54.29945717 244.87064762 -56.1875 247.85546875 C-58.21984571 250.77019595 -58.21984571 250.77019595 -57.984375 253.59765625 C-55.92113468 258.63294514 -52.29724508 262.71992225 -49 267 C-47.88625 268.546875 -47.88625 268.546875 -46.75 270.125 C-32.74093532 284.77084034 -13.51990181 292.9322987 6.625 293.4375 C28.27127303 292.74885929 46.76707505 284.42464556 61.65234375 268.7890625 C73.37867701 254.85794446 80.59334067 238.39356062 80 220 C79.24976563 220.15597656 78.49953125 220.31195313 77.7265625 220.47265625 C71.63882477 221.63039982 66.38855211 222.17751684 60.25390625 221.19140625 C57.63795677 220.96925456 55.56141547 221.45028983 53 222 C46.84705202 222.45838581 41.42694554 222.3131088 35.5625 220.3125 C29.97830344 218.59916696 26.31088259 219.69271912 20.7890625 221.21484375 C7.09223065 224.05305324 -8.49738954 223.13465456 -20.5625 215.8125 C-21.34753906 215.28269531 -22.13257813 214.75289062 -22.94140625 214.20703125 C-26.82904143 211.92756394 -28.66913733 213.29112008 -31.9375 215.75 Z M-149.8125 217.75 C-152.49057519 220.50459162 -152.3125 221.45004757 -152.3125 225.1875 C-152.23210847 226.79303374 -152.1352403 228.39815374 -152 230 C-146.51906355 232.11512648 -141.03638422 232.85869506 -135.25 233.625 C-134.3115625 233.7590625 -133.373125 233.893125 -132.40625 234.03125 C-126.21491419 234.86930374 -120.24700787 235.12494016 -114 235 C-114.495 227.575 -114.495 227.575 -115 220 C-116.11117187 220.17917969 -117.22234375 220.35835937 -118.3671875 220.54296875 C-128.37799554 222.02455033 -135.53588021 222.16023634 -144.8125 217.625 C-147.10009494 216.76902585 -147.10009494 216.76902585 -149.8125 217.75 Z M-171.85546875 222.48046875 C-172.23316406 222.98191406 -172.61085938 223.48335937 -173 224 C-171.42032193 224.67528223 -169.83608097 225.33989694 -168.25 226 C-167.36828125 226.37125 -166.4865625 226.7425 -165.578125 227.125 C-162.82246229 228.21425883 -162.82246229 228.21425883 -159 228 C-159 226.02 -159 224.04 -159 222 C-160.76813112 221.75084061 -162.53974982 221.52633368 -164.3125 221.3125 C-165.79169922 221.12107422 -165.79169922 221.12107422 -167.30078125 220.92578125 C-170.04368768 220.73018818 -170.04368768 220.73018818 -171.85546875 222.48046875 Z M-108 224 C-108.63506752 237.75979635 -105.10305894 251.28445711 -100 264 C-99.34 264.66 -98.68 265.32 -98 266 C-94.37 264.02 -90.74 262.04 -87 260 C-87.721875 259.505 -88.44375 259.01 -89.1875 258.5 C-95.83597248 252.59024668 -98.41017265 245.80203899 -99 237 C-98.86724431 232.63802726 -98.50978998 228.33321487 -98 224 C-101.3 224 -104.6 224 -108 224 Z M87 224 C86.195625 227.526875 85.39125 231.05375 84.5625 234.6875 C84.31056885 235.79053467 84.0586377 236.89356934 83.79907227 238.0300293 C83.49827759 239.35127808 83.49827759 239.35127808 83.19140625 240.69921875 C82.88505249 242.04246216 82.88505249 242.04246216 82.57250977 243.4128418 C82.01417549 245.93594127 81.49755218 248.46428225 81 251 C91.51574221 256.3837244 102.12936543 261.37419805 113 266 C118.36902244 251.96061446 122 239.19874889 122 224 C110.45 224 98.9 224 87 224 Z M-71.7578125 260.0625 C-72.42086395 260.37324463 -73.08391541 260.68398926 -73.76705933 261.00415039 C-75.88807497 261.99918937 -78.00654401 262.99952475 -80.125 264 C-81.56103356 264.67482902 -82.99722951 265.34931262 -84.43359375 266.0234375 C-87.95762707 267.67828678 -91.47938529 269.33789096 -95 271 C-95 281.72954491 -82.6032772 293.37719204 -75.46728516 300.52783203 C-74.42401538 301.57457358 -73.39370846 302.63430501 -72.37255859 303.70263672 C-70.95312569 305.17284048 -69.48019461 306.59098872 -68 308 C-67.34 308 -66.68 308 -66 308 C-64.06814453 305.59798938 -62.24112943 303.18328481 -60.4375 300.6875 C-55.48439485 293.94719197 -50.37762116 287.40968987 -45 281 C-45.845625 280.01 -46.69125 279.02 -47.5625 278 C-48.38234375 277.03707031 -48.38234375 277.03707031 -49.21875 276.0546875 C-50.38576427 274.7085263 -51.57283117 273.37943289 -52.78125 272.0703125 C-57.04726162 267.41137875 -60.1657366 262.64240456 -63 257 C-66.21903085 257 -68.89564965 258.70547734 -71.7578125 260.0625 Z M77 257 C75.57287591 259.12107449 74.24579641 261.24479633 72.9375 263.4375 C69.0158491 269.80826112 64.60097393 274.99487436 59 280 C63.24419068 286.9767518 68.31964308 293.2167602 73.50463867 299.50195312 C74.05482666 300.16904297 74.60501465 300.83613281 75.171875 301.5234375 C75.9158252 302.4194165 75.9158252 302.4194165 76.67480469 303.33349609 C77.86359201 304.82845967 78.94051807 306.4107771 80 308 C92.71465596 302.67758588 102.81753288 285.77344536 109 274 C109 273.01 109 272.02 109 271 C104.76644081 269.00130443 100.53057785 267.00760929 96.29248047 265.01855469 C94.85042586 264.34089622 93.40901564 263.66186476 91.96826172 262.98144531 C89.89978365 262.00486173 87.82905454 261.03320497 85.7578125 260.0625 C85.11192169 259.75626709 84.46603088 259.45003418 83.80056763 259.13452148 C80.53997709 257.52391846 80.53997709 257.52391846 77 257 Z M-40 285 C-45.69537001 291.61572447 -51.33324544 298.27819875 -56.75 305.125 C-57.1919873 305.66858154 -57.63397461 306.21216309 -58.08935547 306.7722168 C-59.44682015 308.46141108 -59.44682015 308.46141108 -61 311 C-59.62985077 315.11044769 -56.88096108 316.23188931 -53.3125 318.3125 C-52.64275146 318.70767822 -51.97300293 319.10285645 -51.28295898 319.51000977 C-42.30241569 324.69551187 -33.11167192 328.6343749 -23 331 C-21.85444163 326.659979 -20.71530214 322.31833905 -19.58203125 317.97509766 C-19.19576344 316.49840102 -18.80775804 315.02215774 -18.41796875 313.54638672 C-17.85737904 311.42272417 -17.30309774 309.29749939 -16.75 307.171875 C-16.57500977 306.51443298 -16.40001953 305.85699097 -16.21972656 305.17962646 C-15.38787755 301.95778067 -15 299.36469002 -15 296 C-15.63164063 295.79246094 -16.26328125 295.58492187 -16.9140625 295.37109375 C-24.98975491 292.58998354 -32.43987139 288.92905954 -40 285 Z M47.5 287.75 C41.61329533 291.36404365 35.53434868 293.82188377 29 296 C29.65235759 303.51006791 31.13409802 310.67122725 32.875 318 C33.13152344 319.14339844 33.38804687 320.28679687 33.65234375 321.46484375 C33.90886719 322.54894531 34.16539062 323.63304687 34.4296875 324.75 C34.65897949 325.73484375 34.88827148 326.7196875 35.12451172 327.734375 C35.41342285 328.48203125 35.70233398 329.2296875 36 330 C39.98215791 331.32738597 42.43970976 330.06597615 46.1875 328.625 C46.88713867 328.35896973 47.58677734 328.09293945 48.30761719 327.81884766 C53.6630012 325.70035238 58.72627989 323.18557876 63.75 320.375 C64.75003052 319.8173999 64.75003052 319.8173999 65.77026367 319.24853516 C69.32658088 317.19117666 72.25534361 315.06348011 75 312 C65.02026216 298.07314401 65.02026216 298.07314401 54 285 C51.20357607 285 49.84912808 286.24834217 47.5 287.75 Z M-8 298 C-10.1294987 305.88367604 -12.22796914 313.77552445 -14.25 321.6875 C-14.42499023 322.3578125 -14.59998047 323.028125 -14.78027344 323.71875 C-15.60224735 326.96695274 -16 329.61552466 -16 333 C-0.74736764 336.11732632 14.7438647 335.95940486 30 333 C28.66258145 324.99841016 26.88620186 317.16965944 24.875 309.3125 C24.59785156 308.21744141 24.32070313 307.12238281 24.03515625 305.99414062 C23.36003585 303.32857906 22.68160672 300.66390888 22 298 C21.12988281 298.10610596 21.12988281 298.10610596 20.2421875 298.21435547 C10.71658971 299.3323557 1.51043842 299.26805846 -8 298 Z " fill="#020202" transform="translate(652,226)"/>
<path d="M0 0 C2.94912835 1.82845957 4.46472177 2.92944355 6 6 C7.71050321 21.00355674 0.15283941 33.59239331 -8.8125 45.0625 C-13.2560443 50.36115936 -18.07071659 55.27797641 -22.9375 60.1875 C-23.69587158 60.95521729 -24.45424316 61.72293457 -25.2355957 62.51391602 C-25.95062256 63.22475342 -26.66564941 63.93559082 -27.40234375 64.66796875 C-28.04679443 65.31016357 -28.69124512 65.9523584 -29.35522461 66.61401367 C-31 68 -31 68 -33 68 C-33.33 72.62 -33.66 77.24 -34 82 C-32.6696875 79.958125 -32.6696875 79.958125 -31.3125 77.875 C-24.87773462 68.33430861 -17.5615632 62.37437547 -8 56 C-5.66015625 55.69921875 -5.66015625 55.69921875 -3.0625 55.6875 C-2.20785156 55.67074219 -1.35320312 55.65398437 -0.47265625 55.63671875 C2.58871027 56.08649298 3.91546536 56.70265904 6 59 C7.3970614 65.72466122 3.0336052 72.51153547 0.375 78.50585938 C-2.39175377 84.94525564 -4.04936794 91.05430734 -5 98 C1.69539259 95.38006377 8.8708849 92.1291151 14 87 C14.65360567 85.14296418 14.65360567 85.14296418 15.11328125 83 C15.30688232 82.19941162 15.5004834 81.39882324 15.69995117 80.57397461 C15.90209229 79.72456299 16.1042334 78.87515137 16.3125 78 C20.40692171 61.59307829 20.40692171 61.59307829 26 56 C27.875 55.76953125 27.875 55.76953125 30 55.8125 C31.051875 55.82216797 31.051875 55.82216797 32.125 55.83203125 C34 56 34 56 36 57 C35.6591647 61.88530594 34.36567582 65.87652587 32.5625 70.4375 C29.35630951 78.55490713 26.93055431 86.14561875 28 95 C29.65559342 98.23497283 29.65559342 98.23497283 32.5625 98.5625 C38.67411679 97.56241725 43.37205395 94.1381978 47.09375 89.25 C49.10637856 85.81863328 50.52585731 82.34721366 51.875 78.625 C55.56240741 69.03002454 60.16122993 62.44649158 69 57 C74.85318005 55.04893998 83.40584861 54.55235569 89.25 56.90625 C92.73236372 59.6224937 94.20046954 62.76248858 95 67 C95.1402653 70.34131973 95.11886978 73.65843835 95 77 C108.3546692 70.75621241 108.3546692 70.75621241 116.7265625 59.0859375 C118.20987867 56.65621102 119.54314854 55.428938 122 54 C128.43636364 54.43636364 128.43636364 54.43636364 130 56 C129.91621094 56.80824219 129.83242188 57.61648438 129.74609375 58.44921875 C128.82759184 68.08767553 131.8253832 72.81678936 137.6171875 80.00390625 C140.96176527 84.20930157 142.20334001 86.90897345 142.625 92.25 C142.73714844 93.58804688 142.73714844 93.58804688 142.8515625 94.953125 C142.90054687 95.62859375 142.94953125 96.3040625 143 97 C147.22104999 94.27809315 147.22104999 94.27809315 151 91 C151.51005188 88.39077505 151.93366706 85.81567134 152.3125 83.1875 C153.86141361 73.53571052 155.97599131 63.24637023 163 56 C166.36844905 55.14835439 169.86599115 55.43299558 173 57 C172.6591647 61.88530594 171.36567582 65.87652587 169.5625 70.4375 C166.35630951 78.55490713 163.93055431 86.14561875 165 95 C166.65559342 98.23497283 166.65559342 98.23497283 169.5625 98.5625 C174.69754443 97.72222 179.30548425 94.69451575 183 91 C183.27868358 88.81596893 183.5216511 86.62736598 183.75 84.4375 C184.45593757 78.55731209 185.64537539 72.97708622 187.375 67.3125 C187.67035645 66.3069104 187.67035645 66.3069104 187.97167969 65.28100586 C189.25544269 61.27307327 190.61662284 58.55831922 194 56 C197.6875 55.6875 197.6875 55.6875 201 56 C202 57 202 57 202.25 59.5625 C202.00133589 62.98163145 201.09249767 65.48616682 199.80078125 68.6328125 C198.23101835 73.27318479 197.68522211 78.16313804 197 83 C197.40089844 82.32195312 197.80179688 81.64390625 198.21484375 80.9453125 C204.4539533 70.73071592 212.02733543 60.48633228 223 55 C226.91814776 54.63036342 229.40193358 54.72588623 233 56.375 C235.71734082 59.94150983 235.04058494 61.89897934 234.51171875 66.20068359 C233.66198815 70.84906675 232.11308963 75.19386221 230.5 79.625 C228.27026098 85.80379487 226.55090812 91.43501159 226 98 C227.58420129 97.37720331 229.16732531 96.75166599 230.75 96.125 C231.63171875 95.77695312 232.5134375 95.42890625 233.421875 95.0703125 C235.6740248 94.1353291 237.83649459 93.12219206 240 92 C239.95359375 91.40574219 239.9071875 90.81148438 239.859375 90.19921875 C239.43614422 80.4800263 241.88222237 73.03757707 248.25 65.625 C254.41998568 59.33481979 258.5722024 55.76686251 267.625 55.5 C272.43794012 55.7223067 276.13294551 55.9063564 280 59 C284.53208961 64.05315873 285.52882842 68.39594088 285.17578125 75.09375 C285.11777344 75.7228125 285.05976562 76.351875 285 77 C291.90539655 74.28259858 298.50555622 70.98440547 303.4765625 65.31640625 C305 64 305 64 309 64 C309.9375 66.5 309.9375 66.5 310 70 C305.13289779 78.51312931 295.44806686 84.16836217 286.3125 86.9375 C284.8795542 87.30966477 283.44351708 87.67121628 282 88 C281.92523437 88.556875 281.85046875 89.11375 281.7734375 89.6875 C280.69153008 95.96680584 278.61344651 100.52819439 274 105 C267.86363694 109.08304157 261.37736631 110.79755311 254 110 C250.51794235 108.66074706 248.45761032 107.49921126 245.9375 104.75 C245.298125 104.1725 244.65875 103.595 244 103 C240.1390864 103.38806457 237.17161762 104.8066699 233.75 106.5625 C228.80319987 108.84922836 224.42483379 110.39433479 219 109 C216.24430553 106.81840855 214.56411253 105.12822506 213 102 C212.6428037 95.93427767 213.5428464 91.07143223 215.375 85.3125 C215.59671875 84.57966797 215.8184375 83.84683594 216.046875 83.09179688 C217.20341674 79.31942986 218.46413888 75.638699 220 72 C214.85113988 75.90229398 211.2867723 80.24562177 207.5625 85.5 C206.70664307 86.68517212 206.70664307 86.68517212 205.83349609 87.89428711 C201.79596914 93.58677414 198.55649928 99.28641164 195.7578125 105.69140625 C194 108 194 108 190.3046875 108.83984375 C189.21414063 108.89269531 188.12359375 108.94554687 187 109 C186.01 107.68 185.02 106.36 184 105 C179.77583415 106.374956 179.77583415 106.374956 175.6640625 108.046875 C170.51410304 109.88938249 164.0321667 110.1882058 158.88671875 108.171875 C157.25 107.125 157.25 107.125 155 105 C155 104.34 155 103.68 155 103 C153.37191406 103.63228516 153.37191406 103.63228516 151.7109375 104.27734375 C150.26573796 104.83102409 148.82041909 105.38439305 147.375 105.9375 C146.66214844 106.21529297 145.94929688 106.49308594 145.21484375 106.77929688 C133.85391345 111.10478869 121.34559376 111.82703444 110 107 C105.71362856 104.57375202 102.15231431 101.8013202 99 98 C98.50571246 93.96554497 99.44505401 91.62953454 101.5 88.1875 C101.9640625 87.39730469 102.428125 86.60710937 102.90625 85.79296875 C103.44765625 84.90544922 103.44765625 84.90544922 104 84 C96.50322689 86.17680439 96.50322689 86.17680439 90.55859375 90.83203125 C89.97175396 92.1662365 89.42005035 93.51638489 88.90234375 94.87890625 C86.30115666 100.99338499 81.13835905 105.69526661 75.109375 108.3125 C69.79658343 110.04407651 65.68792139 110.68109109 60.4375 108.5625 C59.2309375 107.7890625 59.2309375 107.7890625 58 107 C56.58561049 111.00339726 55.55381637 114.88307211 54.81640625 119.0625 C54.61080078 120.18914062 54.40519531 121.31578125 54.19335938 122.4765625 C53.77290725 124.82484621 53.35623733 127.17381026 52.94335938 129.5234375 C50.91050736 140.59329832 50.91050736 140.59329832 48 145 C44.77626323 147.14915785 43.73296326 147.38286803 40 147 C38 145 38 145 37.71899414 143.08959961 C37.73036497 135.71599678 38.96157496 128.771357 40.4375 121.5625 C40.78264648 119.80776367 40.78264648 119.80776367 41.13476562 118.01757812 C42.82126116 109.53621652 42.82126116 109.53621652 44 106 C42.9275 106.495 41.855 106.99 40.75 107.5 C35.2388904 109.54950517 29.80545289 109.73383534 24 109 C20.15663891 107.21084915 18.53751616 106.23774979 16.8515625 102.35546875 C16.57054687 101.57816406 16.28953125 100.80085938 16 100 C14.89140625 100.56589844 13.7828125 101.13179688 12.640625 101.71484375 C11.17719097 102.45594175 9.71364333 103.19681544 8.25 103.9375 C7.52039063 104.31068359 6.79078125 104.68386719 6.0390625 105.06835938 C5.33007812 105.42607422 4.62109375 105.78378906 3.890625 106.15234375 C3.24125977 106.48226318 2.59189453 106.81218262 1.92285156 107.15209961 C-2.85030213 109.25686888 -7.85314885 109.76012215 -13 109 C-16.0625 107.1875 -16.0625 107.1875 -18 104 C-20.26719379 93.18867093 -14.90264104 81.38834194 -10 72 C-23.62280492 79.60848147 -32.27088639 93.91592905 -38 108 C-39 109 -39 109 -41.875 109.3125 C-45 109 -45 109 -46.8125 107.3125 C-48.07389831 104.85609277 -48.51147136 102.70259424 -49 100 C-49.37769531 100.4846875 -49.75539063 100.969375 -50.14453125 101.46875 C-57.66895041 110.63197707 -66.95375457 116.81004484 -78 121 C-78.8146875 121.3196875 -79.629375 121.639375 -80.46875 121.96875 C-91.42887685 125.62212562 -105.98826683 126.05242634 -116.6484375 121.31640625 C-128.26754619 114.81202149 -135.16630111 105.18328344 -139.0546875 92.58203125 C-140.44676634 86.88032742 -140.34144002 81.15167367 -140.3125 75.3125 C-140.30758545 74.15218262 -140.3026709 72.99186523 -140.29760742 71.79638672 C-140.18771081 63.78126035 -139.7050609 56.60458889 -137 49 C-136.47212891 47.49179687 -136.47212891 47.49179687 -135.93359375 45.953125 C-128.95926273 27.81526082 -115.96176311 12.45228253 -98.25 4.0625 C-87.25874227 -0.48452531 -75.50063638 -2.01718836 -64 2 C-58.08023807 5.13399161 -53.6677513 9.74030428 -50.625 15.6875 C-48.89074904 24.87903009 -49.50286898 31.97456917 -54.09765625 40.234375 C-58.89990402 47.21587689 -65.2369781 51.79891328 -73 55 C-73.97066406 55.44666016 -73.97066406 55.44666016 -74.9609375 55.90234375 C-79.85968992 58.00319212 -84.68261249 58.84945817 -90 58 C-92 56 -92 56 -92.375 53.5625 C-92 51 -92 51 -90.3984375 49.48046875 C-87.4532693 47.66252291 -84.55442995 46.77451758 -81.25 45.75 C-74.35793775 43.37367437 -68.82128253 40.42407095 -64.82421875 34.15625 C-63.09614583 29.63541468 -63.35299763 24.73605733 -64 20 C-66.52646441 16.51757609 -67.95680465 15.34773178 -72 14 C-84.8000589 12.7469583 -93.51549075 15.34833801 -103.6875 23.5 C-117.10714662 36.26205958 -123.66049517 54.05964411 -124.33398438 72.23974609 C-124.54776286 83.69470992 -122.3872572 94.87323575 -115 104 C-109.08902616 109.7554219 -103.74645891 111.19645308 -95.6875 111.375 C-81.74350452 111.04593816 -70.28731215 105.62093539 -60.06640625 96.16796875 C-57.26117109 93.22485814 -54.89905537 90.04010069 -52.60546875 86.6875 C-51.81076172 85.8521875 -51.81076172 85.8521875 -51 85 C-49.68 85 -48.36 85 -47 85 C-47.061875 83.741875 -47.12375 82.48375 -47.1875 81.1875 C-47.14809632 67.21889448 -43.70571699 53.38828316 -39.63964844 40.109375 C-39.02728748 38.0899862 -38.45270601 36.06295591 -37.8828125 34.03125 C-34.01022917 21.10483391 -27.44461767 8.76897404 -16 1 C-10.62721895 -1.68639052 -5.768342 -1.22122556 0 0 Z " fill="#CCCDC4" transform="translate(532,322)"/>
<path d="M0 0 C0.64195312 0.47824219 1.28390625 0.95648438 1.9453125 1.44921875 C11.0649416 8.58543076 18.09445302 19.53719562 20 31 C20.08557873 33.2380233 20.1177432 35.47836264 20.11352539 37.71801758 C20.11367142 38.37223694 20.11381744 39.0264563 20.1139679 39.70050049 C20.11327494 41.84854526 20.10551164 43.99650175 20.09765625 46.14453125 C20.09578988 47.63954114 20.09436701 49.13455165 20.09336853 50.62956238 C20.08956064 54.55371811 20.07974518 58.4778365 20.06866455 62.40197754 C20.05841321 66.41055801 20.05386294 70.41914455 20.04882812 74.42773438 C20.0381213 82.28517334 20.02106572 90.14258202 20 98 C20.95619736 98.1302356 21.91239471 98.26047119 22.89756775 98.39465332 C24.15461014 98.56928101 25.41165253 98.74390869 26.70678711 98.92382812 C28.57420815 99.18105652 28.57420815 99.18105652 30.47935486 99.44348145 C34.66560627 100.10521431 38.56082946 101.13438337 42.5625 102.5 C43.22056641 102.71269531 43.87863281 102.92539062 44.55664062 103.14453125 C48.09340053 104.30098434 51.56301459 105.57506939 55 107 C55 107.33 55 107.66 55 108 C47.79164689 110.01900631 42.22582626 110.40860875 35 108 C34.13532477 111.97995902 33.28087066 115.96196577 32.43652344 119.94628906 C32.14762585 121.30546494 31.85664079 122.66419895 31.56347656 124.02246094 C31.13944139 125.99263795 30.72588543 127.96506096 30.3125 129.9375 C30.06113281 131.12214844 29.80976562 132.30679688 29.55078125 133.52734375 C28.98771284 137.07747013 28.90376536 140.41182288 29 144 C27.02 144.99 27.02 144.99 25 146 C22.43536553 143.28450468 20.9974269 141.5129818 21.00390625 137.703125 C21.52874305 134.43116947 22.24439962 131.22409267 23 128 C23.42200432 126.10969399 23.842448 124.2190392 24.26171875 122.328125 C25.47864715 116.87853591 26.72991294 111.43742417 28 106 C13.85985334 104.91824015 0.13942274 104.94253612 -14 106 C-13.80776855 106.82725586 -13.61553711 107.65451172 -13.41748047 108.50683594 C-12.70950454 111.58322678 -12.01395289 114.66209211 -11.32666016 117.74316406 C-11.02691275 119.07501469 -10.72226594 120.40577263 -10.41259766 121.73535156 C-9.96785827 123.64873193 -9.54227615 125.56653319 -9.1171875 127.484375 C-8.85534668 128.63647461 -8.59350586 129.78857422 -8.32373047 130.97558594 C-7.97857875 134.20012549 -8.15605724 135.3901809 -10 138 C-12.125 139.75 -12.125 139.75 -14 141 C-21 113.63959391 -21 113.63959391 -21 108 C-31.89368875 111.75240086 -42.16020619 115.80343351 -52.19140625 121.49609375 C-55 123 -55 123 -57 123 C-59.13604308 119.79593538 -59.24208908 119.00399253 -59.1953125 115.33203125 C-59.18564453 113.99301758 -59.18564453 113.99301758 -59.17578125 112.62695312 C-59.15064453 111.23379883 -59.15064453 111.23379883 -59.125 109.8125 C-59.11597656 108.87212891 -59.10695313 107.93175781 -59.09765625 106.96289062 C-59.07409056 104.64167032 -59.04119116 102.32096356 -59 100 C-60.74410156 100.30744141 -60.74410156 100.30744141 -62.5234375 100.62109375 C-73.69270952 102.52317131 -84.6794492 103.60777064 -96 104 C-97.4606285 101.35261084 -98 100.10551666 -98 97 C-97.16339844 96.91959473 -96.32679688 96.83918945 -95.46484375 96.75634766 C-92.32584105 96.4517462 -89.18743335 96.14171055 -86.04931641 95.828125 C-84.69763881 95.69414885 -83.34575186 95.56226606 -81.99365234 95.43261719 C-74.83305869 94.74460745 -67.91483001 94.02858533 -61 92 C-62.43660741 89.436996 -63.87425419 86.8745844 -65.3125 84.3125 C-65.71662109 83.59126953 -66.12074219 82.87003906 -66.53710938 82.12695312 C-68.639048 78.38447704 -70.76578225 74.66585243 -73 71 C-73.9446814 71.13631836 -73.9446814 71.13631836 -74.90844727 71.27539062 C-77.79243446 71.68863762 -80.67743163 72.09437291 -83.5625 72.5 C-84.55314453 72.64308594 -85.54378906 72.78617187 -86.56445312 72.93359375 C-87.53447266 73.06894531 -88.50449219 73.20429688 -89.50390625 73.34375 C-90.38892822 73.46943359 -91.2739502 73.59511719 -92.18579102 73.72460938 C-95.44292364 74.04334327 -98.72730933 74 -102 74 C-102 79.28 -102 84.56 -102 90 C-108 85 -108 85 -108.5859375 82.10546875 C-108.48152344 80.66107422 -108.48152344 80.66107422 -108.375 79.1875 C-108.29378906 77.72376953 -108.29378906 77.72376953 -108.2109375 76.23046875 C-108.14132812 75.49441406 -108.07171875 74.75835937 -108 74 C-109.50626953 73.92652344 -109.50626953 73.92652344 -111.04296875 73.8515625 C-119.8002132 73.38595753 -128.35054393 72.52550338 -137 71 C-137.40089844 71.78503906 -137.80179688 72.57007813 -138.21484375 73.37890625 C-141.69502281 79.81052969 -144.83610552 84.22189014 -150.84375 88.3984375 C-154.13511222 90.84310871 -156.45500332 93.80244007 -159 97 C-160.0828125 95.8553125 -160.0828125 95.8553125 -161.1875 94.6875 C-163.69790967 92.28866409 -165.96808302 90.64589779 -169 89 C-168.67 88.34 -168.34 87.68 -168 87 C-164.37 87.99 -160.74 88.98 -157 90 C-155.56069536 87.45934066 -154.12351161 84.91751978 -152.6875 82.375 C-152.28337891 81.66214844 -151.87925781 80.94929688 -151.46289062 80.21484375 C-149.19420489 76.19392107 -147.0236356 72.15205492 -145 68 C-145.68964844 67.70867187 -146.37929688 67.41734375 -147.08984375 67.1171875 C-153.53447286 64.30595011 -159.29110529 61.10194657 -165 57 C-169.95155823 59.31175525 -174.12529279 62.63520929 -178.5 65.875 C-179.35464844 66.50019531 -180.20929688 67.12539063 -181.08984375 67.76953125 C-181.91613281 68.37925781 -182.74242187 68.98898437 -183.59375 69.6171875 C-184.34333984 70.17003418 -185.09292969 70.72288086 -185.86523438 71.29248047 C-188.07604172 73.06082294 -190.03627111 74.96343745 -192 77 C-191.01 77.66 -190.02 78.32 -189 79 C-201.46875 80.36298077 -201.46875 80.36298077 -207.19921875 77.27734375 C-212.76594984 72.75097802 -217.33330991 67.41981587 -222 62 C-222.00410889 62.65073486 -222.00821777 63.30146973 -222.01245117 63.97192383 C-222.04534173 66.91970746 -222.11597762 69.86541134 -222.1875 72.8125 C-222.19330078 73.83666016 -222.19910156 74.86082031 -222.20507812 75.91601562 C-222.2871855 78.69854347 -222.41260318 81.27818377 -223 84 C-225.48209285 86.25027097 -226.67592561 87 -230 87 C-230.09326839 79.75821738 -230.16404967 72.51656728 -230.20724869 65.27430248 C-230.22799721 61.91027075 -230.25607591 58.5466542 -230.30175781 55.18286133 C-230.35062704 51.30278844 -230.37305005 47.42329474 -230.390625 43.54296875 C-230.41127014 42.35293747 -230.43191528 41.16290619 -230.45318604 39.93681335 C-230.45629715 28.19408216 -227.03763472 19.31242574 -220 10 C-219.57203125 9.40703125 -219.1440625 8.8140625 -218.703125 8.203125 C-199.18473375 -16.82634142 -160.94060031 -24.9984957 -131.15966797 -28.73876953 C-87.64086852 -34.00274369 -35.22227402 -28.16595987 0 0 Z M-129.5625 -22.125 C-130.37243408 -22.03621582 -131.18236816 -21.94743164 -132.0168457 -21.85595703 C-138.06291965 -21.16866983 -144.0439807 -20.25812542 -150 -19 C-148.25727938 -14.10471737 -145.7170619 -9.73131985 -143.125 -5.25 C-142.69058594 -4.47011719 -142.25617188 -3.69023437 -141.80859375 -2.88671875 C-141.16470703 -1.77490234 -141.16470703 -1.77490234 -140.5078125 -0.640625 C-140.12254395 0.03452148 -139.73727539 0.70966797 -139.34033203 1.40527344 C-137.65584552 3.40947487 -136.56580042 3.67760552 -134 4 C-132.01138833 3.78184007 -130.03123909 3.48029778 -128.0625 3.125 C-121.37712595 2.0031912 -114.76285564 1.44590257 -108 1 C-108 -6.92 -108 -14.84 -108 -23 C-115.37862364 -23 -122.30437337 -22.95884381 -129.5625 -22.125 Z M-102 -23 C-102 -15.08 -102 -7.16 -102 1 C-95.82342168 1.61373802 -95.82342168 1.61373802 -89.64672852 2.22631836 C-84.09322112 2.77991256 -78.54579317 3.37377107 -73 4 C-71.39526997 1.4378513 -69.79119818 -1.12470555 -68.1875 -3.6875 C-67.73568359 -4.40873047 -67.28386719 -5.12996094 -66.81835938 -5.87304688 C-65.93868362 -7.27924389 -65.06086109 -8.68660224 -64.18505859 -10.09521484 C-63.18758133 -11.69849412 -62.18254874 -13.29706934 -61.17578125 -14.89453125 C-59.8374776 -16.8891074 -59.8374776 -16.8891074 -60 -19 C-74.17486847 -21.50422676 -87.50010883 -23 -102 -23 Z M-53 -17 C-55.17373046 -13.3791912 -57.33777229 -9.75268765 -59.5 -6.125 C-60.43005859 -4.57619141 -60.43005859 -4.57619141 -61.37890625 -2.99609375 C-61.96542969 -2.00996094 -62.55195312 -1.02382812 -63.15625 -0.0078125 C-63.70087891 0.90339355 -64.24550781 1.81459961 -64.80664062 2.75341797 C-66.15637104 4.87040225 -66.15637104 4.87040225 -66 7 C-65.23816406 7.29132813 -64.47632813 7.58265625 -63.69140625 7.8828125 C-56.87277965 10.5898328 -50.91326227 13.65464818 -45 18 C-41.13541707 16.26760076 -37.79488168 13.84002179 -34.375 11.375 C-33.76124512 10.93494629 -33.14749023 10.49489258 -32.51513672 10.04150391 C-27.20092856 6.20292635 -22.05725073 2.17164922 -17 -2 C-19.70541627 -5.30661989 -23.29609963 -6.72675218 -27.125 -8.375 C-27.81916016 -8.67736572 -28.51332031 -8.97973145 -29.22851562 -9.29125977 C-36.94647727 -12.55277104 -44.91933125 -14.8298204 -53 -17 Z M-158 -17 C-170.19436964 -13.19995094 -181.79724203 -9.19446617 -193 -3 C-188.70025153 1.55114505 -183.93894222 5.35100024 -179 9.1875 C-178.2059375 9.81591797 -177.411875 10.44433594 -176.59375 11.09179688 C-175.8203125 11.69443359 -175.046875 12.29707031 -174.25 12.91796875 C-173.55390625 13.46219482 -172.8578125 14.0064209 -172.140625 14.56713867 C-169.80815346 16.12841553 -167.68470637 17.17812875 -165 18 C-162.34154839 16.84863036 -162.34154839 16.84863036 -159.8125 14.875 C-154.74758576 11.38598978 -149.79102822 9.02246322 -144 7 C-145.68515915 2.35442613 -148.0183865 -1.8339069 -150.4375 -6.125 C-150.83259766 -6.84042969 -151.22769531 -7.55585938 -151.63476562 -8.29296875 C-152.02212891 -8.98261719 -152.40949219 -9.67226562 -152.80859375 -10.3828125 C-153.33151001 -11.31697998 -153.33151001 -11.31697998 -153.86499023 -12.27001953 C-155.06531833 -14.09955812 -156.40497104 -15.50924931 -158 -17 Z M-211 10 C-217.33082076 16.54652164 -223 24.53936659 -223 34 C-207.16 34 -191.32 34 -175 34 C-173.02 28.555 -173.02 28.555 -171 23 C-178.19944513 17.18733324 -185.40419215 11.37738872 -192.75 5.75 C-193.69359375 5.02296875 -194.6371875 4.2959375 -195.609375 3.546875 C-201.76792701 -0.43807042 -206.51792656 5.91633309 -211 10 Z M-17.875 6.375 C-19.03357287 7.28941902 -20.19243603 8.20347034 -21.3515625 9.1171875 C-21.9487207 9.59124023 -22.54587891 10.06529297 -23.16113281 10.55371094 C-24.99599049 11.99684648 -26.84877887 13.41262681 -28.7109375 14.8203125 C-29.30406738 15.26971191 -29.89719727 15.71911133 -30.50830078 16.18212891 C-31.65343576 17.04860474 -32.80020268 17.91292878 -33.94873047 18.77490234 C-36.93342408 20.98253556 -36.93342408 20.98253556 -39 24 C-37.68 27.3 -36.36 30.6 -35 34 C-19.16 34 -3.32 34 13 34 C10.08658113 20.88961509 4.98701802 12.01574811 -5.875 3.875 C-11.32657022 0.60405787 -13.45600968 2.81780447 -17.875 6.375 Z M-165.2578125 26.75390625 C-168.08736894 30.401877 -169.40579229 33.6881587 -169 38.3125 C-168.03293693 44.79182256 -164.72697284 48.79600826 -159.71875 52.84375 C-137.88789371 67.8360248 -108.37306555 70.2100932 -82.875 65.875 C-69.23241522 63.20601432 -53.42241229 58.05320653 -44.375 47 C-41.5828384 42.79152454 -40.39937391 39.12077888 -41.37890625 34.03125 C-43.82734911 26.02376393 -49.31969071 21.72368925 -56.4465332 17.86572266 C-87.54052854 1.91761947 -139.34230505 0.12643431 -165.2578125 26.75390625 Z M-223 40 C-219.9887117 53.55079734 -214.33794172 62.96966805 -202.875 71.1875 C-201.92625 71.785625 -200.9775 72.38375 -200 73 C-193.69279902 69.0454851 -187.84722326 64.61541158 -182.05029297 59.9597168 C-178.47668805 57.10255924 -174.8431875 54.48436703 -171 52 C-171.433125 50.700625 -171.433125 50.700625 -171.875 49.375 C-172.91666667 46.25 -173.95833333 43.125 -175 40 C-190.84 40 -206.68 40 -223 40 Z M-35 40 C-37.78296029 45.84921562 -37.78296029 45.84921562 -39 52 C-37.10032219 53.60460211 -37.10032219 53.60460211 -34.5625 55.3125 C-29.2211171 59.09481433 -24.00334477 63.01360064 -18.8125 67 C-18.04558838 67.58821533 -17.27867676 68.17643066 -16.48852539 68.7824707 C-14.65816197 70.18720677 -12.82863291 71.59301241 -11 73 C0.60232342 66.42328191 9.10236461 56.77558267 13 44 C13 42.68 13 41.36 13 40 C-2.84 40 -18.68 40 -35 40 Z M-45 56 C-47.20727257 57.26965487 -47.20727257 57.26965487 -49.5 59.125 C-54.6919572 62.94621924 -60.0583129 65.54877167 -66 68 C-62.17078533 76.03714289 -57.93194641 83.58748883 -53 91 C-40.2538786 88.29411948 -28.14016477 83.82297354 -17 77 C-21.54407368 72.09468197 -26.77362167 68.23474226 -32.125 64.25 C-33.48431641 63.22326172 -33.48431641 63.22326172 -34.87109375 62.17578125 C-35.74121094 61.52480469 -36.61132812 60.87382812 -37.5078125 60.203125 C-38.29816895 59.61176758 -39.08852539 59.02041016 -39.90283203 58.41113281 C-42.03760304 56.83899342 -42.03760304 56.83899342 -45 56 Z M12 60 C11.045351 61.2790443 10.11240364 62.57428393 9.1875 63.875 C6.09603477 68.06594032 2.86762374 70.48456231 -1.4375 73.375 C-4.47387018 75.74964567 -6.63870422 77.45505856 -7.53759766 81.29882812 C-8.05483258 87.00910164 -7.48953911 92.20712054 -7 98 C-0.4 98 6.2 98 13 98 C13 85.46 13 72.92 13 60 C12.67 60 12.34 60 12 60 Z M-16.87890625 84.03125 C-27.64636408 89.92435647 -39.34869361 93.28591042 -51 97 C-51 101.95 -51 106.9 -51 112 C-49.75347656 111.48050781 -48.50695312 110.96101563 -47.22265625 110.42578125 C-36.26981634 105.9201124 -25.41908257 102.15009174 -14 99 C-14 93.72 -14 88.44 -14 83 C-15.21111137 82.9198085 -15.21111137 82.9198085 -16.87890625 84.03125 Z " fill="#D1D2C9" transform="translate(652,226)"/>
<path d="M0 0 C0.66 0.268125 1.32 0.53625 2 0.8125 C2.99 1.204375 3.98 1.59625 5 2 C6.19625 2.53625 7.3925 3.0725 8.625 3.625 C16.45058007 6.50810845 24.06138847 5.43676855 31.7109375 2.55859375 C36.32174927 1.43342978 40.64878609 3.48213468 45 5 C46.76149935 34.61928545 33.13776182 63.75396422 14.04223633 85.68286133 C-5.24226542 107.10120414 -30.49170676 120.65422359 -59 125 C-59.76828125 125.13019531 -60.5365625 125.26039063 -61.328125 125.39453125 C-91.975191 129.78103879 -124.05072953 120.80375137 -149 103 C-171.61272648 86.04790334 -191.7090039 60.36615963 -196.375 31.69580078 C-196.61472287 29.800908 -196.81185354 27.90070688 -197 26 C-198.24136719 26.02449219 -199.48273438 26.04898437 -200.76171875 26.07421875 C-222.74036771 26.05276779 -244.60606422 20.93472667 -265 13 C-265 12.34 -265 11.68 -265 11 C-262.12942917 8.65135114 -260.54808889 7.97850632 -256.8125 8.125 C-252.13323786 9.19892902 -247.57116879 10.53759389 -243 12 C-243 10.02 -243 8.04 -243 6 C-240.35261084 4.5393715 -239.10551666 4 -236 4 C-235.67 7.3 -235.34 10.6 -235 14 C-230.70893131 14.64984717 -226.41704548 15.29413841 -222.125 15.9375 C-220.92101562 16.11990234 -219.71703125 16.30230469 -218.4765625 16.49023438 C-211.66216192 17.50869098 -204.86514828 18.4062628 -198 19 C-198.495 18.01 -198.495 18.01 -199 17 C-199.07116382 14.62597499 -199.08409085 12.24999323 -199.0625 9.875 C-199.05347656 8.59367187 -199.04445313 7.31234375 -199.03515625 5.9921875 C-199.02355469 5.00476563 -199.01195312 4.01734375 -199 3 C-195.11880906 1.18877756 -193.22839795 0.58669184 -189.0859375 1.98046875 C-186.34337286 3.24545011 -183.65851144 4.56738443 -181 6 C-181 6.66 -181 7.32 -181 8 C-184.63 8 -188.26 8 -192 8 C-190.50401413 22.04127088 -188.03892307 34.79117252 -183 48 C-179.79636556 48.26574554 -179.79636556 48.26574554 -176.8125 46 C-170.47666795 42.61134406 -162.96171099 43.69584758 -156 44 C-158.72950901 46.16131441 -161.39393117 47.79176521 -164.546875 49.26171875 C-165.39121094 49.65810547 -166.23554687 50.05449219 -167.10546875 50.46289062 C-168.41451172 51.06907227 -168.41451172 51.06907227 -169.75 51.6875 C-171.08224609 52.31108398 -171.08224609 52.31108398 -172.44140625 52.94726562 C-174.62572291 53.96896213 -176.81192708 54.98637935 -179 56 C-172.30306804 68.49972313 -163.0875407 85.45622965 -150 92 C-149.76539063 91.46632813 -149.53078125 90.93265625 -149.2890625 90.3828125 C-147.62279249 87.30273762 -145.52784395 84.62252762 -143.375 81.875 C-142.93494629 81.30821533 -142.49489258 80.74143066 -142.04150391 80.1574707 C-138.07772818 75.06516957 -134.05604426 70.01907153 -130 65 C-130.845625 64.01 -131.69125 63.02 -132.5625 62 C-133.10777344 61.360625 -133.65304687 60.72125 -134.21484375 60.0625 C-135.39918397 58.69415944 -136.59972095 57.33966209 -137.81640625 56 C-147 45.84449244 -147 45.84449244 -147 41 C-147.94875 41.515625 -148.8975 42.03125 -149.875 42.5625 C-150.90625 43.036875 -151.9375 43.51125 -153 44 C-153.66 43.67 -154.32 43.34 -155 43 C-153.21190303 41.82786955 -151.41940875 40.66244474 -149.625 39.5 C-148.62726563 38.8503125 -147.62953125 38.200625 -146.6015625 37.53125 C-144 36 -144 36 -142 36 C-140.7734375 37.8359375 -140.7734375 37.8359375 -139.375 40.375 C-129.51856095 57.17359444 -114.61611436 68.73619251 -95.72290039 73.90478516 C-77.98612669 78.27834604 -59.27193425 76.59568669 -43 68 C-25.79610096 57.58444746 -12.31266693 42.76904747 -7 23 C-6.244352 18.83573185 -5.62685491 14.6532976 -5.16259766 10.4465332 C-4.43038873 4.52692452 -4.43038873 4.52692452 -1.91015625 1.44140625 C-1.27980469 0.96574219 -0.64945313 0.49007813 0 0 Z M3 8 C2.195625 11.526875 1.39125 15.05375 0.5625 18.6875 C0.31056885 19.79053467 0.0586377 20.89356934 -0.20092773 22.0300293 C-0.50172241 23.35127808 -0.50172241 23.35127808 -0.80859375 24.69921875 C-1.11494751 26.04246216 -1.11494751 26.04246216 -1.42749023 27.4128418 C-1.98582451 29.93594127 -2.50244782 32.46428225 -3 35 C7.51574221 40.3837244 18.12936543 45.37419805 29 50 C34.36902244 35.96061446 38 23.19874889 38 8 C26.45 8 14.9 8 3 8 Z M-7 41 C-8.42712409 43.12107449 -9.75420359 45.24479633 -11.0625 47.4375 C-14.9841509 53.80826112 -19.39902607 58.99487436 -25 64 C-20.75580932 70.9767518 -15.68035692 77.2167602 -10.49536133 83.50195312 C-9.94517334 84.16904297 -9.39498535 84.83613281 -8.828125 85.5234375 C-8.0841748 86.4194165 -8.0841748 86.4194165 -7.32519531 87.33349609 C-6.13640799 88.82845967 -5.05948193 90.4107771 -4 92 C8.71465596 86.67758588 18.81753288 69.77344536 25 58 C25 57.01 25 56.02 25 55 C20.76644081 53.00130443 16.53057785 51.00760929 12.29248047 49.01855469 C10.85042586 48.34089622 9.40901564 47.66186476 7.96826172 46.98144531 C5.89978365 46.00486173 3.82905454 45.03320497 1.7578125 44.0625 C1.11192169 43.75626709 0.46603088 43.45003418 -0.19943237 43.13452148 C-3.46002291 41.52391846 -3.46002291 41.52391846 -7 41 Z M-124 69 C-129.69537001 75.61572447 -135.33324544 82.27819875 -140.75 89.125 C-141.1919873 89.66858154 -141.63397461 90.21216309 -142.08935547 90.7722168 C-143.44682015 92.46141108 -143.44682015 92.46141108 -145 95 C-143.62985077 99.11044769 -140.88096108 100.23188931 -137.3125 102.3125 C-136.64275146 102.70767822 -135.97300293 103.10285645 -135.28295898 103.51000977 C-126.30241569 108.69551187 -117.11167192 112.6343749 -107 115 C-105.85444163 110.659979 -104.71530214 106.31833905 -103.58203125 101.97509766 C-103.19576344 100.49840102 -102.80775804 99.02215774 -102.41796875 97.54638672 C-101.85737904 95.42272417 -101.30309774 93.29749939 -100.75 91.171875 C-100.57500977 90.51443298 -100.40001953 89.85699097 -100.21972656 89.17962646 C-99.38787755 85.95778067 -99 83.36469002 -99 80 C-99.63164063 79.79246094 -100.26328125 79.58492187 -100.9140625 79.37109375 C-108.98975491 76.58998354 -116.43987139 72.92905954 -124 69 Z M-36.5 71.75 C-42.38670467 75.36404365 -48.46565132 77.82188377 -55 80 C-54.34764241 87.51006791 -52.86590198 94.67122725 -51.125 102 C-50.86847656 103.14339844 -50.61195313 104.28679687 -50.34765625 105.46484375 C-50.09113281 106.54894531 -49.83460938 107.63304687 -49.5703125 108.75 C-49.34102051 109.73484375 -49.11172852 110.7196875 -48.87548828 111.734375 C-48.58657715 112.48203125 -48.29766602 113.2296875 -48 114 C-44.01784209 115.32738597 -41.56029024 114.06597615 -37.8125 112.625 C-37.11286133 112.35896973 -36.41322266 112.09293945 -35.69238281 111.81884766 C-30.3369988 109.70035238 -25.27372011 107.18557876 -20.25 104.375 C-19.24996948 103.8173999 -19.24996948 103.8173999 -18.22973633 103.24853516 C-14.67341912 101.19117666 -11.74465639 99.06348011 -9 96 C-18.97973784 82.07314401 -18.97973784 82.07314401 -30 69 C-32.79642393 69 -34.15087192 70.24834217 -36.5 71.75 Z M-92 82 C-94.1294987 89.88367604 -96.22796914 97.77552445 -98.25 105.6875 C-98.42499023 106.3578125 -98.59998047 107.028125 -98.78027344 107.71875 C-99.60224735 110.96695274 -100 113.61552466 -100 117 C-84.74736764 120.11732632 -69.2561353 119.95940486 -54 117 C-55.33741855 108.99841016 -57.11379814 101.16965944 -59.125 93.3125 C-59.40214844 92.21744141 -59.67929687 91.12238281 -59.96484375 89.99414062 C-60.63996415 87.32857906 -61.31839328 84.66390888 -62 82 C-62.87011719 82.10610596 -62.87011719 82.10610596 -63.7578125 82.21435547 C-73.28341029 83.3323557 -82.48956158 83.26805846 -92 82 Z " fill="#D1D2C9" transform="translate(736,442)"/>
<path d="M0 0 C0.99 0.66 1.98 1.32 3 2 C2.60028969 4.87791422 2.28450918 6.64720862 0.4375 8.9375 C-1.53848443 11.77260809 -1.43169941 13.61835461 -1 17 C-0.01979625 18.0194119 0.97803008 19.02246356 2 20 C1.58770864 23.27084478 0.32246894 25.17113697 -1.8125 27.625 C-2.31394531 28.21539062 -2.81539062 28.80578125 -3.33203125 29.4140625 C-6.03076777 31.98007428 -8.24553383 32.91973764 -11.9375 33.3125 C-15.38678616 32.96053202 -17.11949711 31.84722605 -20 30 C-18.30666686 19.95883156 -16.29559735 8.89842755 -8.5 1.6875 C-5.39572256 -0.40788727 -3.67692614 -0.47959906 0 0 Z " fill="#060606" transform="translate(611,388)"/>
<path d="M0 0 C0.6875 1.75 0.6875 1.75 1 4 C0.525625 4.61875 0.05125 5.2375 -0.4375 5.875 C-2.56918595 8.77409289 -2.51364735 10.47784677 -2 14 C-1.319375 14.639375 -0.63875 15.27875 0.0625 15.9375 C2 18 2 18 2.0625 21.375 C0.76039004 25.81749282 -0.7896574 27.71135636 -4 31 C-7.04983996 32.52491998 -9.6423369 32.23562548 -13 32 C-15.10358381 30.45737187 -15.84054159 29.31891683 -17 27 C-17.77641151 17.28582811 -16.46396428 10.26521436 -10.4375 2.56640625 C-7.39235481 -0.75180902 -4.27779246 -0.07921838 0 0 Z " fill="#050505" transform="translate(802,389)"/>
<path d="M0 0 C1.0828125 0.37125 1.0828125 0.37125 2.1875 0.75 C3.76325289 11.97723937 -3.25669867 21.56410129 -9.75634766 30.19042969 C-11.73558287 32.74308819 -13.76601791 35.25106439 -15.8125 37.75 C-16.52921875 38.69617188 -17.2459375 39.64234375 -17.984375 40.6171875 C-18.88929688 41.67292969 -18.88929688 41.67292969 -19.8125 42.75 C-20.4725 42.75 -21.1325 42.75 -21.8125 42.75 C-21.24255018 36.88481872 -20.07578647 31.63813469 -18.1875 26.0625 C-17.92461182 25.28374512 -17.66172363 24.50499023 -17.39086914 23.70263672 C-8.82223619 -0.78419877 -8.82223619 -0.78419877 0 0 Z " fill="#0A0A09" transform="translate(522.8125,334.25)"/>
<path d="M0 0 C4.18129694 1.39376565 5.12657866 4.27707333 7 8 C7.4125 8.804375 7.825 9.60875 8.25 10.4375 C9.35650818 14.21806962 9.37661051 17.0455896 9 21 C7.5625 23.5 7.5625 23.5 5 25 C0.50220333 25.73005282 -2.95484621 25.51191206 -7.0625 23.5 C-7.701875 23.005 -8.34125 22.51 -9 22 C-8.36111113 16.93959451 -6.13720723 12.71988466 -3.9375 8.1875 C-3.37192383 7.00510742 -3.37192383 7.00510742 -2.79492188 5.79882812 C-1.86829839 3.86347527 -0.93482533 1.93140451 0 0 Z " fill="#080808" transform="translate(654,397)"/>
<path d="M0 0 C1.77734375 1.28515625 1.77734375 1.28515625 3 3 C3.63025284 7.88445953 3.74637221 9.88044169 1 14 C-3.13665594 16.75777063 -5.08692938 16.62388198 -10 16 C-12.5 15.0625 -12.5 15.0625 -14 13 C-14.77206516 8.75364161 -14.67928352 5.26593748 -12.625 1.4375 C-8.62737296 -0.75167671 -4.45727343 -0.82597221 0 0 Z " fill="#CDCEC5" transform="translate(713,351)"/>
<path d="M0 0 C1.77734375 1.28515625 1.77734375 1.28515625 3 3 C3.63025284 7.88445953 3.74637221 9.88044169 1 14 C-3.13665594 16.75777063 -5.08692938 16.62388198 -10 16 C-12.5 15.0625 -12.5 15.0625 -14 13 C-14.77206516 8.75364161 -14.67928352 5.26593748 -12.625 1.4375 C-8.62737296 -0.75167671 -4.45727343 -0.82597221 0 0 Z " fill="#CDCEC5" transform="translate(576,351)"/>
<path d="M0 0 C0.99 0.66 1.98 1.32 3 2 C2.75 3.875 2.75 3.875 2 6 C0.1875 7.375 0.1875 7.375 -2 8 C-4.25 7.125 -4.25 7.125 -6 6 C-5.896875 7.2375 -5.79375 8.475 -5.6875 9.75 C-5.66848278 13.32523685 -5.76006943 13.7474415 -8.375 16.5 C-11 18 -11 18 -13 18 C-13 12.39 -13 6.78 -13 1 C-7.33407963 -0.88864012 -5.51847546 -1.24946614 0 0 Z " fill="#CDCFC6" transform="translate(462,396)"/>
<path d="M0 0 C6.33847631 4.01952156 12.56124949 8.12249897 16 15 C13.5625 16.4375 13.5625 16.4375 10 17 C6.28976812 15.31631392 3.56406217 13.16198424 1 10 C-0.00027086 6.61182762 -0.17689429 3.51665847 0 0 Z " fill="#CACBC2" transform="translate(732,348)"/>
<path d="M0 0 C1.9609375 0.9921875 1.9609375 0.9921875 4 3 C4.41100586 5.81747495 4.60104377 8.30392647 4.625 11.125 C4.81883949 17.33771985 5.3560397 22.97214557 7 29 C3.78326232 28.0017021 2.98973669 26.98244859 1.26171875 24.02734375 C-0.55250087 19.28973707 -0.32798647 14.56597961 -0.1875 9.5625 C-0.17396484 8.64017578 -0.16042969 7.71785156 -0.14648438 6.76757812 C-0.11140953 4.51109617 -0.06226387 2.25586774 0 0 Z " fill="#CACBC2" transform="translate(425,387)"/>
</svg>
