<?xml version="1.0" encoding="UTF-8"?> <svg xmlns="http://www.w3.org/2000/svg" width="195" height="57" viewBox="0 0 195 57" fill="none"><path d="M64.4734 31.7445C64.4734 30.2246 64.7791 28.8969 65.3906 27.7613C66.0195 26.6257 66.8843 25.7522 67.9849 25.1408C69.103 24.5293 70.3784 24.2236 71.8109 24.2236C73.6453 24.2236 75.1739 24.704 76.3969 25.6649C77.6373 26.6257 78.4496 27.9797 78.834 29.7267H74.0646C73.6628 28.6086 72.8853 28.0496 71.7323 28.0496C70.9112 28.0496 70.2561 28.3728 69.7669 29.0192C69.2777 29.6481 69.0331 30.5565 69.0331 31.7445C69.0331 32.9325 69.2777 33.8497 69.7669 34.4961C70.2561 35.125 70.9112 35.4395 71.7323 35.4395C72.8853 35.4395 73.6628 34.8804 74.0646 33.7623H78.834C78.4496 35.4744 77.6373 36.8196 76.3969 37.798C75.1565 38.7763 73.6278 39.2655 71.8109 39.2655C70.3784 39.2655 69.103 38.9597 67.9849 38.3483C66.8843 37.7368 66.0195 36.8633 65.3906 35.7277C64.7791 34.5922 64.4734 33.2644 64.4734 31.7445Z" fill="white"></path><path d="M80.34 31.7183C80.34 30.2159 80.6195 28.8969 81.1785 27.7613C81.7551 26.6257 82.5325 25.7522 83.5108 25.1408C84.4892 24.5293 85.5811 24.2236 86.7865 24.2236C87.8172 24.2236 88.717 24.4332 89.4857 24.8525C90.2718 25.2718 90.8745 25.8221 91.2938 26.5034V24.4332H95.775V39.0558H91.2938V36.9856C90.8571 37.6669 90.2456 38.2173 89.4595 38.6365C88.6908 39.0558 87.791 39.2655 86.7603 39.2655C85.5723 39.2655 84.4892 38.9597 83.5108 38.3483C82.5325 37.7194 81.7551 36.8371 81.1785 35.7015C80.6195 34.5485 80.34 33.2208 80.34 31.7183ZM91.2938 31.7445C91.2938 30.6264 90.9794 29.7442 90.3504 29.0978C89.739 28.4514 88.9878 28.1282 88.0968 28.1282C87.2058 28.1282 86.4458 28.4514 85.8169 29.0978C85.2054 29.7267 84.8997 30.6002 84.8997 31.7183C84.8997 32.8364 85.2054 33.7274 85.8169 34.3913C86.4458 35.0377 87.2058 35.3609 88.0968 35.3609C88.9878 35.3609 89.739 35.0377 90.3504 34.3913C90.9794 33.7449 91.2938 32.8626 91.2938 31.7445Z" fill="white"></path><path d="M104.965 39.2655C103.69 39.2655 102.555 39.0471 101.559 38.6103C100.563 38.1736 99.7768 37.5796 99.2003 36.8284C98.6238 36.0597 98.3006 35.2036 98.2307 34.2602H102.659C102.712 34.7669 102.948 35.1774 103.367 35.4919C103.786 35.8064 104.302 35.9636 104.913 35.9636C105.472 35.9636 105.9 35.8588 106.197 35.6491C106.512 35.422 106.669 35.1338 106.669 34.7844C106.669 34.3651 106.45 34.0593 106.014 33.8672C105.577 33.6575 104.869 33.4304 103.891 33.1858C102.843 32.9412 101.969 32.6879 101.271 32.4259C100.572 32.1463 99.969 31.7183 99.4624 31.1418C98.9557 30.5478 98.7024 29.7529 98.7024 28.7571C98.7024 27.9185 98.9295 27.1586 99.3837 26.4772C99.8554 25.7784 100.537 25.2281 101.428 24.8263C102.336 24.4245 103.411 24.2236 104.651 24.2236C106.485 24.2236 107.927 24.6778 108.975 25.5862C110.041 26.4947 110.652 27.7001 110.809 29.2026H106.669C106.599 28.696 106.372 28.2941 105.988 27.9971C105.621 27.7001 105.131 27.5517 104.52 27.5517C103.996 27.5517 103.594 27.6565 103.315 27.8661C103.035 28.0583 102.895 28.3291 102.895 28.6785C102.895 29.0978 103.114 29.4122 103.55 29.6219C104.005 29.8315 104.703 30.0412 105.647 30.2508C106.73 30.5303 107.612 30.8099 108.294 31.0894C108.975 31.3514 109.569 31.7882 110.076 32.3997C110.6 32.9936 110.87 33.7973 110.888 34.8106C110.888 35.6666 110.643 36.4353 110.154 37.1166C109.682 37.7805 108.992 38.3046 108.084 38.689C107.193 39.0733 106.153 39.2655 104.965 39.2655Z" fill="white"></path><path d="M118.111 24.4332V39.0558H113.629V24.4332H118.111Z" fill="white"></path><path d="M130.268 24.276C131.98 24.276 133.343 24.835 134.356 25.9531C135.387 27.0537 135.902 28.5737 135.902 30.5129V39.0558H131.447V31.1156C131.447 30.1373 131.194 29.3773 130.687 28.8357C130.181 28.2941 129.499 28.0233 128.643 28.0233C127.787 28.0233 127.106 28.2941 126.599 28.8357C126.092 29.3773 125.839 30.1373 125.839 31.1156V39.0558H121.358V24.4332H125.839V26.3724C126.293 25.726 126.905 25.2194 127.674 24.8525C128.442 24.4681 129.307 24.276 130.268 24.276Z" fill="white"></path><path d="M145.672 39.2655C144.24 39.2655 142.947 38.9597 141.794 38.3483C140.658 37.7368 139.758 36.8633 139.095 35.7277C138.448 34.5922 138.125 33.2644 138.125 31.7445C138.125 30.2421 138.457 28.9231 139.121 27.7875C139.785 26.6345 140.693 25.7522 141.846 25.1408C142.999 24.5293 144.292 24.2236 145.725 24.2236C147.157 24.2236 148.45 24.5293 149.603 25.1408C150.756 25.7522 151.664 26.6345 152.328 27.7875C152.992 28.9231 153.324 30.2421 153.324 31.7445C153.324 33.247 152.983 34.5747 152.302 35.7277C151.638 36.8633 150.721 37.7368 149.551 38.3483C148.398 38.9597 147.105 39.2655 145.672 39.2655ZM145.672 35.3871C146.528 35.3871 147.253 35.0726 147.847 34.4437C148.459 33.8148 148.764 32.915 148.764 31.7445C148.764 30.574 148.467 29.6743 147.873 29.0454C147.297 28.4164 146.581 28.102 145.725 28.102C144.851 28.102 144.126 28.4164 143.55 29.0454C142.973 29.6568 142.685 30.5565 142.685 31.7445C142.685 32.915 142.964 33.8148 143.523 34.4437C144.1 35.0726 144.816 35.3871 145.672 35.3871Z" fill="white"></path><path d="M160.183 26.5034C160.602 25.8221 161.205 25.2718 161.991 24.8525C162.777 24.4332 163.677 24.2236 164.69 24.2236C165.895 24.2236 166.987 24.5293 167.966 25.1408C168.944 25.7522 169.713 26.6257 170.272 27.7613C170.848 28.8969 171.136 30.2159 171.136 31.7183C171.136 33.2208 170.848 34.5485 170.272 35.7015C169.713 36.8371 168.944 37.7194 167.966 38.3483C166.987 38.9597 165.895 39.2655 164.69 39.2655C163.659 39.2655 162.759 39.0646 161.991 38.6628C161.222 38.2435 160.619 37.6932 160.183 37.0118V39.0558H155.701V19.6638H160.183V26.5034ZM166.577 31.7183C166.577 30.6002 166.262 29.7267 165.633 29.0978C165.022 28.4514 164.262 28.1282 163.353 28.1282C162.462 28.1282 161.703 28.4514 161.074 29.0978C160.462 29.7442 160.156 30.6264 160.156 31.7445C160.156 32.8626 160.462 33.7449 161.074 34.3913C161.703 35.0377 162.462 35.3609 163.353 35.3609C164.244 35.3609 165.004 35.0377 165.633 34.3913C166.262 33.7274 166.577 32.8364 166.577 31.7183Z" fill="white"></path><path d="M177.969 19.6638V39.0558H173.487V19.6638H177.969Z" fill="white"></path><path d="M195 31.5087C195 31.928 194.974 32.3647 194.921 32.8189H184.78C184.85 33.7274 185.138 34.4262 185.645 34.9154C186.169 35.3871 186.806 35.6229 187.558 35.6229C188.676 35.6229 189.453 35.1512 189.89 34.2078H194.659C194.415 35.1687 193.969 36.0335 193.323 36.8022C192.694 37.5709 191.899 38.1736 190.938 38.6103C189.977 39.0471 188.903 39.2655 187.715 39.2655C186.282 39.2655 185.007 38.9597 183.889 38.3483C182.771 37.7368 181.897 36.8633 181.268 35.7277C180.639 34.5922 180.325 33.2644 180.325 31.7445C180.325 30.2246 180.631 28.8969 181.242 27.7613C181.871 26.6257 182.745 25.7522 183.863 25.1408C184.981 24.5293 186.265 24.2236 187.715 24.2236C189.13 24.2236 190.388 24.5206 191.488 25.1145C192.589 25.7085 193.445 26.5558 194.057 27.6565C194.686 28.7571 195 30.0412 195 31.5087ZM190.414 30.3294C190.414 29.5607 190.152 28.9493 189.628 28.495C189.104 28.0408 188.449 27.8137 187.662 27.8137C186.911 27.8137 186.274 28.0321 185.749 28.4688C185.243 28.9056 184.928 29.5258 184.806 30.3294H190.414Z" fill="white"></path><path d="M113.906 21.8573C114.413 22.3116 115.059 22.5387 115.846 22.5387C116.614 22.5387 117.243 22.3116 117.732 21.8573C118.239 21.3856 118.492 20.8091 118.492 20.1278C118.492 19.429 118.239 18.8524 117.732 18.3982C117.243 17.9265 116.614 17.6907 115.846 17.6907C115.059 17.6907 114.413 17.9265 113.906 18.3982C113.417 18.8524 113.173 19.429 113.173 20.1278C113.173 20.8091 113.417 21.3856 113.906 21.8573Z" fill="white"></path><path d="M67.4866 50.5474C67.4866 50.974 67.3468 51.3177 67.0672 51.5784C66.7875 51.8391 66.368 51.9694 65.8087 51.9694H64.8062V54.0882H64.3085V49.1183H65.8087C66.3633 49.1183 66.7804 49.2487 67.06 49.5094C67.3444 49.7701 67.4866 50.1161 67.4866 50.5474ZM65.8087 51.5428C66.5861 51.5428 66.9747 51.211 66.9747 50.5474C66.9747 50.2156 66.8823 49.9644 66.6974 49.7938C66.5126 49.6231 66.2163 49.5378 65.8087 49.5378H64.8062V51.5428H65.8087Z" fill="white"></path><path d="M70.1703 53.6829H71.9549V54.0882H69.6726V49.1183H70.1703V53.6829Z" fill="white"></path><path d="M76.8956 52.9079H74.6346L74.2009 54.0882H73.6748L75.4878 49.1823H76.0495L77.8554 54.0882H77.3293L76.8956 52.9079ZM76.7463 52.4955L75.7651 49.808L74.7839 52.4955H76.7463Z" fill="white"></path><path d="M83.2899 49.1183L81.6972 52.1543V54.0882H81.1995V52.1543L79.5927 49.1183H80.1544L81.4484 51.6992L82.7353 49.1183H83.2899Z" fill="white"></path><path d="M88.2487 52.9079H85.9877L85.554 54.0882H85.0279L86.8409 49.1823H87.4026L89.2086 54.0882H88.6824L88.2487 52.9079ZM88.0994 52.4955L87.1182 49.808L86.1371 52.4955H88.0994Z" fill="white"></path><path d="M93.6831 51.5215C93.9628 51.5736 94.1998 51.7158 94.3941 51.9481C94.5885 52.1803 94.6856 52.4505 94.6856 52.7586C94.6856 53.0098 94.6217 53.2373 94.4937 53.4412C94.3704 53.6402 94.188 53.799 93.9462 53.9175C93.7045 54.0313 93.4153 54.0882 93.0788 54.0882H91.3582V49.1183H93.029C93.5315 49.1183 93.913 49.2344 94.1737 49.4667C94.4392 49.699 94.5719 49.9999 94.5719 50.3697C94.5719 50.6778 94.4889 50.929 94.323 51.1233C94.1571 51.3129 93.9438 51.4456 93.6831 51.5215ZM91.8559 51.3153H93.0148C93.3513 51.3153 93.6097 51.2371 93.7898 51.0807C93.9747 50.9195 94.0671 50.6991 94.0671 50.4194C94.0671 50.1445 93.9747 49.9288 93.7898 49.7724C93.6097 49.616 93.3442 49.5378 92.9935 49.5378H91.8559V51.3153ZM93.0433 53.6687C93.4035 53.6687 93.6831 53.5834 93.8822 53.4127C94.086 53.2421 94.188 53.0075 94.188 52.7088C94.188 52.4102 94.0813 52.1732 93.868 51.9978C93.6594 51.8177 93.3774 51.7277 93.0219 51.7277H91.8559V53.6687H93.0433Z" fill="white"></path><path d="M97.4491 53.6829H99.2337V54.0882H96.9514V49.1183H97.4491V53.6829Z" fill="white"></path><path d="M101.793 49.5236V51.3793H103.677V51.7917H101.793V53.6758H103.89V54.0882H101.295V49.1112H103.89V49.5236H101.793Z" fill="white"></path><path d="M115.553 49.1183L114.145 54.0882H113.59L112.339 49.8506L111.059 54.0882L110.519 54.0953L109.14 49.1183H109.673L110.81 53.4767L112.083 49.1183H112.638L113.875 53.4767L115.02 49.1183H115.553Z" fill="white"></path><path d="M118.163 49.1183V54.0882H117.665V49.1183H118.163Z" fill="white"></path><path d="M124.388 54.0882H123.89L121.138 49.9075V54.0882H120.641V49.1183H121.138L123.89 53.2918V49.1183H124.388V54.0882Z" fill="white"></path><path d="M130.613 54.0882H130.115L127.363 49.9075V54.0882H126.866V49.1183H127.363L130.115 53.2918V49.1183H130.613V54.0882Z" fill="white"></path><path d="M135.97 52.9079H133.709L133.276 54.0882H132.749L134.562 49.1823H135.124L136.93 54.0882H136.404L135.97 52.9079ZM135.821 52.4955L134.84 49.808L133.859 52.4955H135.821Z" fill="white"></path><path d="M141.405 51.5215C141.684 51.5736 141.921 51.7158 142.116 51.9481C142.31 52.1803 142.407 52.4505 142.407 52.7586C142.407 53.0098 142.343 53.2373 142.215 53.4412C142.092 53.6402 141.91 53.799 141.668 53.9175C141.426 54.0313 141.137 54.0882 140.8 54.0882H139.08V49.1183H140.751C141.253 49.1183 141.635 49.2344 141.895 49.4667C142.161 49.699 142.293 49.9999 142.293 50.3697C142.293 50.6778 142.21 50.929 142.045 51.1233C141.879 51.3129 141.665 51.4456 141.405 51.5215ZM139.577 51.3153H140.736C141.073 51.3153 141.331 51.2371 141.511 51.0807C141.696 50.9195 141.789 50.6991 141.789 50.4194C141.789 50.1445 141.696 49.9288 141.511 49.7724C141.331 49.616 141.066 49.5378 140.715 49.5378H139.577V51.3153ZM140.765 53.6687C141.125 53.6687 141.405 53.5834 141.604 53.4127C141.808 53.2421 141.91 53.0075 141.91 52.7088C141.91 52.4102 141.803 52.1732 141.59 51.9978C141.381 51.8177 141.099 51.7277 140.743 51.7277H139.577V53.6687H140.765Z" fill="white"></path><path d="M145.171 53.6829H146.955V54.0882H144.673V49.1183H145.171V53.6829Z" fill="white"></path><path d="M149.514 49.5236V51.3793H151.398V51.7917H149.514V53.6758H151.612V54.0882H149.016V49.1112H151.612V49.5236H149.514Z" fill="white"></path><path d="M160.423 50.5474C160.423 50.974 160.283 51.3177 160.004 51.5784C159.724 51.8391 159.305 51.9694 158.745 51.9694H157.743V54.0882H157.245V49.1183H158.745C159.3 49.1183 159.717 49.2487 159.997 49.5094C160.281 49.7701 160.423 50.1161 160.423 50.5474ZM158.745 51.5428C159.523 51.5428 159.911 51.211 159.911 50.5474C159.911 50.2156 159.819 49.9644 159.634 49.7938C159.449 49.6231 159.153 49.5378 158.745 49.5378H157.743V51.5428H158.745Z" fill="white"></path><path d="M165.489 52.9079H163.228L162.794 54.0882H162.268L164.081 49.1823H164.643L166.449 54.0882H165.922L165.489 52.9079ZM165.339 52.4955L164.358 49.808L163.377 52.4955H165.339Z" fill="white"></path><path d="M171.883 49.1183L170.29 52.1543V54.0882H169.793V52.1543L168.186 49.1183H168.748L170.042 51.6992L171.328 49.1183H171.883Z" fill="white"></path><path d="M176.842 52.9079H174.581L174.147 54.0882H173.621L175.434 49.1823H175.996L177.802 54.0882H177.276L176.842 52.9079ZM176.693 52.4955L175.711 49.808L174.73 52.4955H176.693Z" fill="white"></path><path d="M182.276 51.5215C182.556 51.5736 182.793 51.7158 182.987 51.9481C183.182 52.1803 183.279 52.4505 183.279 52.7586C183.279 53.0098 183.215 53.2373 183.087 53.4412C182.964 53.6402 182.781 53.799 182.539 53.9175C182.298 54.0313 182.008 54.0882 181.672 54.0882H179.951V49.1183H181.622C182.125 49.1183 182.506 49.2344 182.767 49.4667C183.032 49.699 183.165 49.9999 183.165 50.3697C183.165 50.6778 183.082 50.929 182.916 51.1233C182.75 51.3129 182.537 51.4456 182.276 51.5215ZM180.449 51.3153H181.608C181.944 51.3153 182.203 51.2371 182.383 51.0807C182.568 50.9195 182.66 50.6991 182.66 50.4194C182.66 50.1445 182.568 49.9288 182.383 49.7724C182.203 49.616 181.937 49.5378 181.587 49.5378H180.449V51.3153ZM181.636 53.6687C181.997 53.6687 182.276 53.5834 182.475 53.4127C182.679 53.2421 182.781 53.0075 182.781 52.7088C182.781 52.4102 182.674 52.1732 182.461 51.9978C182.253 51.8177 181.971 51.7277 181.615 51.7277H180.449V53.6687H181.636Z" fill="white"></path><path d="M186.042 53.6829H187.827V54.0882H185.545V49.1183H186.042V53.6829Z" fill="white"></path><path d="M190.386 49.5236V51.3793H192.27V51.7917H190.386V53.6758H192.483V54.0882H189.888V49.1112H192.483V49.5236H190.386Z" fill="white"></path><path d="M29.0015 6.5718C24.843 6.47149 20.7419 7.5581 17.1786 9.70439C13.6153 11.8507 10.7373 14.9678 8.88163 18.6907C7.02594 22.4136 6.26937 26.5882 6.70055 30.7255C7.13172 34.8629 8.73278 38.7917 11.3162 42.052C11.7294 42.5713 12.3081 42.9333 12.9558 43.0776C13.6036 43.222 14.2812 43.14 14.8758 42.8452L18.9517 40.8491V38.279L13.846 40.7799C13.7256 40.8413 13.5874 40.8585 13.4556 40.8285C13.3238 40.7984 13.2068 40.723 13.1249 40.6155C10.0191 36.7008 8.52848 31.7464 8.95874 26.7679C9.389 21.7894 11.7075 17.1641 15.4389 13.8404C19.1702 10.5167 24.0317 8.7463 29.0266 8.89228C34.0215 9.03826 38.7714 11.0895 42.3023 14.6255C42.6984 15.0197 43.0734 15.4274 43.4272 15.8486H46.3378C45.619 14.8313 44.8152 13.877 43.9349 12.9957C39.9742 9.00519 34.6224 6.70299 29.0015 6.5718Z" fill="white" fill-opacity="0.6"></path><path d="M46.3408 15.8658H43.4245C46.4975 19.4872 48.1448 24.1048 48.0577 28.8535C47.9706 33.6022 46.1552 38.1563 42.9514 41.6625C37.7852 47.2298 29.8295 49.399 22.6873 47.1865C22.5644 47.1534 22.4559 47.0806 22.3787 46.9793C22.3014 46.8781 22.2599 46.7542 22.2604 46.6269V39.2309L39.49 30.7964C39.9315 30.5723 40.2998 30.2266 40.5513 29.8001C40.8028 29.3735 40.9271 28.884 40.9095 28.3891C40.8919 27.8943 40.7332 27.4148 40.452 27.0072C40.1709 26.5996 39.779 26.2809 39.3227 26.0888L23.5816 18.6033L23.5181 18.5773C23.1243 18.4189 22.6977 18.3594 22.2755 18.4041C21.8534 18.4488 21.4487 18.5963 21.0968 18.8337C20.7449 19.0711 20.4566 19.3912 20.2572 19.766C20.0577 20.1407 19.9532 20.5586 19.9528 20.9831V37.7886L18.9518 38.2789V40.8491L19.9528 40.3616V46.6125C19.9524 47.2323 20.1516 47.8358 20.521 48.3335C20.8904 48.8312 21.4103 49.1967 22.0037 49.3759C24.0592 50.011 26.1984 50.3339 28.3498 50.3336C31.4084 50.3275 34.4331 49.6923 37.2358 48.4676C40.0386 47.2429 42.5595 45.4548 44.6418 43.2144C48.0069 39.536 50.0107 34.816 50.3198 29.8401C50.629 24.8642 49.2247 19.9325 46.3408 15.8658ZM22.2604 20.9831C22.2604 20.9066 22.2908 20.8332 22.3449 20.7791C22.399 20.725 22.4724 20.6946 22.5489 20.6946C22.5793 20.6942 22.6096 20.6991 22.6383 20.709L38.365 28.1858L38.4284 28.2147C38.4807 28.2336 38.5258 28.2681 38.5578 28.3135C38.5898 28.3589 38.607 28.413 38.6073 28.4685C38.6135 28.5215 38.6033 28.5751 38.578 28.6221C38.5528 28.6691 38.5136 28.7071 38.4659 28.731L22.2604 36.6607V20.9831Z" fill="white"></path><path d="M28.4767 10.8756C32.9083 10.8742 37.1753 12.5546 40.4159 15.5775L38.3967 15.39C35.4675 13.1782 31.8821 12.011 28.2122 12.0747C24.5423 12.1385 20.9995 13.4294 18.1489 15.7415C15.2983 18.0537 13.3042 21.2539 12.4846 24.8316C11.665 28.4093 12.0671 32.1585 13.6269 35.481C13.6617 35.5496 13.6824 35.6245 13.6878 35.7013C13.6932 35.778 13.6832 35.8551 13.6583 35.9279C13.6335 36.0008 13.5944 36.0679 13.5432 36.1254C13.492 36.1828 13.4299 36.2295 13.3604 36.2626C13.291 36.2957 13.2156 36.3145 13.1387 36.3181C13.0619 36.3216 12.9851 36.3097 12.9129 36.2831C12.8407 36.2565 12.7745 36.2157 12.7183 36.1632C12.6621 36.1107 12.617 36.0474 12.5856 35.9771C11.3229 33.2974 10.7573 30.3422 10.9411 27.3855C11.1249 24.4289 12.0522 21.5665 13.637 19.0637C15.2218 16.561 17.4128 14.4988 20.0069 13.0685C22.6011 11.6381 25.5143 10.8858 28.4767 10.8814V10.8756Z" fill="white" fill-opacity="0.6"></path><path d="M43.7245 19.7138C43.5774 19.4571 43.4217 19.2033 43.2601 18.9552C43.4245 19.2033 43.5774 19.4571 43.7245 19.7138Z" fill="white" fill-opacity="0.6"></path><path d="M19.9038 5.45263L18.8624 2.59691C18.8227 2.48586 18.7607 2.38409 18.6803 2.29787C18.5998 2.21164 18.5025 2.14278 18.3945 2.0955C18.2864 2.04823 18.1698 2.02354 18.0519 2.02296C17.934 2.02238 17.8171 2.04591 17.7086 2.09211C16.6205 2.53486 15.5608 3.04448 14.5356 3.61805C14.4329 3.67451 14.3428 3.75123 14.2707 3.84357C14.1985 3.9359 14.1459 4.04193 14.1159 4.15521C14.086 4.26849 14.0794 4.38668 14.0965 4.50259C14.1136 4.61851 14.154 4.72975 14.2154 4.82957L15.8048 7.42568C15.9211 7.61504 16.1058 7.75241 16.3206 7.80934C16.5354 7.86626 16.7638 7.83837 16.9586 7.73144C17.7501 7.29036 18.5669 6.89641 19.4047 6.55165C19.6147 6.46955 19.7843 6.30876 19.8775 6.10351C19.9707 5.89825 19.9801 5.66473 19.9038 5.45263Z" fill="white" fill-opacity="0.6"></path><path d="M26.1056 4.87285C26.5585 4.8267 27.0084 4.79497 27.4584 4.77478C27.6814 4.7651 27.892 4.66968 28.0462 4.50843C28.2005 4.34718 28.2865 4.13256 28.2863 3.9094V0.866184C28.2864 0.749316 28.2629 0.633637 28.217 0.526124C28.1712 0.418611 28.1041 0.321492 28.0197 0.240625C27.9354 0.159758 27.8355 0.096818 27.7261 0.0556022C27.6168 0.0143864 27.5002 -0.00425139 27.3834 0.000812927C26.8065 0.0238895 26.2296 0.0642734 25.6296 0.121965C25.0296 0.179656 24.4585 0.260424 23.8989 0.35273C23.7835 0.371339 23.6731 0.413124 23.5743 0.475565C23.4755 0.538006 23.3904 0.619809 23.3241 0.716041C23.2578 0.812272 23.2116 0.920938 23.1885 1.03548C23.1653 1.15003 23.1656 1.26808 23.1893 1.38252L23.7921 4.36517C23.8369 4.58345 23.9642 4.77606 24.1474 4.90287C24.3306 5.02968 24.5557 5.08092 24.7758 5.04592C25.2056 4.9767 25.6527 4.919 26.1056 4.87285Z" fill="white" fill-opacity="0.6"></path><path d="M12.5568 9.77656L10.5982 7.44006C10.523 7.35041 10.4305 7.27694 10.3261 7.22409C10.2217 7.17123 10.1077 7.14009 9.99098 7.13254C9.87423 7.12499 9.75717 7.14119 9.64686 7.18017C9.53655 7.21914 9.43529 7.28007 9.34919 7.35929C8.48222 8.14783 7.66345 8.9878 6.89731 9.87463C6.82008 9.96295 6.76161 10.066 6.72547 10.1777C6.68932 10.2893 6.67624 10.4071 6.68703 10.5239C6.69783 10.6407 6.73226 10.7541 6.78824 10.8572C6.84423 10.9603 6.92059 11.051 7.01269 11.1237L9.39823 13.0217C9.57253 13.1595 9.79314 13.2249 10.0144 13.2045C10.2356 13.1841 10.4405 13.0794 10.5867 12.9121C11.1795 12.2263 11.8113 11.5753 12.479 10.9621C12.6408 10.8118 12.739 10.6052 12.7535 10.3848C12.768 10.1644 12.6976 9.94678 12.5568 9.77656Z" fill="white" fill-opacity="0.6"></path><path d="M36.692 5.32284L37.7333 2.46135C37.7738 2.3513 37.7916 2.23417 37.7854 2.11706C37.7793 1.99995 37.7494 1.88531 37.6976 1.78009C37.6458 1.67488 37.5732 1.5813 37.4841 1.50502C37.3951 1.42874 37.2914 1.37136 37.1795 1.33637C36.0647 0.978317 34.9289 0.689313 33.7786 0.470998C33.6635 0.448265 33.545 0.449163 33.4303 0.473637C33.3156 0.498111 33.207 0.54565 33.1113 0.613367C33.0155 0.681084 32.9345 0.767564 32.8732 0.867554C32.8118 0.967545 32.7715 1.07896 32.7545 1.19502L32.3074 4.2094C32.2725 4.42988 32.3242 4.65532 32.4516 4.83862C32.579 5.02192 32.7723 5.14891 32.9911 5.19304C33.88 5.36477 34.7583 5.58724 35.6218 5.85937C35.835 5.9251 36.0652 5.90598 36.2646 5.80602C36.464 5.70605 36.6171 5.53296 36.692 5.32284Z" fill="white" fill-opacity="0.6"></path><path d="M44.1053 9.5343L46.0639 7.21223C46.1389 7.12258 46.195 7.01865 46.2288 6.90673C46.2626 6.79481 46.2733 6.6772 46.2604 6.56101C46.2474 6.44482 46.2111 6.33246 46.1535 6.23071C46.096 6.12896 46.0184 6.03992 45.9254 5.96898C45.0009 5.25019 44.0327 4.58932 43.0265 3.99016C42.9261 3.92913 42.8144 3.88916 42.6981 3.87269C42.5818 3.85622 42.4634 3.86359 42.3501 3.89435C42.2367 3.92512 42.1308 3.97863 42.0388 4.05164C41.9468 4.12464 41.8707 4.21561 41.8149 4.319L40.3727 6.99588C40.2665 7.19171 40.2399 7.42093 40.2985 7.63585C40.3571 7.85076 40.4962 8.03482 40.6871 8.14971C41.4627 8.61626 42.211 9.1267 42.9284 9.67853C43.1061 9.80883 43.3267 9.86645 43.5454 9.83965C43.7641 9.81285 43.9643 9.70365 44.1053 9.5343Z" fill="white" fill-opacity="0.6"></path><path d="M49.6351 16.0159L52.2745 14.4929C52.3753 14.4337 52.4632 14.3548 52.5327 14.2608C52.6022 14.1668 52.6519 14.0596 52.6789 13.9459C52.7058 13.8321 52.7095 13.7141 52.6895 13.5989C52.6696 13.4837 52.6265 13.3737 52.5629 13.2756C51.9392 12.2855 51.2552 11.3347 50.5149 10.4285C50.4414 10.3372 50.3501 10.2618 50.2466 10.2069C50.143 10.152 50.0294 10.1186 49.9126 10.1089C49.7958 10.0992 49.6783 10.1133 49.5671 10.1504C49.4559 10.1875 49.3535 10.2468 49.2659 10.3247L46.9813 12.3439C46.8144 12.4913 46.7108 12.6974 46.692 12.9193C46.6732 13.1412 46.7407 13.3618 46.8803 13.5352C47.451 14.2377 47.9808 14.9726 48.4668 15.7361C48.5875 15.9249 48.7766 16.0596 48.9945 16.1118C49.2124 16.1639 49.442 16.1296 49.6351 16.0159Z" fill="white" fill-opacity="0.6"></path><path d="M7.12791 16.3447L4.48565 14.8217C4.38425 14.7629 4.27197 14.7254 4.15562 14.7113C4.03928 14.6973 3.92129 14.707 3.80881 14.7399C3.69633 14.7728 3.59171 14.8282 3.50129 14.9028C3.41086 14.9773 3.33653 15.0695 3.28279 15.1736C2.73613 16.208 2.25443 17.2754 1.8405 18.3697C1.79773 18.4791 1.77767 18.5961 1.78157 18.7135C1.78546 18.8309 1.81321 18.9463 1.86314 19.0526C1.91307 19.1589 1.98413 19.254 2.07198 19.332C2.15983 19.41 2.26264 19.4693 2.37415 19.5062L5.25871 20.4754C5.47045 20.5478 5.702 20.5354 5.90476 20.4407C6.10753 20.3461 6.26574 20.1766 6.3462 19.9678C6.67143 19.122 7.04512 18.2956 7.46541 17.4928C7.56786 17.2948 7.58995 17.0649 7.52708 16.851C7.4642 16.6372 7.32122 16.4558 7.12791 16.3447Z" fill="white" fill-opacity="0.6"></path><path d="M52.6089 24.0061L55.6118 23.4782C55.7273 23.4581 55.8376 23.4146 55.9359 23.3505C56.0342 23.2864 56.1184 23.203 56.1834 23.1053C56.2484 23.0076 56.2929 22.8977 56.3141 22.7823C56.3354 22.6669 56.3329 22.5484 56.3069 22.434C56.062 21.2892 55.745 20.161 55.3579 19.0562C55.3203 18.9462 55.2608 18.845 55.1832 18.7585C55.1056 18.672 55.0113 18.6021 54.906 18.5528C54.8008 18.5035 54.6867 18.476 54.5705 18.4718C54.4544 18.4676 54.3386 18.4868 54.23 18.5283L51.3916 19.6475C51.1852 19.7291 51.018 19.8868 50.9246 20.0881C50.8312 20.2894 50.8187 20.519 50.8897 20.7292C51.1858 21.5852 51.4314 22.4579 51.6253 23.3426C51.6738 23.5577 51.8027 23.7462 51.9855 23.8695C52.1683 23.9928 52.3913 24.0417 52.6089 24.0061Z" fill="white"></path><path d="M4.34135 32.9022L1.33563 33.4301C1.22004 33.4503 1.10976 33.4937 1.01149 33.5578C0.913214 33.622 0.829007 33.7054 0.763983 33.8031C0.698959 33.9007 0.654477 34.0106 0.633241 34.126C0.612005 34.2414 0.614458 34.3599 0.640453 34.4743C0.887147 35.6196 1.20409 36.7487 1.58948 37.855C1.62734 37.9658 1.68726 38.0677 1.76563 38.1546C1.844 38.2415 1.93918 38.3116 2.04542 38.3607C2.15166 38.4098 2.26675 38.4368 2.38372 38.4401C2.5007 38.4434 2.61714 38.423 2.726 38.38L5.57307 37.2608C5.77962 37.1787 5.94666 37.0203 6.03957 36.8184C6.13248 36.6164 6.14412 36.3865 6.0721 36.1762C5.77486 35.3203 5.52828 34.4477 5.33365 33.5628C5.28444 33.3465 5.15404 33.1574 4.96938 33.0344C4.78472 32.9115 4.5599 32.8642 4.34135 32.9022Z" fill="white" fill-opacity="0.6"></path><path d="M52.6723 32.5301L55.6722 33.0608C55.788 33.0817 55.9067 33.0788 56.0213 33.0523C56.1359 33.0258 56.2438 32.9762 56.3386 32.9065C56.4333 32.8369 56.5129 32.7486 56.5724 32.6472C56.6319 32.5458 56.6701 32.4333 56.6847 32.3166C56.8418 31.1566 56.9275 29.9881 56.9414 28.8176C56.9442 28.7003 56.9231 28.5837 56.8794 28.4748C56.8357 28.3659 56.7703 28.2671 56.6872 28.1842C56.6041 28.1014 56.5051 28.0363 56.396 27.993C56.287 27.9496 56.1703 27.9289 56.053 27.9321L53.004 28.0128C52.7825 28.0194 52.5719 28.1108 52.4157 28.268C52.2596 28.4253 52.1697 28.6365 52.1646 28.858C52.1491 29.7641 52.0807 30.6685 51.9598 31.5666C51.9313 31.7881 51.9895 32.0121 52.1223 32.1916C52.2551 32.3712 52.4522 32.4925 52.6723 32.5301Z" fill="white"></path><path d="M49.8196 40.5607L52.4647 42.0866C52.5661 42.1453 52.6784 42.1829 52.7948 42.197C52.9111 42.211 53.0291 42.2013 53.1416 42.1684C53.2541 42.1355 53.3587 42.0801 53.4491 42.0055C53.5395 41.931 53.6139 41.8388 53.6676 41.7347C54.213 40.6987 54.6947 39.6304 55.1099 38.5357C55.1522 38.4264 55.1719 38.3097 55.1678 38.1927C55.1636 38.0756 55.1358 37.9606 55.0859 37.8546C55.036 37.7486 54.9651 37.6538 54.8775 37.576C54.7899 37.4982 54.6874 37.4391 54.5762 37.4021L51.6917 36.43C51.4807 36.3593 51.2506 36.3726 51.0491 36.4671C50.8477 36.5617 50.6904 36.7302 50.6099 36.9376C50.2869 37.7844 49.9132 38.6108 49.4907 39.4126C49.3876 39.6096 49.3642 39.8387 49.4254 40.0524C49.4866 40.2662 49.6278 40.4482 49.8196 40.5607Z" fill="white"></path><path d="M44.3908 47.1288L46.3552 49.4682C46.4304 49.5579 46.5229 49.6313 46.6273 49.6842C46.7317 49.7371 46.8457 49.7682 46.9624 49.7757C47.0792 49.7833 47.1962 49.7671 47.3066 49.7281C47.4169 49.6891 47.5181 49.6282 47.6042 49.549C48.4717 48.7619 49.2896 47.9218 50.0532 47.0337C50.1306 46.9455 50.1893 46.8426 50.2257 46.7311C50.2621 46.6196 50.2754 46.5018 50.2649 46.385C50.2543 46.2682 50.2202 46.1547 50.1645 46.0515C50.1087 45.9483 50.0326 45.8575 49.9407 45.7846L47.5552 43.8866C47.3809 43.7488 47.1603 43.6833 46.939 43.7037C46.7178 43.7241 46.5129 43.8289 46.3667 43.9962C45.7736 44.6799 45.1408 45.3281 44.4716 45.9375C44.3077 46.0877 44.2078 46.2952 44.1928 46.517C44.1778 46.7388 44.2487 46.9579 44.3908 47.1288Z" fill="white"></path><path d="M37.0439 51.447L38.091 54.3316C38.131 54.4424 38.1932 54.5439 38.2738 54.6298C38.3544 54.7157 38.4517 54.7842 38.5597 54.8312C38.6677 54.8782 38.7842 54.9027 38.902 54.903C39.0198 54.9034 39.1365 54.8798 39.2448 54.8335C40.3336 54.3924 41.3934 53.8828 42.4178 53.3076C42.5205 53.2511 42.6106 53.1744 42.6828 53.082C42.7549 52.9897 42.8075 52.8837 42.8375 52.7704C42.8674 52.6571 42.874 52.5389 42.8569 52.423C42.8398 52.3071 42.7994 52.1959 42.738 52.096L41.1399 49.4999C41.0237 49.3106 40.839 49.1732 40.6242 49.1163C40.4094 49.0594 40.1809 49.0872 39.9861 49.1942C39.1946 49.6343 38.3778 50.0273 37.54 50.3711C37.336 50.4537 37.1711 50.6109 37.0789 50.8108C36.9868 51.0107 36.9742 51.2382 37.0439 51.447Z" fill="white"></path><path d="M28.6669 52.9931V56.045C28.6668 56.1619 28.6904 56.2776 28.7362 56.3851C28.782 56.4926 28.8491 56.5897 28.9335 56.6706C29.0179 56.7514 29.1178 56.8144 29.2271 56.8556C29.3365 56.8968 29.453 56.9155 29.5698 56.9104C30.1467 56.8873 30.7236 56.8469 31.3236 56.7892C31.9236 56.7315 32.4948 56.6537 33.0717 56.5585C33.187 56.5399 33.2974 56.4981 33.3962 56.4356C33.495 56.3732 33.5801 56.2914 33.6465 56.1952C33.7128 56.0989 33.7589 55.9903 33.7821 55.8757C33.8052 55.7612 33.805 55.6431 33.7813 55.5287L33.1726 52.5374C33.1279 52.3197 33.001 52.1275 32.8184 52.0008C32.6358 51.874 32.4115 51.8224 32.1919 51.8566C31.297 52.0004 30.3945 52.0919 29.489 52.1307C29.2676 52.1417 29.0589 52.2374 28.9059 52.3979C28.7529 52.5584 28.6674 52.7714 28.6669 52.9931Z" fill="white"></path><path d="M4.27222 24.3783L1.26939 23.8476C1.15388 23.8267 1.03532 23.8295 0.920934 23.8558C0.806545 23.8822 0.698713 23.9315 0.604 24.0009C0.509288 24.0702 0.429674 24.1581 0.370004 24.2592C0.310333 24.3603 0.271854 24.4725 0.256906 24.5889C0.0999565 25.7499 0.0142207 26.9194 0.000179414 28.0908C-0.00220453 28.2078 0.0191905 28.3242 0.0630694 28.4327C0.106948 28.5413 0.172398 28.6398 0.255457 28.7223C0.338517 28.8048 0.437458 28.8696 0.546291 28.9128C0.655124 28.956 0.771586 28.9766 0.888626 28.9735L3.93761 28.8956C4.16014 28.8897 4.37183 28.7983 4.5287 28.6403C4.68556 28.4824 4.77553 28.2701 4.77991 28.0475C4.7936 27.1425 4.86006 26.2391 4.97894 25.3418C5.00759 25.1211 4.95015 24.8979 4.81855 24.7185C4.68695 24.5391 4.49129 24.4173 4.27222 24.3783Z" fill="white" fill-opacity="0.6"></path><path d="M46.0581 28.4571C46.0576 26.0371 45.5561 23.6434 44.585 21.4267C43.614 19.2101 42.1945 17.2185 40.4159 15.5775L38.3967 15.3871C41.1349 17.4653 43.1517 20.3505 44.1629 23.6359C45.1741 26.9213 45.1286 30.4412 44.0329 33.6994C42.9372 36.9576 40.8464 39.7897 38.0555 41.7964C35.2646 43.8032 31.9142 44.8834 28.4767 44.8847C27.9719 44.8847 27.4469 44.8587 26.9104 44.8097C26.8346 44.8027 26.7582 44.8107 26.6855 44.8332C26.6128 44.8557 26.5453 44.8923 26.4868 44.9409C26.4283 44.9895 26.3799 45.0492 26.3444 45.1165C26.309 45.1838 26.2871 45.2575 26.2801 45.3332C26.2731 45.409 26.2811 45.4854 26.3036 45.5581C26.3261 45.6308 26.3627 45.6983 26.4113 45.7568C26.4599 45.8153 26.5196 45.8637 26.5869 45.8992C26.6542 45.9346 26.7279 45.9565 26.8036 45.9635C27.3805 46.0183 27.9373 46.0443 28.4767 46.0443C33.1394 46.0405 37.61 44.1861 40.9065 40.8885C44.203 37.591 46.0558 33.1198 46.0581 28.4571Z" fill="white"></path></svg> 