<?xml version="1.0" encoding="UTF-8"?> <svg xmlns="http://www.w3.org/2000/svg" width="410" height="92" viewBox="0 0 410 92" fill="none"><g clip-path="url(#clip0_1_119)"><path d="M11.8204 22.3679C15.36 19.8507 19.2461 18.0993 23.5323 17.3811C32.9539 15.8045 41.1913 18.3406 48.2402 24.7508C50.3197 26.6424 51.9949 28.8663 53.3943 31.307C53.5705 31.6163 53.6095 31.8229 53.3394 32.122C50.5015 35.2334 47.8443 38.5051 45.3808 41.9209C45.3452 41.9589 45.3061 41.9933 45.2638 42.0235C44.9865 41.8386 45.0327 41.5149 44.9648 41.2577C42.982 33.7116 35.8928 28.4559 28.1016 28.7681C20.0404 29.0889 13.6501 34.7636 12.1005 42.5784C10.5423 50.4323 15.5881 59.724 24.4407 61.8482C28.4843 62.8193 32.3243 62.0014 35.9938 60.2586C39.1461 58.7831 41.8773 56.5386 43.9366 53.7313C48.0625 48.1361 52.0238 42.4137 56.3216 36.95C60.1717 32.0613 64.3106 27.443 69.1297 23.4806C74.1509 19.3521 79.9232 17.1614 86.4247 16.9967C100.463 16.6412 112.35 25.9314 115.267 39.6956C118.566 55.2486 108.519 70.3725 93.1919 73.5097C85.1885 75.1455 77.7656 73.6384 70.9782 69.0633C70.8467 68.9752 70.737 68.822 70.4727 68.8653V69.6197C70.4727 76.5285 70.464 83.4372 70.4857 90.346C70.4857 90.9674 70.3601 91.1567 69.7044 91.1495C66.2645 91.1105 62.8231 91.1206 59.3832 91.1394C58.8965 91.1394 58.7246 91.0425 58.7261 90.5137C58.7424 80.4763 58.7453 70.4385 58.7347 60.4002C58.7145 60.1126 58.7974 59.8272 58.9687 59.5953C62.2815 55.3455 65.3157 50.8802 68.8495 46.8023C69.3347 46.2416 69.8344 45.694 70.4568 44.9946C70.4698 46.2344 70.5088 47.298 70.6951 48.35C71.9501 55.4625 77.2948 60.8352 84.3928 62.1025C86.6243 62.5019 88.9135 62.445 91.1225 61.9354C93.3315 61.4258 95.4145 60.4739 97.246 59.1372C99.0775 57.8005 100.62 56.1066 101.779 54.1576C102.939 52.2085 103.692 50.0447 103.994 47.7965C105.265 38.5482 98.5179 29.8779 89.2725 28.8577C84.4501 28.3278 80.1802 29.6158 76.463 32.7217C71.8894 36.5598 67.9729 41.0264 64.221 45.6463C60.124 50.6909 56.401 56.0203 52.4542 61.1791C48.4857 66.3669 43.6449 70.5416 37.3687 72.595C26.165 76.2611 16.3073 73.6066 8.0396 65.39C2.59952 59.9783 0.0549422 53.1779 0.0405008 45.4974C0.0135435 30.598 0.0135435 15.6976 0.0405008 0.796223C0.0405008 0.536114 -0.103913 0.229763 0.171918 0.00867031C0.222463 0.083813 0.267231 0.0765877 0.316332 0H11.5806C11.5806 7.18383 11.5806 14.3677 11.5806 21.5515C11.5821 21.8304 11.4088 22.196 11.8204 22.3679Z" fill="#56EB7C"></path></g><path d="M159.095 66.6098C168.091 66.6098 172.836 60.9434 172.836 53.8605C172.836 47.9108 168.799 43.0236 163.77 42.2445C168.232 41.3237 171.915 37.3573 171.915 31.4076C171.915 25.1038 167.311 19.3666 158.316 19.3666H133.455V66.6098H159.095ZM143.513 27.937H156.12C159.52 27.937 161.645 30.2035 161.645 33.1075C161.645 36.1532 159.52 38.3489 156.12 38.3489H143.513V27.937ZM143.513 46.9192H156.475C160.441 46.9192 162.566 49.4691 162.566 52.4439C162.566 55.8437 160.299 58.0394 156.475 58.0394H143.513V46.9192ZM178.013 49.4691C178.013 60.4476 185.875 67.4597 196.287 67.4597C201.599 67.4597 206.911 65.9015 210.382 62.7142L206.415 56.9062C204.22 59.031 200.466 60.306 197.278 60.306C191.47 60.306 188 56.6937 187.433 52.3731H212.861V50.3899C212.861 39.1988 205.919 31.5493 195.72 31.5493C185.308 31.5493 178.013 39.553 178.013 49.4691ZM195.72 38.703C201.67 38.703 203.936 43.0236 204.149 46.2818H187.291C187.716 42.882 190.125 38.703 195.72 38.703ZM230.833 67.4597C234.587 67.4597 236.995 66.4681 238.34 65.264L236.428 58.4644C235.932 58.9602 234.657 59.456 233.312 59.456C231.328 59.456 230.195 57.8269 230.195 55.7021V40.2613H237.136V32.3992H230.195V23.0498H221.129V32.3992H215.463V40.2613H221.129V58.1103C221.129 64.2016 224.529 67.4597 230.833 67.4597ZM253.561 66.6098V49.6816H265.602C275.801 49.6816 281.468 42.8111 281.468 34.5949C281.468 26.3079 275.872 19.3666 265.602 19.3666H243.503V66.6098H253.561ZM271.198 34.5241C271.198 38.4905 268.223 41.0404 264.256 41.0404H253.561V28.0078H264.256C268.223 28.0078 271.198 30.6285 271.198 34.5241ZM296.485 66.6098V19.3666H287.49V66.6098H296.485ZM334.941 66.6098V44.511C334.941 34.6658 327.787 31.5493 319.996 31.5493C314.613 31.5493 309.23 33.2492 305.051 36.9323L308.45 42.9528C311.354 40.2613 314.754 38.9155 318.437 38.9155C322.97 38.9155 325.945 41.1821 325.945 44.6527V49.3983C323.679 46.6359 319.641 45.2193 315.108 45.2193C309.654 45.2193 303.209 48.1233 303.209 56.127C303.209 63.7766 309.654 67.4597 315.108 67.4597C319.571 67.4597 323.608 65.8306 325.945 63.0683V66.6098H334.941ZM325.945 58.3936C324.458 60.3768 321.625 61.3684 318.721 61.3684C315.179 61.3684 312.275 59.5268 312.275 56.3395C312.275 53.0814 315.179 51.169 318.721 51.169C321.625 51.169 324.458 52.1606 325.945 54.1438V58.3936ZM342.659 79.9965C343.792 80.2798 346.059 80.4923 347.121 80.4923C353 80.3507 357.533 78.6508 360.083 72.2053L376.161 32.3992H366.457L357.533 56.1979L348.608 32.3992H338.976L352.858 67.1056L351.583 70.0096C350.733 71.8511 349.175 72.4886 346.838 72.4886C345.988 72.4886 344.784 72.2761 344.004 71.922L342.659 79.9965ZM377.202 62.1475C380.814 65.4765 386.551 67.4597 392.501 67.4597C401.992 67.4597 407.304 62.785 407.304 56.4812C407.304 47.9817 399.442 46.4234 393.563 45.2902C389.739 44.511 387.047 43.7319 387.047 41.607C387.047 39.6238 389.172 38.4197 392.43 38.4197C396.609 38.4197 400.505 40.1904 402.559 42.3862L406.1 36.224C402.771 33.5325 398.167 31.5493 392.359 31.5493C383.364 31.5493 378.335 36.5782 378.335 42.3153C378.335 50.4607 385.914 51.8773 391.793 53.0105C395.688 53.7897 398.663 54.6396 398.663 57.0478C398.663 59.1727 396.822 60.5185 392.926 60.5185C388.676 60.5185 383.576 58.1811 381.097 55.8437L377.202 62.1475Z" fill="white"></path><defs><clipPath id="clip0_1_119"><rect width="115.902" height="91.1466" fill="white"></rect></clipPath></defs></svg> 