<?xml version="1.0" encoding="UTF-8"?> <svg xmlns="http://www.w3.org/2000/svg" viewBox="0 0 600 229.42"><defs><style>.cls-1{fill:#fff;}</style></defs><title>lol-logo</title><g id="Layer_2" data-name="Layer 2"><g id="Layer_1-2" data-name="Layer 1"><path class="cls-1" d="M566.8,164.82c-10.2-2.6-19-4.8-19-13.2,0-6.6,5-10.8,13-10.8a15,15,0,0,1,15.6,12l20-9.6C591,130,578,122,561.4,122c-21.6,0-36.6,13.2-36.6,32,0,23,16.6,27.4,31.4,31.2,10.4,2.6,19.2,5,19.2,13.6,0,7.2-5.8,11.8-14.6,11.8s-16.2-4.8-18.2-12l-20,9.6c5.6,13.2,19.8,21.2,37.4,21.2,23.4,0,38.4-13,38.4-33.4,0-23.2-17.6-27.6-31.6-31.2Z"></path><path class="cls-1" d="M600,29v10.6H583v10h14.8L595,59.82H583v15.8H571.4V29Z"></path><path class="cls-1" d="M542.2,39.82a13,13,0,1,1-13,13A13,13,0,0,1,542.2,39.82Zm0,37.2a24.3,24.3,0,1,0-24.4-24.4A24.33,24.33,0,0,0,542.2,77Z"></path><path class="cls-1" d="M329,226.42h21.6v-68.2l49,68.2h22.6V122.62H400.4v69.2L352,122.62H324l5,10.2Z"></path><path class="cls-1" d="M495.4,186.82a30.94,30.94,0,0,1-16.2,16.4,30.61,30.61,0,0,1-12,2.4H454.8v-62h12.4a30.61,30.61,0,0,1,12,2.4,29.63,29.63,0,0,1,16.2,16.4,32.21,32.21,0,0,1,0,24.4Zm-7.2-60a66.6,66.6,0,0,0-20.6-4.4H432.2v103.8h35.4a54.65,54.65,0,0,0,37.6-14.8A49.4,49.4,0,0,0,516.6,195a50.92,50.92,0,0,0-11.4-57.2A56.47,56.47,0,0,0,488.2,126.82Z"></path><path class="cls-1" d="M138.4,226.42H76.6V122.62h61.8v20.2H99.2v21H135l-5.4,19.6H99.2v22.8l39.2.2Z"></path><path class="cls-1" d="M279.6,142.82h39.2v-20.2H257.2v103.8h61.6v-20l-39.2-.2v-22.8H310l5.4-19.6H279.6Z"></path><path class="cls-1" d="M358,82a49.51,49.51,0,0,1-2.8-17.8l.4-64H378l-.2,63c0,7,1.6,12.6,4.8,16.6a19.74,19.74,0,0,0,28.2.4l.4-.4c3.4-4,5-9.6,5-16.6L416.4,0h22.8l-.4,64.6a54.31,54.31,0,0,1-2.8,17.8A41.79,41.79,0,0,1,427.6,96a35.93,35.93,0,0,1-13.2,8.6,51.91,51.91,0,0,1-35.2-.2,34.11,34.11,0,0,1-13-8.8A37.54,37.54,0,0,1,358,82Z"></path><path class="cls-1" d="M245.6,74a52.46,52.46,0,0,1,.2-41.6,53,53,0,0,1,11.8-17A52.5,52.5,0,0,1,275,4a50.68,50.68,0,0,1,21.2-4,55.88,55.88,0,0,1,28.2,7.2A47.26,47.26,0,0,1,343.2,27l-20.4,9.6A28.72,28.72,0,0,0,312,25a31.7,31.7,0,0,0-16-4,32.6,32.6,0,0,0-12.4,2.4,29.19,29.19,0,0,0-10,7,32.28,32.28,0,0,0-6.8,10.4,33.82,33.82,0,0,0-.2,25.4,32.19,32.19,0,0,0,16.8,17.6,27.43,27.43,0,0,0,12.6,2.6A30.29,30.29,0,0,0,314,81a24.78,24.78,0,0,0,9.6-14.4h-37l9.2-18.8h51.6c.2,4,0,12.6-.2,14.4a59.23,59.23,0,0,1-3.6,14.2,48.75,48.75,0,0,1-27.2,27,54.71,54.71,0,0,1-59.2-12.2A55.52,55.52,0,0,1,245.6,74Z"></path><path class="cls-1" d="M5.2,93.62V11L0,.22H27.6V84H69l-5.8,20.4H0Z"></path><path class="cls-1" d="M5.2,215.62V133L0,122.22H27.6V206H69l-5.8,20.4H0Z"></path><path class="cls-1" d="M138.4,104.42H76.6V.62h61.8v20.2H99.2v21H135l-5.4,19.6H99.2V84l39.2.2Z"></path><path class="cls-1" d="M510.8,104.42H449.2V.62H511v20.2H471.8v21h35.8l-5.4,19.6H471.8V84l39.2.2v20.2Z"></path><path class="cls-1" d="M197.6,29.42l13,35H184Zm-29,75,7.8-20.2H218l8,20.2h23.4L207.6.22h-32l6.8,13.6-36.8,90.6Z"></path><path class="cls-1" d="M185.2,228a55.68,55.68,0,0,0,11.6,1.2,52.28,52.28,0,0,0,20.6-3.8,48.75,48.75,0,0,0,27.2-27,59.23,59.23,0,0,0,3.6-14.2,118,118,0,0,0,.2-14.6H196.8v.2l-9.2,18.8h36.8a24.78,24.78,0,0,1-9.6,14.4,31.1,31.1,0,0,1-23.6,4.8l-4.6-1.2c-.8-.2-1.4-.6-2.2-.8a31.56,31.56,0,0,1-16.8-17.6,34.34,34.34,0,0,1,.2-25.6,36,36,0,0,1,6.8-10.4,29.45,29.45,0,0,1,10.2-6.8,33.35,33.35,0,0,1,12.4-2.4,29.79,29.79,0,0,1,16,4,28.72,28.72,0,0,1,10.8,11.6l20.4-9.6a46.07,46.07,0,0,0-18.8-19.8,57.44,57.44,0,0,0-28.2-7.2,54,54,0,0,0-38.6,15.6,52.82,52.82,0,0,0-12,58.6,53.72,53.72,0,0,0,26.6,28,45.8,45.8,0,0,0,11.8,3.8Z"></path></g></g></svg> 