<?xml version="1.0" encoding="UTF-8"?> <svg xmlns="http://www.w3.org/2000/svg" xmlns:xlink="http://www.w3.org/1999/xlink" version="1.1" id="Layer_1" x="0px" y="0px" viewBox="0 0 612 138.8" style="enable-background:new 0 0 612 138.8;" xml:space="preserve"> <style type="text/css"> .st0{fill:#FFFFFF;} .st1{fill:url(#SVGID_1_);} </style> <g> <path class="st0" d="M83.9,49.1l-4.3,17.7c0,0-5.4-1.7-13.1-1.7c-5.8,0-14.2,1.8-19.4,3.9v48.8H29V49.3l15.9-0.8l0.7,3.9 c6.4-2.5,15-5,22.5-5C77.8,47.4,83.9,49.1,83.9,49.1z"></path> <path class="st0" d="M112.2,86.6c0,4.3-0.1,14,17.7,14c5.9,0,14.3-1.8,19.6-3.9V47.9h18.1v69.9h-15.9l-0.8-4.3 c-6.4,2.5-15,4.8-22.4,4.8C107,118.4,94,107.1,94,86.6V47.9h18.2V86.6z"></path> <path class="st0" d="M238.2,79.1c0-4.1,0.3-14-17.7-14c-5.8,0-14.2,1.8-19.4,3.9v48.8h-18.2V49.3l16.1-0.8l0.7,3.7 c6.4-2.5,15-4.8,22.4-4.8c21.4,0,34.4,11.3,34.4,31.8v38.7h-18.1L238.2,79.1z"></path> <linearGradient id="SVGID_1_" gradientUnits="userSpaceOnUse" x1="266.4644" y1="70.3639" x2="348.0815" y2="70.3639"> <stop offset="1.065558e-08" style="stop-color:#EE4799"></stop> <stop offset="8.845491e-02" style="stop-color:#EE418D"></stop> <stop offset="0.2875" style="stop-color:#EE3479"></stop> <stop offset="0.4825" style="stop-color:#EE286A"></stop> <stop offset="0.6698" style="stop-color:#EE1E60"></stop> <stop offset="0.8461" style="stop-color:#ED175A"></stop> <stop offset="1" style="stop-color:#ED1558"></stop> </linearGradient> <path class="st1" d="M323.2,23.6h0.5l11.5-0.7v61.4h12.9l-1.5,17.7h-11.4v15.9h-18.1v-15.9h-50.7l0.5-6.6v-0.1l0.9-10.9L323.2,23.6 z M317.3,55l-25.7,29.3h25.6L317.3,55z"></path> <path class="st0" d="M447.4,117.8h-21.6l-15.5-41.2L395,117.8h-21.6l-22.1-68.6l19.4-0.8l13.9,49.6l16.8-48.7l17.8-1L436,98.4 l14.1-49.1l19.3-0.8L447.4,117.8z"></path> <path class="st0" d="M484.9,44c-6.3,0-11.4-5.3-11.4-11.9c0-6.5,5.1-11.7,11.4-11.7c6.4,0,11.5,5.3,11.5,11.7 C496.4,38.8,491.3,44,484.9,44z M494.2,117.8h-18.1V49.3l18.1-0.8V117.8z"></path> <path class="st0" d="M564.8,79.1c0-4.1,0.3-14-17.7-14c-5.8,0-14.2,1.8-19.4,3.9v48.8h-18.2V49.3l16.1-0.8l0.7,3.7 c6.4-2.5,15-4.8,22.4-4.8c21.4,0,34.4,11.3,34.4,31.8v38.7h-18.1L564.8,79.1z"></path> </g> </svg> 